{
.appVersion = "1181";
copyright = "Copyright 2018 Google Inc. All Rights Reserved.";
customParameters = (
{
name = glyphOrder;
value = (
.notdef,
NULL,
CR,
space,
nbspace,
uni200B,
uni200C,
uni200D,
uni25CC,
panyangga.ns,
cecak.ns,
layar.ns,
wignyan,
akara,
ikawi,
ikara,
iikara,
ukara,
pacerek,
ngalelet,
ngaleletras,
ekara,
aikara,
okara,
ka,
qa,
kha,
ga,
gha,
nga,
ca,
cha,
ja,
jnya,
jha,
jha.alt,
jha.alt1,
nya,
tta,
ttha,
dda,
ddha,
nna,
ta,
tha,
da,
dha,
na,
pa,
pha,
ba,
bha,
ma,
ya,
ra,
raagung,
la,
wa,
sha,
ssa,
sa,
ha,
cecaktelu.ns,
cecaktelu.ns_panyangga.ns,
cecaktelu.ns_cecak.ns,
cecaktelu.ns_layar.ns,
cecaktelu.ns_i.ns,
cecaktelu.ns_i.ns_panyangga.ns,
cecaktelu.ns_i.ns_cecak.ns,
cecaktelu.ns_i.ns_layar.ns,
cecaktelu.ns_ii.ns,
cecaktelu.ns_ii.ns_panyangga.ns,
cecaktelu.ns_ii.ns_cecak.ns,
cecaktelu.ns_ii.ns_layar.ns,
cecaktelu.ns_ae.ns,
cecaktelu.ns_ae.ns_panyangga.ns,
cecaktelu.ns_ae.ns_cecak.ns,
cecaktelu.ns_ae.ns_layar.ns,
tarung,
tolong,
i.ns,
i.ns_panyangga.ns,
i.ns_cecak.ns,
i.ns_layar.ns,
ii.ns,
ii.ns_panyangga.ns,
ii.ns_cecak.ns,
ii.ns_layar.ns,
u.ns,
u.ns.pas,
uu.ns,
uu.ns.pas,
taling,
dirgam,
ae.ns,
ae.ns_panyangga.ns,
ae.ns_cecak.ns,
ae.ns_layar.ns,
keret.ns,
keret.ns.alt,
pengkal,
pengkal.alt_u.ns,
pengkal.alt_uu.ns,
pengkal.pas,
pengkal.pas.alt_u.ns,
pengkal.pas.alt_uu.ns,
pengkal.alt1,
pengkal.alt1_u.ns,
pengkal.alt1_uu.ns,
cakra,
cakra.pas,
cakra.pas.alt,
pangkon,
uniA9C1,
uniA9C2,
uniA9C3,
uniA9C4,
uniA9C5,
uniA9C6,
uniA9C7,
uniA9C8,
uniA9C9,
uniA9CA,
uniA9CB,
uniA9CC,
uniA9CD,
uniA9CF,
zeroJV,
oneJV,
twoJV,
threeJV,
fourJV,
fiveJV,
sixJV,
sevenJV,
eightJV,
nineJV,
uniA9DE,
uniA9DF,
ja_keret,
jnya_keret,
jha_keret,
pha_keret,
bha_keret,
kha_pengkal,
ja_pengkal,
jnya_pengkal,
jha_pengkal,
pha_pengkal,
bha_pengkal,
ja_pengkal_u.ns,
kha_pengkal_u.ns,
jnya_pengkal_u.ns,
jha_pengkal_u.ns,
pha_pengkal_u.ns,
bha_pengkal_u.ns,
ja_pengkal_uu.ns,
kha_pengkal_uu.ns,
jnya_pengkal_uu.ns,
jha_pengkal_uu.ns,
pha_pengkal_uu.ns,
bha_pengkal_uu.ns,
ka_cakra,

glyphs = (
{
glyphname = .notdef;
lastChange = "2018-12-13 17:24:08 +0000";
layers = (
{
layerId = "BA48FBA0-A6DA-4EAF-9284-46C574130433";
paths = (
{
closed = 1;
nodes = (
"505 0 LINE",
"505 714 LINE",
"94 714 LINE",
"94 0 LINE"
);
},
{
closed = 1;
nodes = (
"145 663 LINE",
"454 663 LINE",
"454 51 LINE",
"145 51 LINE"
);
}
);
width = 600;
},
{
layerId = "791C41F8-8E37-43C9-BD6C-904761E149BF";
paths = (
{
closed = 1;
nodes = (
"505 0 LINE",
"505 714 LINE",
"94 714 LINE",
"94 0 LINE"
);
},
{
closed = 1;
nodes = (
"145 663 LINE",
"454 663 LINE",
"454 51 LINE",
"145 51 LINE"
);
}
);
width = 600;
}
);
note = .notdef;
category = Letter;
},
{
glyphname = uni25CC;
lastChange = "2018-12-13 17:24:08 +0000";
layers = (
{
layerId = "BA48FBA0-A6DA-4EAF-9284-46C574130433";
paths = (
{
closed = 1;
nodes = (
"199 522 OFFCURVE",
"187 510 OFFCURVE",
"187 496 CURVE SMOOTH",
"187 482 OFFCURVE",
"199 470 OFFCURVE",
"213 470 CURVE SMOOTH",
"227 470 OFFCURVE",
"239 482 OFFCURVE",
"239 496 CURVE SMOOTH",
"239 510 OFFCURVE",
"227 522 OFFCURVE",
"213 522 CURVE SMOOTH"
);
},
{
closed = 1;
nodes = (
"367 522 OFFCURVE",
"355 510 OFFCURVE",
"355 496 CURVE SMOOTH",
"355 482 OFFCURVE",
"367 470 OFFCURVE",
"381 470 CURVE SMOOTH",
"395 470 OFFCURVE",
"407 482 OFFCURVE",
"407 496 CURVE SMOOTH",
"407 510 OFFCURVE",
"395 522 OFFCURVE",
"381 522 CURVE SMOOTH"
);
},
{
closed = 1;
nodes = (
"199 112 OFFCURVE",
"187 100 OFFCURVE",
"187 86 CURVE SMOOTH",
"187 72 OFFCURVE",
"199 60 OFFCURVE",
"213 60 CURVE SMOOTH",
"227 60 OFFCURVE",
"239 72 OFFCURVE",
"239 86 CURVE SMOOTH",
"239 100 OFFCURVE",
"227 112 OFFCURVE",
"213 112 CURVE SMOOTH"
);
},
{
closed = 1;
nodes = (
"367 112 OFFCURVE",
"355 100 OFFCURVE",
"355 86 CURVE SMOOTH",
"355 72 OFFCURVE",
"367 60 OFFCURVE",
"381 60 CURVE SMOOTH",
"395 60 OFFCURVE",
"407 72 OFFCURVE",
"407 86 CURVE SMOOTH",
"407 100 OFFCURVE",
"395 112 OFFCURVE",
"381 112 CURVE SMOOTH"
);
},
{
closed = 1;
nodes = (
"283 540 OFFCURVE",
"271 528 OFFCURVE",
"271 514 CURVE SMOOTH",
"271 500 OFFCURVE",
"283 488 OFFCURVE",
"297 488 CURVE SMOOTH",
"311 488 OFFCURVE",
"323 500 OFFCURVE",
"323 514 CURVE SMOOTH",
"323 528 OFFCURVE",
"311 540 OFFCURVE",
"297 540 CURVE SMOOTH"
);
},
{
closed = 1;
nodes = (
"283 94 OFFCURVE",
"271 82 OFFCURVE",
"271 68 CURVE SMOOTH",
"271 54 OFFCURVE",
"283 42 OFFCURVE",
"297 42 CURVE SMOOTH",
"311 42 OFFCURVE",
"323 54 OFFCURVE",
"323 68 CURVE SMOOTH",
"323 82 OFFCURVE",
"311 94 OFFCURVE",
"297 94 CURVE SMOOTH"
);
},
{
closed = 1;
nodes = (
"48 277 OFFCURVE",
"60 265 OFFCURVE",
"74 265 CURVE SMOOTH",
"88 265 OFFCURVE",
"100 277 OFFCURVE",
"100 291 CURVE SMOOTH",
"100 305 OFFCURVE",
"88 317 OFFCURVE",
"74 317 CURVE SMOOTH",
"60 317 OFFCURVE",
"48 305 OFFCURVE",
"48 291 CURVE SMOOTH"
);
},
{
closed = 1;
nodes = (
"494 277 OFFCURVE",
"506 265 OFFCURVE",
"520 265 CURVE SMOOTH",
"534 265 OFFCURVE",
"546 277 OFFCURVE",
"546 291 CURVE SMOOTH",
"546 305 OFFCURVE",
"534 317 OFFCURVE",
"520 317 CURVE SMOOTH",
"506 317 OFFCURVE",
"494 305 OFFCURVE",
"494 291 CURVE SMOOTH"
);
},
{
closed = 1;
nodes = (
"113 119 OFFCURVE",
"125 107 OFFCURVE",
"139 107 CURVE SMOOTH",
"153 107 OFFCURVE",
"165 119 OFFCURVE",
"165 133 CURVE SMOOTH",
"165 147 OFFCURVE",
"153 159 OFFCURVE",
"139 159 CURVE SMOOTH",
"125 159 OFFCURVE",
"113 147 OFFCURVE",
"113 133 CURVE SMOOTH"
);
},
{
closed = 1;
nodes = (
"113 435 OFFCURVE",
"125 423 OFFCURVE",
"139 423 CURVE SMOOTH",
"153 423 OFFCURVE",
"165 435 OFFCURVE",
"165 449 CURVE SMOOTH",
"165 463 OFFCURVE",
"153 475 OFFCURVE",
"139 475 CURVE SMOOTH",
"125 475 OFFCURVE",
"113 463 OFFCURVE",
"113 449 CURVE SMOOTH"
);
},
{
closed = 1;
nodes = (
"429 119 OFFCURVE",
"441 107 OFFCURVE",
"455 107 CURVE SMOOTH",
"469 107 OFFCURVE",
"481 119 OFFCURVE",
"481 133 CURVE SMOOTH",
"481 147 OFFCURVE",
"469 159 OFFCURVE",
"455 159 CURVE SMOOTH",
"441 159 OFFCURVE",
"429 147 OFFCURVE",
"429 133 CURVE SMOOTH"
);
},
{
closed = 1;
nodes = (
"429 435 OFFCURVE",
"441 423 OFFCURVE",
"455 423 CURVE SMOOTH",
"469 423 OFFCURVE",
"481 435 OFFCURVE",
"481 449 CURVE SMOOTH",
"481 463 OFFCURVE",
"469 475 OFFCURVE",
"455 475 CURVE SMOOTH",
"441 475 OFFCURVE",
"429 463 OFFCURVE",
"429 449 CURVE SMOOTH"
);
},
{
closed = 1;
nodes = (
"66 193 OFFCURVE",
"78 181 OFFCURVE",
"92 181 CURVE SMOOTH",
"106 181 OFFCURVE",
"118 193 OFFCURVE",
"118 207 CURVE SMOOTH",
"118 221 OFFCURVE",
"106 233 OFFCURVE",
"92 233 CURVE SMOOTH",
"78 233 OFFCURVE",
"66 221 OFFCURVE",
"66 207 CURVE SMOOTH"
);
},
{
closed = 1;
nodes = (
"66 361 OFFCURVE",
"78 349 OFFCURVE",
"92 349 CURVE SMOOTH",
"106 349 OFFCURVE",
"118 361 OFFCURVE",
"118 375 CURVE SMOOTH",
"118 389 OFFCURVE",
"106 401 OFFCURVE",
"92 401 CURVE SMOOTH",
"78 401 OFFCURVE",
"66 389 OFFCURVE",
"66 375 CURVE SMOOTH"
);
},
{
closed = 1;
nodes = (
"476 193 OFFCURVE",
"488 181 OFFCURVE",
"502 181 CURVE SMOOTH",
"516 181 OFFCURVE",
"528 193 OFFCURVE",
"528 207 CURVE SMOOTH",
"528 221 OFFCURVE",
"516 233 OFFCURVE",
"502 233 CURVE SMOOTH",
"488 233 OFFCURVE",
"476 221 OFFCURVE",
"476 207 CURVE SMOOTH"
);
},
{
closed = 1;
nodes = (
"476 361 OFFCURVE",
"488 349 OFFCURVE",
"502 349 CURVE SMOOTH",
"516 349 OFFCURVE",
"528 361 OFFCURVE",
"528 375 CURVE SMOOTH",
"528 389 OFFCURVE",
"516 401 OFFCURVE",
"502 401 CURVE SMOOTH",
"488 401 OFFCURVE",
"476 389 OFFCURVE",
"476 375 CURVE SMOOTH"
);
}
);
width = 594;
},
{
layerId = "791C41F8-8E37-43C9-BD6C-904761E149BF";
paths = (
{
closed = 1;
nodes = (
"199 522 OFFCURVE",
"187 510 OFFCURVE",
"187 496 CURVE SMOOTH",
"187 482 OFFCURVE",
"199 470 OFFCURVE",
"213 470 CURVE SMOOTH",
"227 470 OFFCURVE",
"239 482 OFFCURVE",
"239 496 CURVE SMOOTH",
"239 510 OFFCURVE",
"227 522 OFFCURVE",
"213 522 CURVE SMOOTH"
);
},
{
closed = 1;
nodes = (
"367 522 OFFCURVE",
"355 510 OFFCURVE",
"355 496 CURVE SMOOTH",
"355 482 OFFCURVE",
"367 470 OFFCURVE",
"381 470 CURVE SMOOTH",
"395 470 OFFCURVE",
"407 482 OFFCURVE",
"407 496 CURVE SMOOTH",
"407 510 OFFCURVE",
"395 522 OFFCURVE",
"381 522 CURVE SMOOTH"
);
},
{
closed = 1;
nodes = (
"199 112 OFFCURVE",
"187 100 OFFCURVE",
"187 86 CURVE SMOOTH",
"187 72 OFFCURVE",
"199 60 OFFCURVE",
"213 60 CURVE SMOOTH",
"227 60 OFFCURVE",
"239 72 OFFCURVE",
"239 86 CURVE SMOOTH",
"239 100 OFFCURVE",
"227 112 OFFCURVE",
"213 112 CURVE SMOOTH"
);
},
{
closed = 1;
nodes = (
"367 112 OFFCURVE",
"355 100 OFFCURVE",
"355 86 CURVE SMOOTH",
"355 72 OFFCURVE",
"367 60 OFFCURVE",
"381 60 CURVE SMOOTH",
"395 60 OFFCURVE",
"407 72 OFFCURVE",
"407 86 CURVE SMOOTH",
"407 100 OFFCURVE",
"395 112 OFFCURVE",
"381 112 CURVE SMOOTH"
);
},
{
closed = 1;
nodes = (
"283 540 OFFCURVE",
"271 528 OFFCURVE",
"271 514 CURVE SMOOTH",
"271 500 OFFCURVE",
"283 488 OFFCURVE",
"297 488 CURVE SMOOTH",
"311 488 OFFCURVE",
"323 500 OFFCURVE",
"323 514 CURVE SMOOTH",
"323 528 OFFCURVE",
"311 540 OFFCURVE",
"297 540 CURVE SMOOTH"
);
},
{
closed = 1;
nodes = (
"283 94 OFFCURVE",
"271 82 OFFCURVE",
"271 68 CURVE SMOOTH",
"271 54 OFFCURVE",
"283 42 OFFCURVE",
"297 42 CURVE SMOOTH",
"311 42 OFFCURVE",
"323 54 OFFCURVE",
"323 68 CURVE SMOOTH",
"323 82 OFFCURVE",
"311 94 OFFCURVE",
"297 94 CURVE SMOOTH"
);
},
{
closed = 1;
nodes = (
"48 277 OFFCURVE",
"60 265 OFFCURVE",
"74 265 CURVE SMOOTH",
"88 265 OFFCURVE",
"100 277 OFFCURVE",
"100 291 CURVE SMOOTH",
"100 305 OFFCURVE",
"88 317 OFFCURVE",
"74 317 CURVE SMOOTH",
"60 317 OFFCURVE",
"48 305 OFFCURVE",
"48 291 CURVE SMOOTH"
);
},
{
closed = 1;
nodes = (
"494 277 OFFCURVE",
"506 265 OFFCURVE",
"520 265 CURVE SMOOTH",
"534 265 OFFCURVE",
"546 277 OFFCURVE",
"546 291 CURVE SMOOTH",
"546 305 OFFCURVE",
"534 317 OFFCURVE",
"520 317 CURVE SMOOTH",
"506 317 OFFCURVE",
"494 305 OFFCURVE",
"494 291 CURVE SMOOTH"
);
},
{
closed = 1;
nodes = (
"113 119 OFFCURVE",
"125 107 OFFCURVE",
"139 107 CURVE SMOOTH",
"153 107 OFFCURVE",
"165 119 OFFCURVE",
"165 133 CURVE SMOOTH",
"165 147 OFFCURVE",
"153 159 OFFCURVE",
"139 159 CURVE SMOOTH",
"125 159 OFFCURVE",
"113 147 OFFCURVE",
"113 133 CURVE SMOOTH"
);
},
{
closed = 1;
nodes = (
"113 435 OFFCURVE",
"125 423 OFFCURVE",
"139 423 CURVE SMOOTH",
"153 423 OFFCURVE",
"165 435 OFFCURVE",
"165 449 CURVE SMOOTH",
"165 463 OFFCURVE",
"153 475 OFFCURVE",
"139 475 CURVE SMOOTH",
"125 475 OFFCURVE",
"113 463 OFFCURVE",
"113 449 CURVE SMOOTH"
);
},
{
closed = 1;
nodes = (
"429 119 OFFCURVE",
"441 107 OFFCURVE",
"455 107 CURVE SMOOTH",
"469 107 OFFCURVE",
"481 119 OFFCURVE",
"481 133 CURVE SMOOTH",
"481 147 OFFCURVE",
"469 159 OFFCURVE",
"455 159 CURVE SMOOTH",
"441 159 OFFCURVE",
"429 147 OFFCURVE",
"429 133 CURVE SMOOTH"
);
},
{
closed = 1;
nodes = (
"429 435 OFFCURVE",
"441 423 OFFCURVE",
"455 423 CURVE SMOOTH",
"469 423 OFFCURVE",
"481 435 OFFCURVE",
"481 449 CURVE SMOOTH",
"481 463 OFFCURVE",
"469 475 OFFCURVE",
"455 475 CURVE SMOOTH",
"441 475 OFFCURVE",
"429 463 OFFCURVE",
"429 449 CURVE SMOOTH"
);
},
{
closed = 1;
nodes = (
"66 193 OFFCURVE",
"78 181 OFFCURVE",
"92 181 CURVE SMOOTH",
"106 181 OFFCURVE",
"118 193 OFFCURVE",
"118 207 CURVE SMOOTH",
"118 221 OFFCURVE",
"106 233 OFFCURVE",
"92 233 CURVE SMOOTH",
"78 233 OFFCURVE",
"66 221 OFFCURVE",
"66 207 CURVE SMOOTH"
);
},
{
closed = 1;
nodes = (
"66 361 OFFCURVE",
"78 349 OFFCURVE",
"92 349 CURVE SMOOTH",
"106 349 OFFCURVE",
"118 361 OFFCURVE",
"118 375 CURVE SMOOTH",
"118 389 OFFCURVE",
"106 401 OFFCURVE",
"92 401 CURVE SMOOTH",
"78 401 OFFCURVE",
"66 389 OFFCURVE",
"66 375 CURVE SMOOTH"
);
},
{
closed = 1;
nodes = (
"476 193 OFFCURVE",
"488 181 OFFCURVE",
"502 181 CURVE SMOOTH",
"516 181 OFFCURVE",
"528 193 OFFCURVE",
"528 207 CURVE SMOOTH",
"528 221 OFFCURVE",
"516 233 OFFCURVE",
"502 233 CURVE SMOOTH",
"488 233 OFFCURVE",
"476 221 OFFCURVE",
"476 207 CURVE SMOOTH"
);
},
{
closed = 1;
nodes = (
"476 361 OFFCURVE",
"488 349 OFFCURVE",
"502 349 CURVE SMOOTH",
"516 349 OFFCURVE",
"528 361 OFFCURVE",
"528 375 CURVE SMOOTH",
"528 389 OFFCURVE",
"516 401 OFFCURVE",
"502 401 CURVE SMOOTH",
"488 401 OFFCURVE",
"476 389 OFFCURVE",
"476 375 CURVE SMOOTH"
);
}
);
width = 594;
}
);
note = uni25CC;
unicode = 25CC;
category = Letter;
},
{
glyphname = panyangga.ns;
lastChange = "2018-12-13 17:24:08 +0000";
layers = (
{
layerId = "BA48FBA0-A6DA-4EAF-9284-46C574130433";
paths = (
{
closed = 1;
nodes = (
"-389 587 OFFCURVE",
"-333 623 OFFCURVE",
"-298 693 CURVE",
"-341 722 LINE",
"-349 707 OFFCURVE",
"-360 695 OFFCURVE",
"-374 686 CURVE",
"-381 743 OFFCURVE",
"-412 786 OFFCURVE",
"-465 815 CURVE",
"-519 786 OFFCURVE",
"-549 743 OFFCURVE",
"-557 686 CURVE",
"-570 695 OFFCURVE",
"-582 707 OFFCURVE",
"-590 722 CURVE",
"-632 693 LINE",
"-597 623 OFFCURVE",
"-542 587 OFFCURVE",
"-465 587 CURVE SMOOTH"
);
},
{
closed = 1;
nodes = (
"-483 661 OFFCURVE",
"-497 663 OFFCURVE",
"-507 666 CURVE",
"-506 702 OFFCURVE",
"-493 729 OFFCURVE",
"-465 750 CURVE",
"-438 729 OFFCURVE",
"-424 702 OFFCURVE",
"-424 666 CURVE",
"-434 663 OFFCURVE",
"-448 661 OFFCURVE",
"-465 661 CURVE SMOOTH"
);
}
);
width = 0;
},
{
layerId = "791C41F8-8E37-43C9-BD6C-904761E149BF";
paths = (
{
closed = 1;
nodes = (
"-403 587 OFFCURVE",
"-339 628 OFFCURVE",
"-298 709 CURVE",
"-347 743 LINE",
"-356 726 OFFCURVE",
"-369 711 OFFCURVE",
"-385 700 CURVE",
"-394 766 OFFCURVE",
"-429 816 OFFCURVE",
"-490 849 CURVE",
"-551 816 OFFCURVE",
"-587 766 OFFCURVE",
"-596 700 CURVE",
"-612 711 OFFCURVE",
"-625 726 OFFCURVE",
"-634 743 CURVE",
"-683 709 LINE",
"-642 628 OFFCURVE",
"-578 587 OFFCURVE",
"-490 587 CURVE SMOOTH"
);
},
{
closed = 1;
nodes = (
"-504 672 OFFCURVE",
"-516 674 OFFCURVE",
"-526 676 CURVE",
"-526 707 OFFCURVE",
"-514 731 OFFCURVE",
"-490 749 CURVE",
"-467 731 OFFCURVE",
"-455 707 OFFCURVE",
"-455 676 CURVE",
"-465 674 OFFCURVE",
"-477 672 OFFCURVE",
"-490 672 CURVE SMOOTH"
);
}
);
width = 0;
}
);
note = panyangga.ns;
unicode = A980;
category = Mark;
},
{
glyphname = cecak.ns;
lastChange = "2018-12-13 17:24:08 +0000";
layers = (
{
layerId = "BA48FBA0-A6DA-4EAF-9284-46C574130433";
paths = (
{
closed = 1;
nodes = (
"-128 626 OFFCURVE",
"-86 653 OFFCURVE",
"-54 708 CURVE",
"-93 734 LINE",
"-113 704 OFFCURVE",
"-132 684 OFFCURVE",
"-152 673 CURVE",
"-156 677 LINE",
"-153 683 OFFCURVE",
"-151 689 OFFCURVE",
"-151 693 CURVE SMOOTH",
"-151 710 OFFCURVE",
"-168 726 OFFCURVE",
"-191 726 CURVE SMOOTH",
"-220 726 OFFCURVE",
"-244 704 OFFCURVE",
"-244 676 CURVE SMOOTH",
"-244 646 OFFCURVE",
"-213 626 OFFCURVE",
"-182 626 CURVE SMOOTH"
);
}
);
width = 0;
},
{
layerId = "791C41F8-8E37-43C9-BD6C-904761E149BF";
paths = (
{
closed = 1;
nodes = (
"-80 626 OFFCURVE",
"-20 665 OFFCURVE",
"26 742 CURVE",
"-29 779 LINE",
"-58 736 OFFCURVE",
"-86 708 OFFCURVE",
"-114 693 CURVE",
"-119 698 LINE",
"-115 707 OFFCURVE",
"-113 715 OFFCURVE",
"-113 723 CURVE SMOOTH",
"-113 746 OFFCURVE",
"-135 768 OFFCURVE",
"-169 768 CURVE SMOOTH",
"-210 768 OFFCURVE",
"-244 737 OFFCURVE",
"-244 697 CURVE SMOOTH",
"-244 652 OFFCURVE",
"-202 626 OFFCURVE",
"-155 626 CURVE SMOOTH"
);
}
);
width = 0;
}
);
note = cecak.ns;
unicode = A981;
category = Mark;
},
{
glyphname = layar.ns;
lastChange = "2018-12-13 17:24:08 +0000";
layers = (
{
layerId = "BA48FBA0-A6DA-4EAF-9284-46C574130433";
paths = (
{
closed = 1;
nodes = (
"145 838 LINE",
"110 891 LINE",
"-239 652 LINE",
"-205 602 LINE"
);
}
);
width = 0;
},
{
layerId = "791C41F8-8E37-43C9-BD6C-904761E149BF";
paths = (
{
closed = 1;
nodes = (
"216 876 LINE",
"148 974 LINE",
"-256 669 LINE",
"-193 583 LINE"
);
}
);
width = 0;
}
);
note = layar.ns;
unicode = A982;
category = Mark;
},
{
glyphname = wignyan;
lastChange = "2018-12-13 17:24:08 +0000";
layers = (
{
layerId = "BA48FBA0-A6DA-4EAF-9284-46C574130433";
paths = (
{
closed = 1;
nodes = (
"421 -630 OFFCURVE",
"441 -466 OFFCURVE",
"441 -342 CURVE SMOOTH",
"441 -120 OFFCURVE",
"356 27 OFFCURVE",
"146 52 CURVE",
"242 140 OFFCURVE",
"317 284 OFFCURVE",
"317 395 CURVE SMOOTH",
"317 483 OFFCURVE",
"268 546 OFFCURVE",
"182 546 CURVE SMOOTH",
"98 546 OFFCURVE",
"52 485 OFFCURVE",
"52 399 CURVE SMOOTH",
"52 313 OFFCURVE",
"107 257 OFFCURVE",
"195 244 CURVE",
"157 163 OFFCURVE",
"118 107 OFFCURVE",
"49 56 CURVE",
"49 1 LINE",
"274 -21 OFFCURVE",
"355 -145 OFFCURVE",
"355 -380 CURVE SMOOTH",
"355 -494 OFFCURVE",
"340 -644 OFFCURVE",
"309 -825 CURVE",
"380 -833 LINE"
);
},
{
closed = 1;
nodes = (
"160 323 OFFCURVE",
"130 350 OFFCURVE",
"130 399 CURVE SMOOTH",
"130 437 OFFCURVE",
"147 469 OFFCURVE",
"181 469 CURVE SMOOTH",
"215 469 OFFCURVE",
"233 437 OFFCURVE",
"233 394 CURVE SMOOTH",
"233 371 OFFCURVE",
"229 346 OFFCURVE",
"219 317 CURVE"
);
}
);
width = 353;
},
{
layerId = "791C41F8-8E37-43C9-BD6C-904761E149BF";
paths = (
{
closed = 1;
nodes = (
"494 -640 OFFCURVE",
"521 -455 OFFCURVE",
"521 -313 CURVE SMOOTH",
"521 -82 OFFCURVE",
"416 40 OFFCURVE",
"178 91 CURVE",
"290 152 OFFCURVE",
"381 249 OFFCURVE",
"381 376 CURVE SMOOTH",
"381 491 OFFCURVE",
"311 546 OFFCURVE",
"204 546 CURVE SMOOTH",
"111 546 OFFCURVE",
"49 489 OFFCURVE",
"49 399 CURVE SMOOTH",
"49 322 OFFCURVE",
"107 252 OFFCURVE",
"176 216 CURVE",
"167 200 OFFCURVE",
"127 173 OFFCURVE",
"57 134 CURVE",
"57 -3 LINE",
"299 -50 OFFCURVE",
"396 -151 OFFCURVE",
"396 -390 CURVE SMOOTH",
"396 -521 OFFCURVE",
"380 -677 OFFCURVE",
"349 -851 CURVE",
"440 -867 LINE"
);
},
{
closed = 1;
nodes = (
"189 331 OFFCURVE",
"168 360 OFFCURVE",
"168 392 CURVE SMOOTH",
"168 420 OFFCURVE",
"180 438 OFFCURVE",
"211 438 CURVE SMOOTH",
"240 438 OFFCURVE",
"255 423 OFFCURVE",
"255 385 CURVE SMOOTH",
"255 359 OFFCURVE",
"247 333 OFFCURVE",
"231 305 CURVE"
);
}
);
width = 426;
}
);
note = wignyan;
unicode = A983;
category = Letter;
},
{
glyphname = akara;
lastChange = "2018-12-13 17:24:08 +0000";
layers = (
{
layerId = "BA48FBA0-A6DA-4EAF-9284-46C574130433";
paths = (
{
closed = 1;
nodes = (
"1053 -2 OFFCURVE",
"1087 39 OFFCURVE",
"1087 134 CURVE SMOOTH",
"1087 220 LINE",
"1164 220 OFFCURVE",
"1202 197 OFFCURVE",
"1202 151 CURVE SMOOTH",
"1202 0 LINE",
"1289 0 LINE",
"1289 393 LINE SMOOTH",
"1289 495 OFFCURVE",
"1241 546 OFFCURVE",
"1145 546 CURVE SMOOTH",
"1049 546 OFFCURVE",
"1000 493 OFFCURVE",
"1000 388 CURVE SMOOTH",
"1000 292 LINE",
"885 292 LINE",
"919 390 LINE",
"837 390 LINE",
"788 252 LINE",
"803 220 LINE",
"1000 220 LINE",
"1000 134 LINE SMOOTH",
"1000 98 OFFCURVE",
"988 80 OFFCURVE",
"965 80 CURVE SMOOTH",
"956 80 OFFCURVE",
"920 97 OFFCURVE",
"866 136 CURVE SMOOTH",
"800 184 OFFCURVE",
"767 205 OFFCURVE",
"718 205 CURVE SMOOTH",
"663 205 OFFCURVE",
"614 150 OFFCURVE",
"572 42 CURVE",
"642 2 LINE",
"666 77 OFFCURVE",
"695 114 OFFCURVE",
"729 114 CURVE SMOOTH",
"750 114 OFFCURVE",
"790 95 OFFCURVE",
"850 54 CURVE SMOOTH",
"899 20 OFFCURVE",
"944 -2 OFFCURVE",
"983 -2 CURVE SMOOTH"
);
},
{
closed = 1;
nodes = (
"447 0 OFFCURVE",
"541 45 OFFCURVE",
"541 144 CURVE SMOOTH",
"541 221 OFFCURVE",
"498 255 OFFCURVE",
"422 277 CURVE",
"422 282 LINE",
"489 301 OFFCURVE",
"522 342 OFFCURVE",
"522 404 CURVE SMOOTH",
"522 495 OFFCURVE",
"465 544 OFFCURVE",
"373 544 CURVE SMOOTH",
"323 544 OFFCURVE",
"276 527 OFFCURVE",
"231 494 CURVE",
"262 424 LINE",
"297 452 OFFCURVE",
"334 466 OFFCURVE",
"373 466 CURVE SMOOTH",
"414 466 OFFCURVE",
"440 443 OFFCURVE",
"440 404 CURVE SMOOTH",
"440 345 OFFCURVE",
"395 315 OFFCURVE",
"310 315 CURVE SMOOTH",
"278 315 LINE",
"278 243 LINE",
"326 243 LINE SMOOTH",
"411 243 OFFCURVE",
"453 212 OFFCURVE",
"453 151 CURVE SMOOTH",
"453 103 OFFCURVE",
"417 78 OFFCURVE",
"345 78 CURVE SMOOTH",
"226 78 OFFCURVE",
"161 156 OFFCURVE",
"161 294 CURVE SMOOTH",
"161 441 OFFCURVE",
"209 578 OFFCURVE",
"308 717 CURVE",
"248 750 LINE",
"147 609 OFFCURVE",
"73 456 OFFCURVE",
"73 296 CURVE SMOOTH",
"73 110 OFFCURVE",
"179 0 OFFCURVE",
"354 0 CURVE SMOOTH"
);
},
{
closed = 1;
nodes = (
"1180 278 OFFCURVE",
"1145 292 OFFCURVE",
"1097 292 CURVE SMOOTH",
"1087 292 LINE",
"1087 391 LINE SMOOTH",
"1087 444 OFFCURVE",
"1107 470 OFFCURVE",
"1145 470 CURVE SMOOTH",
"1183 470 OFFCURVE",
"1202 445 OFFCURVE",
"1202 394 CURVE SMOOTH",
"1202 248 LINE"
);
}
);
width = 1338;
},
{
layerId = "791C41F8-8E37-43C9-BD6C-904761E149BF";
paths = (
{
closed = 1;
nodes = (
"1225 -3 OFFCURVE",
"1268 43 OFFCURVE",
"1268 134 CURVE SMOOTH",
"1268 214 LINE",
"1344 200 OFFCURVE",
"1383 164 OFFCURVE",
"1383 103 CURVE SMOOTH",
"1383 0 LINE",
"1514 0 LINE",
"1514 369 LINE SMOOTH",
"1514 487 OFFCURVE",
"1451 546 OFFCURVE",
"1326 546 CURVE SMOOTH",
"1200 546 OFFCURVE",
"1137 485 OFFCURVE",
"1137 364 CURVE SMOOTH",
"1137 317 LINE",
"1060 317 LINE",
"1097 404 LINE",
"1013 404 LINE",
"937 245 LINE",
"954 215 LINE",
"1137 215 LINE",
"1137 183 LINE SMOOTH",
"1137 147 OFFCURVE",
"1123 129 OFFCURVE",
"1097 129 CURVE SMOOTH",
"1085 129 OFFCURVE",
"1045 145 OFFCURVE",
"974 178 CURVE SMOOTH",
"892 216 OFFCURVE",
"842 234 OFFCURVE",
"801 234 CURVE SMOOTH",
"746 234 OFFCURVE",
"686 176 OFFCURVE",
"619 61 CURVE",
"691 5 LINE",
"738 71 OFFCURVE",
"778 104 OFFCURVE",
"813 104 CURVE SMOOTH",
"833 104 OFFCURVE",
"881 88 OFFCURVE",
"956 51 CURVE SMOOTH",
"1026 17 OFFCURVE",
"1083 -3 OFFCURVE",
"1141 -3 CURVE SMOOTH"
);
},
{
closed = 1;
nodes = (
"517 0 OFFCURVE",
"619 44 OFFCURVE",
"619 158 CURVE SMOOTH",
"619 234 OFFCURVE",
"546 271 OFFCURVE",
"485 282 CURVE",
"485 287 LINE",
"562 306 OFFCURVE",
"600 345 OFFCURVE",
"600 404 CURVE SMOOTH",
"600 495 OFFCURVE",
"528 544 OFFCURVE",
"436 544 CURVE SMOOTH",
"387 544 OFFCURVE",
"339 527 OFFCURVE",
"295 494 CURVE",
"325 390 LINE",
"361 411 OFFCURVE",
"391 421 OFFCURVE",
"417 421 CURVE SMOOTH",
"449 421 OFFCURVE",
"464 409 OFFCURVE",
"464 389 CURVE SMOOTH",
"464 359 OFFCURVE",
"433 344 OFFCURVE",
"373 344 CURVE SMOOTH",
"341 344 LINE",
"341 214 LINE",
"390 214 LINE SMOOTH",
"448 214 OFFCURVE",
"478 199 OFFCURVE",
"478 168 CURVE SMOOTH",
"478 137 OFFCURVE",
"446 122 OFFCURVE",
"384 122 CURVE SMOOTH",
"276 122 OFFCURVE",
"215 192 OFFCURVE",
"215 315 CURVE SMOOTH",
"215 449 OFFCURVE",
"267 583 OFFCURVE",
"366 717 CURVE",
"262 774 LINE",
"152 617 OFFCURVE",
"73 464 OFFCURVE",
"73 294 CURVE SMOOTH",
"73 103 OFFCURVE",
"212 0 OFFCURVE",
"394 0 CURVE SMOOTH"
);
},
{
closed = 1;
nodes = (
"1360 294 OFFCURVE",
"1323 317 OFFCURVE",
"1273 317 CURVE SMOOTH",
"1268 317 LINE",
"1268 367 LINE SMOOTH",
"1268 406 OFFCURVE",
"1288 426 OFFCURVE",
"1326 426 CURVE SMOOTH",
"1364 426 OFFCURVE",
"1383 407 OFFCURVE",
"1383 370 CURVE SMOOTH",
"1383 247 LINE"
);
}
);
width = 1563;
}
);
note = akara;
unicode = A984;
category = Letter;
},
{
glyphname = ikawi;
lastChange = "2018-12-13 17:24:08 +0000";
layers = (
{
layerId = "BA48FBA0-A6DA-4EAF-9284-46C574130433";
paths = (
{
closed = 1;
nodes = (
"739 -278 LINE",
"734 -152 OFFCURVE",
"679 -88 OFFCURVE",
"575 -88 CURVE SMOOTH",
"490 -88 LINE",
"521 0 LINE",
"676 0 LINE",
"693 30 LINE",
"563 219 LINE",
"469 219 LINE",
"575 68 LINE",
"455 68 LINE SMOOTH",
"416 68 OFFCURVE",
"396 89 OFFCURVE",
"396 131 CURVE SMOOTH",
"396 393 LINE SMOOTH",
"396 495 OFFCURVE",
"344 546 OFFCURVE",
"238 546 CURVE SMOOTH",
"132 546 OFFCURVE",
"78 493 OFFCURVE",
"78 388 CURVE SMOOTH",
"78 150 LINE SMOOTH",
"78 56 OFFCURVE",
"133 10 OFFCURVE",
"222 0 CURVE",
"240 68 LINE",
"190 76 OFFCURVE",
"165 104 OFFCURVE",
"165 154 CURVE SMOOTH",
"165 391 LINE SMOOTH",
"165 444 OFFCURVE",
"190 470 OFFCURVE",
"238 470 CURVE SMOOTH",
"286 470 OFFCURVE",
"310 445 OFFCURVE",
"310 394 CURVE SMOOTH",
"310 133 LINE SMOOTH",
"310 49 OFFCURVE",
"353 5 OFFCURVE",
"439 0 CURVE",
"393 -129 LINE",
"408 -161 LINE",
"566 -161 LINE SMOOTH",
"629 -161 OFFCURVE",
"660 -200 OFFCURVE",
"661 -278 CURVE"
);
},
{
closed = 1;
nodes = (
"927 0 LINE",
"927 391 LINE SMOOTH",
"927 494 OFFCURVE",
"881 546 OFFCURVE",
"792 546 CURVE SMOOTH",
"739 546 OFFCURVE",
"704 526 OFFCURVE",
"686 485 CURVE",
"663 527 OFFCURVE",
"628 548 OFFCURVE",
"581 548 CURVE SMOOTH",
"501 548 OFFCURVE",
"455 510 OFFCURVE",
"455 435 CURVE SMOOTH",
"455 362 OFFCURVE",
"495 318 OFFCURVE",
"574 301 CURVE",
"603 360 LINE",
"558 373 OFFCURVE",
"535 395 OFFCURVE",
"535 428 CURVE SMOOTH",
"535 458 OFFCURVE",
"552 473 OFFCURVE",
"579 473 CURVE SMOOTH",
"618 473 OFFCURVE",
"641 441 OFFCURVE",
"647 384 CURVE",
"715 384 LINE",
"722 441 OFFCURVE",
"745 470 OFFCURVE",
"783 470 CURVE SMOOTH",
"821 470 OFFCURVE",
"840 445 OFFCURVE",
"840 394 CURVE SMOOTH",
"840 0 LINE"
);
}
);
width = 976;
},
{
layerId = "791C41F8-8E37-43C9-BD6C-904761E149BF";
paths = (
{
closed = 1;
nodes = (
"869 -313 LINE",
"864 -157 OFFCURVE",
"798 -79 OFFCURVE",
"671 -79 CURVE SMOOTH",
"563 -79 LINE",
"597 0 LINE",
"797 0 LINE",
"814 30 LINE",
"694 219 LINE",
"605 219 LINE",
"662 122 LINE",
"553 122 LINE SMOOTH",
"507 122 OFFCURVE",
"484 145 OFFCURVE",
"484 190 CURVE SMOOTH",
"484 349 LINE SMOOTH",
"484 480 OFFCURVE",
"417 546 OFFCURVE",
"282 546 CURVE SMOOTH",
"146 546 OFFCURVE",
"78 479 OFFCURVE",
"78 344 CURVE SMOOTH",
"78 173 LINE SMOOTH",
"78 60 OFFCURVE",
"154 5 OFFCURVE",
"280 0 CURVE",
"299 93 LINE",
"239 101 OFFCURVE",
"209 129 OFFCURVE",
"209 178 CURVE SMOOTH",
"209 347 LINE SMOOTH",
"209 396 OFFCURVE",
"234 421 OFFCURVE",
"282 421 CURVE SMOOTH",
"330 421 OFFCURVE",
"354 397 OFFCURVE",
"354 350 CURVE SMOOTH",
"354 187 LINE SMOOTH",
"354 81 OFFCURVE",
"404 20 OFFCURVE",
"504 4 CURVE",
"425 -165 LINE",
"442 -195 LINE",
"662 -195 LINE SMOOTH",
"724 -195 OFFCURVE",
"756 -234 OFFCURVE",
"756 -313 CURVE"
);
},
{
closed = 1;
nodes = (
"1106 0 LINE",
"1106 362 LINE SMOOTH",
"1106 484 OFFCURVE",
"1048 546 OFFCURVE",
"933 546 CURVE SMOOTH",
"867 546 OFFCURVE",
"825 522 OFFCURVE",
"807 476 CURVE",
"784 524 OFFCURVE",
"736 548 OFFCURVE",
"663 548 CURVE SMOOTH",
"580 548 OFFCURVE",
"518 491 OFFCURVE",
"518 410 CURVE SMOOTH",
"518 322 OFFCURVE",
"570 271 OFFCURVE",
"676 257 CURVE",
"704 326 LINE",
"659 338 OFFCURVE",
"637 357 OFFCURVE",
"637 384 CURVE SMOOTH",
"637 411 OFFCURVE",
"655 424 OFFCURVE",
"685 424 CURVE SMOOTH",
"728 424 OFFCURVE",
"752 393 OFFCURVE",
"759 335 CURVE",
"851 335 LINE",
"858 393 OFFCURVE",
"879 421 OFFCURVE",
"914 421 CURVE SMOOTH",
"955 421 OFFCURVE",
"976 399 OFFCURVE",
"976 355 CURVE SMOOTH",
"976 0 LINE"
);
}
);
width = 1155;
}
);
note = ikawi;
unicode = A985;
category = Letter;
},
{
glyphname = ikara;
lastChange = "2018-12-13 17:24:08 +0000";
layers = (
{
layerId = "BA48FBA0-A6DA-4EAF-9284-46C574130433";
paths = (
{
closed = 1;
nodes = (
"788 -278 LINE",
"783 -152 OFFCURVE",
"729 -88 OFFCURVE",
"625 -88 CURVE SMOOTH",
"539 -88 LINE",
"570 0 LINE",
"676 0 LINE",
"693 30 LINE",
"563 219 LINE",
"469 219 LINE",
"575 68 LINE",
"455 68 LINE SMOOTH",
"416 68 OFFCURVE",
"396 89 OFFCURVE",
"396 131 CURVE SMOOTH",
"396 393 LINE SMOOTH",
"396 495 OFFCURVE",
"344 546 OFFCURVE",
"238 546 CURVE SMOOTH",
"132 546 OFFCURVE",
"78 493 OFFCURVE",
"78 388 CURVE SMOOTH",
"78 149 LINE SMOOTH",
"78 53 OFFCURVE",
"137 9 OFFCURVE",
"222 0 CURVE",
"240 68 LINE",
"190 76 OFFCURVE",
"165 104 OFFCURVE",
"165 154 CURVE SMOOTH",
"165 391 LINE SMOOTH",
"165 444 OFFCURVE",
"190 470 OFFCURVE",
"238 470 CURVE SMOOTH",
"286 470 OFFCURVE",
"310 445 OFFCURVE",
"310 394 CURVE SMOOTH",
"310 133 LINE SMOOTH",
"310 45 OFFCURVE",
"356 0 OFFCURVE",
"450 0 CURVE SMOOTH",
"488 0 LINE",
"442 -129 LINE",
"457 -161 LINE",
"615 -161 LINE SMOOTH",
"678 -161 OFFCURVE",
"709 -200 OFFCURVE",
"710 -278 CURVE"
);
},
{
closed = 1;
nodes = (
"927 0 LINE",
"927 391 LINE SMOOTH",
"927 444 OFFCURVE",
"952 470 OFFCURVE",
"1000 470 CURVE SMOOTH",
"1047 470 OFFCURVE",
"1071 445 OFFCURVE",
"1071 394 CURVE SMOOTH",
"1071 0 LINE",
"1158 0 LINE",
"1158 393 LINE SMOOTH",
"1158 495 OFFCURVE",
"1107 546 OFFCURVE",
"1004 546 CURVE SMOOTH",
"952 546 OFFCURVE",
"912 525 OFFCURVE",
"886 483 CURVE",
"867 525 OFFCURVE",
"832 546 OFFCURVE",
"783 546 CURVE SMOOTH",
"736 546 OFFCURVE",
"704 526 OFFCURVE",
"686 485 CURVE",
"663 528 OFFCURVE",
"626 548 OFFCURVE",
"579 548 CURVE SMOOTH",
"488 548 OFFCURVE",
"455 493 OFFCURVE",
"455 432 CURVE SMOOTH",
"455 363 OFFCURVE",
"495 318 OFFCURVE",
"574 301 CURVE",
"603 360 LINE",
"558 373 OFFCURVE",
"535 395 OFFCURVE",
"535 427 CURVE SMOOTH",
"535 454 OFFCURVE",
"551 473 OFFCURVE",
"578 473 CURVE SMOOTH",
"615 473 OFFCURVE",
"642 441 OFFCURVE",
"647 384 CURVE",
"715 384 LINE",
"722 441 OFFCURVE",
"745 470 OFFCURVE",
"783 470 CURVE SMOOTH",
"821 470 OFFCURVE",
"840 445 OFFCURVE",
"840 394 CURVE SMOOTH",
"840 0 LINE"
);
}
);
width = 1207;
},
{
layerId = "791C41F8-8E37-43C9-BD6C-904761E149BF";
paths = (
{
closed = 1;
nodes = (
"984 -313 LINE",
"979 -157 OFFCURVE",
"913 -79 OFFCURVE",
"786 -79 CURVE SMOOTH",
"678 -79 LINE",
"712 0 LINE",
"802 0 LINE",
"819 30 LINE",
"699 219 LINE",
"610 219 LINE",
"667 122 LINE",
"553 122 LINE SMOOTH",
"507 122 OFFCURVE",
"484 145 OFFCURVE",
"484 190 CURVE SMOOTH",
"484 349 LINE SMOOTH",
"484 480 OFFCURVE",
"417 546 OFFCURVE",
"282 546 CURVE SMOOTH",
"146 546 OFFCURVE",
"78 479 OFFCURVE",
"78 344 CURVE SMOOTH",
"78 173 LINE SMOOTH",
"78 60 OFFCURVE",
"154 5 OFFCURVE",
"280 0 CURVE",
"299 93 LINE",
"239 101 OFFCURVE",
"209 129 OFFCURVE",
"209 178 CURVE SMOOTH",
"209 347 LINE SMOOTH",
"209 396 OFFCURVE",
"234 421 OFFCURVE",
"282 421 CURVE SMOOTH",
"330 421 OFFCURVE",
"354 397 OFFCURVE",
"354 350 CURVE SMOOTH",
"354 186 LINE SMOOTH",
"354 67 OFFCURVE",
"423 0 OFFCURVE",
"549 0 CURVE SMOOTH",
"618 0 LINE",
"541 -165 LINE",
"558 -195 LINE",
"777 -195 LINE SMOOTH",
"839 -195 OFFCURVE",
"871 -234 OFFCURVE",
"872 -313 CURVE"
);
},
{
closed = 1;
nodes = (
"1111 0 LINE",
"1111 352 LINE SMOOTH",
"1111 398 OFFCURVE",
"1135 421 OFFCURVE",
"1182 421 CURVE SMOOTH",
"1228 421 OFFCURVE",
"1251 397 OFFCURVE",
"1251 350 CURVE SMOOTH",
"1251 0 LINE",
"1382 0 LINE",
"1382 349 LINE SMOOTH",
"1382 480 OFFCURVE",
"1324 546 OFFCURVE",
"1208 546 CURVE SMOOTH",
"1154 546 OFFCURVE",
"1109 523 OFFCURVE",
"1073 479 CURVE",
"1044 523 OFFCURVE",
"999 546 OFFCURVE",
"938 546 CURVE SMOOTH",
"872 546 OFFCURVE",
"830 522 OFFCURVE",
"812 476 CURVE",
"789 524 OFFCURVE",
"741 548 OFFCURVE",
"668 548 CURVE SMOOTH",
"581 548 OFFCURVE",
"522 488 OFFCURVE",
"522 408 CURVE SMOOTH",
"522 320 OFFCURVE",
"575 271 OFFCURVE",
"681 257 CURVE",
"709 326 LINE",
"664 338 OFFCURVE",
"642 357 OFFCURVE",
"642 384 CURVE SMOOTH",
"642 409 OFFCURVE",
"660 424 OFFCURVE",
"690 424 CURVE SMOOTH",
"730 424 OFFCURVE",
"757 393 OFFCURVE",
"764 335 CURVE",
"856 335 LINE",
"863 393 OFFCURVE",
"884 421 OFFCURVE",
"918 421 CURVE SMOOTH",
"960 421 OFFCURVE",
"980 399 OFFCURVE",
"980 355 CURVE SMOOTH",
"980 0 LINE"
);
}
);
width = 1431;
}
);
note = ikara;
unicode = A986;
category = Letter;
},
{
glyphname = iikara;
lastChange = "2018-12-13 17:24:08 +0000";
layers = (
{
layerId = "BA48FBA0-A6DA-4EAF-9284-46C574130433";
paths = (
{
closed = 1;
nodes = (
"927 0 LINE",
"927 391 LINE SMOOTH",
"927 444 OFFCURVE",
"952 470 OFFCURVE",
"1000 470 CURVE SMOOTH",
"1047 470 OFFCURVE",
"1071 445 OFFCURVE",
"1071 394 CURVE SMOOTH",
"1071 0 LINE",
"1158 0 LINE",
"1158 393 LINE SMOOTH",
"1158 495 OFFCURVE",
"1107 546 OFFCURVE",
"1004 546 CURVE SMOOTH",
"952 546 OFFCURVE",
"912 525 OFFCURVE",
"886 483 CURVE",
"867 525 OFFCURVE",
"832 546 OFFCURVE",
"783 546 CURVE SMOOTH",
"736 546 OFFCURVE",
"704 526 OFFCURVE",
"686 485 CURVE",
"663 528 OFFCURVE",
"626 548 OFFCURVE",
"579 548 CURVE SMOOTH",
"488 548 OFFCURVE",
"455 493 OFFCURVE",
"455 432 CURVE SMOOTH",
"455 363 OFFCURVE",
"495 318 OFFCURVE",
"574 301 CURVE",
"603 360 LINE",
"558 373 OFFCURVE",
"535 395 OFFCURVE",
"535 427 CURVE SMOOTH",
"535 454 OFFCURVE",
"551 473 OFFCURVE",
"578 473 CURVE SMOOTH",
"615 473 OFFCURVE",
"642 441 OFFCURVE",
"647 384 CURVE",
"715 384 LINE",
"722 441 OFFCURVE",
"745 470 OFFCURVE",
"783 470 CURVE SMOOTH",
"821 470 OFFCURVE",
"840 445 OFFCURVE",
"840 394 CURVE SMOOTH",
"840 0 LINE"
);
},
{
closed = 1;
nodes = (
"646 -405 OFFCURVE",
"704 -362 OFFCURVE",
"704 -304 CURVE SMOOTH",
"704 -266 OFFCURVE",
"681 -241 OFFCURVE",
"639 -222 CURVE SMOOTH",
"594 -201 LINE SMOOTH",
"571 -190 OFFCURVE",
"560 -178 OFFCURVE",
"560 -161 CURVE SMOOTH",
"560 -142 OFFCURVE",
"580 -132 OFFCURVE",
"614 -132 CURVE SMOOTH",
"625 -132 OFFCURVE",
"641 -133 OFFCURVE",
"660 -136 CURVE",
"660 -78 LINE",
"643 -74 OFFCURVE",
"626 -71 OFFCURVE",
"609 -71 CURVE SMOOTH",
"543 -71 OFFCURVE",
"484 -102 OFFCURVE",
"484 -169 CURVE SMOOTH",
"484 -191 OFFCURVE",
"491 -210 OFFCURVE",
"506 -226 CURVE SMOOTH",
"521 -241 OFFCURVE",
"543 -257 OFFCURVE",
"576 -270 CURVE SMOOTH",
"613 -285 OFFCURVE",
"628 -290 OFFCURVE",
"628 -313 CURVE SMOOTH",
"628 -338 OFFCURVE",
"591 -366 OFFCURVE",
"541 -404 CURVE",
"577 -446 LINE"
);
},
{
closed = 1;
nodes = (
"240 68 LINE",
"190 76 OFFCURVE",
"165 104 OFFCURVE",
"165 154 CURVE SMOOTH",
"165 391 LINE SMOOTH",
"165 444 OFFCURVE",
"190 470 OFFCURVE",
"238 470 CURVE SMOOTH",
"286 470 OFFCURVE",
"310 445 OFFCURVE",
"310 394 CURVE SMOOTH",
"310 133 LINE SMOOTH",
"310 45 OFFCURVE",
"357 0 OFFCURVE",
"450 0 CURVE SMOOTH",
"676 0 LINE",
"693 30 LINE",
"563 219 LINE",
"469 219 LINE",
"575 68 LINE",
"455 68 LINE SMOOTH",
"416 68 OFFCURVE",
"396 89 OFFCURVE",
"396 131 CURVE SMOOTH",
"396 393 LINE SMOOTH",
"396 495 OFFCURVE",
"344 546 OFFCURVE",
"238 546 CURVE SMOOTH",
"132 546 OFFCURVE",
"78 493 OFFCURVE",
"78 388 CURVE SMOOTH",
"78 149 LINE SMOOTH",
"78 53 OFFCURVE",
"137 9 OFFCURVE",
"222 0 CURVE"
);
}
);
width = 1207;
},
{
layerId = "791C41F8-8E37-43C9-BD6C-904761E149BF";
paths = (
{
closed = 1;
nodes = (
"1111 0 LINE",
"1111 352 LINE SMOOTH",
"1111 398 OFFCURVE",
"1135 421 OFFCURVE",
"1182 421 CURVE SMOOTH",
"1228 421 OFFCURVE",
"1251 397 OFFCURVE",
"1251 350 CURVE SMOOTH",
"1251 0 LINE",
"1382 0 LINE",
"1382 349 LINE SMOOTH",
"1382 480 OFFCURVE",
"1324 546 OFFCURVE",
"1208 546 CURVE SMOOTH",
"1154 546 OFFCURVE",
"1109 523 OFFCURVE",
"1073 479 CURVE",
"1044 523 OFFCURVE",
"999 546 OFFCURVE",
"938 546 CURVE SMOOTH",
"872 546 OFFCURVE",
"830 522 OFFCURVE",
"812 476 CURVE",
"789 524 OFFCURVE",
"741 548 OFFCURVE",
"668 548 CURVE SMOOTH",
"581 548 OFFCURVE",
"522 488 OFFCURVE",
"522 408 CURVE SMOOTH",
"522 320 OFFCURVE",
"575 271 OFFCURVE",
"681 257 CURVE",
"709 326 LINE",
"664 338 OFFCURVE",
"642 357 OFFCURVE",
"642 384 CURVE SMOOTH",
"642 409 OFFCURVE",
"660 424 OFFCURVE",
"690 424 CURVE SMOOTH",
"730 424 OFFCURVE",
"757 393 OFFCURVE",
"764 335 CURVE",
"856 335 LINE",
"863 393 OFFCURVE",
"884 421 OFFCURVE",
"918 421 CURVE SMOOTH",
"960 421 OFFCURVE",
"980 399 OFFCURVE",
"980 355 CURVE SMOOTH",
"980 0 LINE"
);
},
{
closed = 1;
nodes = (
"771 -401 OFFCURVE",
"813 -355 OFFCURVE",
"813 -307 CURVE SMOOTH",
"813 -279 OFFCURVE",
"803 -250 OFFCURVE",
"766 -218 CURVE SMOOTH",
"740 -195 LINE SMOOTH",
"723 -180 OFFCURVE",
"715 -171 OFFCURVE",
"715 -157 CURVE SMOOTH",
"715 -141 OFFCURVE",
"726 -132 OFFCURVE",
"747 -132 CURVE SMOOTH",
"758 -132 OFFCURVE",
"771 -134 OFFCURVE",
"789 -138 CURVE",
"789 -66 LINE",
"757 -55 OFFCURVE",
"730 -50 OFFCURVE",
"700 -50 CURVE SMOOTH",
"632 -50 OFFCURVE",
"574 -82 OFFCURVE",
"574 -148 CURVE SMOOTH",
"574 -170 OFFCURVE",
"585 -190 OFFCURVE",
"604 -209 CURVE SMOOTH",
"626 -230 OFFCURVE",
"649 -250 OFFCURVE",
"671 -270 CURVE SMOOTH",
"686 -284 OFFCURVE",
"694 -296 OFFCURVE",
"694 -312 CURVE SMOOTH",
"694 -332 OFFCURVE",
"676 -358 OFFCURVE",
"640 -391 CURVE",
"688 -446 LINE"
);
},
{
closed = 1;
nodes = (
"299 93 LINE",
"239 101 OFFCURVE",
"209 129 OFFCURVE",
"209 178 CURVE SMOOTH",
"209 347 LINE SMOOTH",
"209 396 OFFCURVE",
"234 421 OFFCURVE",
"282 421 CURVE SMOOTH",
"330 421 OFFCURVE",
"354 397 OFFCURVE",
"354 350 CURVE SMOOTH",
"354 186 LINE SMOOTH",
"354 67 OFFCURVE",
"423 0 OFFCURVE",
"549 0 CURVE SMOOTH",
"802 0 LINE",
"819 30 LINE",
"699 219 LINE",
"610 219 LINE",
"667 122 LINE",
"553 122 LINE SMOOTH",
"507 122 OFFCURVE",
"484 145 OFFCURVE",
"484 190 CURVE SMOOTH",
"484 349 LINE SMOOTH",
"484 480 OFFCURVE",
"417 546 OFFCURVE",
"282 546 CURVE SMOOTH",
"146 546 OFFCURVE",
"78 479 OFFCURVE",
"78 344 CURVE SMOOTH",
"78 173 LINE SMOOTH",
"78 60 OFFCURVE",
"154 5 OFFCURVE",
"280 0 CURVE"
);
}
);
width = 1431;
}
);
note = iikara;
unicode = A987;
category = Letter;
},
{
glyphname = ukara;
lastChange = "2018-12-13 17:24:08 +0000";
layers = (
{
layerId = "BA48FBA0-A6DA-4EAF-9284-46C574130433";
paths = (
{
closed = 1;
nodes = (
"324 -825 OFFCURVE",
"383 -787 OFFCURVE",
"440 -715 CURVE SMOOTH",
"585 -533 LINE SMOOTH",
"628 -479 OFFCURVE",
"675 -448 OFFCURVE",
"726 -448 CURVE SMOOTH",
"768 -448 OFFCURVE",
"798 -464 OFFCURVE",
"824 -502 CURVE SMOOTH",
"849 -539 OFFCURVE",
"889 -643 OFFCURVE",
"946 -816 CURVE",
"1013 -791 LINE",
"969 -621 OFFCURVE",
"927 -503 OFFCURVE",
"887 -440 CURVE SMOOTH",
"846 -375 OFFCURVE",
"801 -353 OFFCURVE",
"720 -353 CURVE SMOOTH",
"647 -353 OFFCURVE",
"572 -402 OFFCURVE",
"506 -484 CURVE SMOOTH",
"329 -703 LINE SMOOTH",
"309 -728 OFFCURVE",
"285 -739 OFFCURVE",
"265 -739 CURVE SMOOTH",
"237 -739 OFFCURVE",
"222 -716 OFFCURVE",
"222 -676 CURVE SMOOTH",
"222 -611 OFFCURVE",
"255 -527 OFFCURVE",
"317 -443 CURVE SMOOTH",
"378 -360 OFFCURVE",
"492 -275 OFFCURVE",
"664 -189 CURVE SMOOTH",
"834 -104 OFFCURVE",
"927 -9 OFFCURVE",
"927 87 CURVE SMOOTH",
"927 391 LINE SMOOTH",
"927 494 OFFCURVE",
"881 546 OFFCURVE",
"792 546 CURVE SMOOTH",
"739 546 OFFCURVE",
"704 526 OFFCURVE",
"686 485 CURVE",
"663 527 OFFCURVE",
"626 548 OFFCURVE",
"579 548 CURVE SMOOTH",
"494 548 OFFCURVE",
"455 498 OFFCURVE",
"455 433 CURVE SMOOTH",
"455 361 OFFCURVE",
"495 318 OFFCURVE",
"574 301 CURVE",
"603 360 LINE",
"558 373 OFFCURVE",
"535 395 OFFCURVE",
"535 428 CURVE SMOOTH",
"535 455 OFFCURVE",
"552 473 OFFCURVE",
"579 473 CURVE SMOOTH",
"618 473 OFFCURVE",
"641 441 OFFCURVE",
"647 384 CURVE",
"715 384 LINE",
"722 441 OFFCURVE",
"745 470 OFFCURVE",
"783 470 CURVE SMOOTH",
"821 470 OFFCURVE",
"840 445 OFFCURVE",
"840 394 CURVE SMOOTH",
"840 100 LINE SMOOTH",
"840 24 OFFCURVE",
"763 -51 OFFCURVE",
"608 -128 CURVE SMOOTH",
"454 -204 OFFCURVE",
"336 -290 OFFCURVE",
"256 -385 CURVE SMOOTH",
"176 -479 OFFCURVE",
"136 -581 OFFCURVE",
"136 -690 CURVE SMOOTH",
"136 -770 OFFCURVE",
"181 -825 OFFCURVE",
"257 -825 CURVE SMOOTH"
);
},
{
closed = 1;
nodes = (
"676 0 LINE",
"693 30 LINE",
"563 219 LINE",
"469 219 LINE",
"575 68 LINE",
"455 68 LINE SMOOTH",
"416 68 OFFCURVE",
"396 89 OFFCURVE",
"396 131 CURVE SMOOTH",
"396 393 LINE SMOOTH",
"396 495 OFFCURVE",
"344 546 OFFCURVE",
"238 546 CURVE SMOOTH",
"132 546 OFFCURVE",
"78 493 OFFCURVE",
"78 388 CURVE SMOOTH",
"78 149 LINE SMOOTH",
"78 53 OFFCURVE",
"137 9 OFFCURVE",
"222 0 CURVE",
"240 68 LINE",
"190 76 OFFCURVE",
"165 104 OFFCURVE",
"165 154 CURVE SMOOTH",
"165 391 LINE SMOOTH",
"165 444 OFFCURVE",
"190 470 OFFCURVE",
"238 470 CURVE SMOOTH",
"286 470 OFFCURVE",
"310 445 OFFCURVE",
"310 394 CURVE SMOOTH",
"310 133 LINE SMOOTH",
"310 45 OFFCURVE",
"357 0 OFFCURVE",
"450 0 CURVE SMOOTH"
);
}
);
width = 976;
},
{
layerId = "791C41F8-8E37-43C9-BD6C-904761E149BF";
paths = (
{
closed = 1;
nodes = (
"495 -825 OFFCURVE",
"566 -788 OFFCURVE",
"625 -715 CURVE SMOOTH",
"765 -542 LINE SMOOTH",
"808 -489 OFFCURVE",
"849 -458 OFFCURVE",
"891 -458 CURVE SMOOTH",
"936 -458 OFFCURVE",
"968 -479 OFFCURVE",
"994 -524 CURVE SMOOTH",
"1019 -568 OFFCURVE",
"1059 -666 OFFCURVE",
"1116 -816 CURVE",
"1192 -791 LINE",
"1148 -587 OFFCURVE",
"1106 -454 OFFCURVE",
"1066 -392 CURVE SMOOTH",
"1024 -327 OFFCURVE",
"979 -304 OFFCURVE",
"899 -304 CURVE SMOOTH",
"825 -304 OFFCURVE",
"754 -355 OFFCURVE",
"686 -436 CURVE SMOOTH",
"528 -625 LINE SMOOTH",
"501 -657 OFFCURVE",
"474 -676 OFFCURVE",
"445 -676 CURVE SMOOTH",
"416 -676 OFFCURVE",
"402 -656 OFFCURVE",
"402 -622 CURVE SMOOTH",
"402 -569 OFFCURVE",
"426 -524 OFFCURVE",
"487 -458 CURVE SMOOTH",
"541 -400 OFFCURVE",
"657 -323 OFFCURVE",
"834 -222 CURVE SMOOTH",
"1011 -121 OFFCURVE",
"1106 -19 OFFCURVE",
"1106 78 CURVE SMOOTH",
"1106 362 LINE SMOOTH",
"1106 484 OFFCURVE",
"1048 546 OFFCURVE",
"933 546 CURVE SMOOTH",
"867 546 OFFCURVE",
"825 522 OFFCURVE",
"807 476 CURVE",
"784 524 OFFCURVE",
"736 548 OFFCURVE",
"663 548 CURVE SMOOTH",
"577 548 OFFCURVE",
"518 490 OFFCURVE",
"518 410 CURVE SMOOTH",
"518 322 OFFCURVE",
"570 271 OFFCURVE",
"676 257 CURVE",
"704 326 LINE",
"659 338 OFFCURVE",
"637 357 OFFCURVE",
"637 384 CURVE SMOOTH",
"637 411 OFFCURVE",
"657 424 OFFCURVE",
"685 424 CURVE SMOOTH",
"727 424 OFFCURVE",
"752 393 OFFCURVE",
"759 335 CURVE",
"851 335 LINE",
"858 393 OFFCURVE",
"879 421 OFFCURVE",
"914 421 CURVE SMOOTH",
"955 421 OFFCURVE",
"976 399 OFFCURVE",
"976 355 CURVE SMOOTH",
"976 100 LINE SMOOTH",
"976 24 OFFCURVE",
"892 -56 OFFCURVE",
"724 -141 CURVE SMOOTH",
"557 -226 OFFCURVE",
"435 -308 OFFCURVE",
"362 -390 CURVE SMOOTH",
"289 -472 OFFCURVE",
"252 -559 OFFCURVE",
"252 -651 CURVE SMOOTH",
"252 -755 OFFCURVE",
"315 -825 OFFCURVE",
"413 -825 CURVE SMOOTH"
);
},
{
closed = 1;
nodes = (
"797 0 LINE",
"814 30 LINE",
"694 219 LINE",
"605 219 LINE",
"662 122 LINE",
"553 122 LINE SMOOTH",
"507 122 OFFCURVE",
"484 145 OFFCURVE",
"484 190 CURVE SMOOTH",
"484 349 LINE SMOOTH",
"484 480 OFFCURVE",
"417 546 OFFCURVE",
"282 546 CURVE SMOOTH",
"146 546 OFFCURVE",
"78 479 OFFCURVE",
"78 344 CURVE SMOOTH",
"78 173 LINE SMOOTH",
"78 60 OFFCURVE",
"154 5 OFFCURVE",
"280 0 CURVE",
"299 93 LINE",
"239 101 OFFCURVE",
"209 129 OFFCURVE",
"209 178 CURVE SMOOTH",
"209 347 LINE SMOOTH",
"209 396 OFFCURVE",
"234 421 OFFCURVE",
"282 421 CURVE SMOOTH",
"330 421 OFFCURVE",
"354 397 OFFCURVE",
"354 350 CURVE SMOOTH",
"354 187 LINE SMOOTH",
"354 63 OFFCURVE",
"421 0 OFFCURVE",
"558 0 CURVE SMOOTH"
);
}
);
width = 1155;
}
);
note = ukara;
unicode = A988;
category = Letter;
},
{
glyphname = pacerek;
lastChange = "2018-12-13 17:24:08 +0000";
layers = (
{
layerId = "BA48FBA0-A6DA-4EAF-9284-46C574130433";
paths = (
{
closed = 1;
nodes = (
"744 -278 LINE",
"739 -152 OFFCURVE",
"685 -88 OFFCURVE",
"581 -88 CURVE SMOOTH",
"495 -88 LINE",
"538 34 LINE",
"490 0 LINE",
"542 0 LINE SMOOTH",
"636 0 OFFCURVE",
"683 45 OFFCURVE",
"683 133 CURVE SMOOTH",
"683 391 LINE SMOOTH",
"683 444 OFFCURVE",
"708 470 OFFCURVE",
"755 470 CURVE SMOOTH",
"803 470 OFFCURVE",
"827 445 OFFCURVE",
"827 394 CURVE SMOOTH",
"827 0 LINE",
"914 0 LINE",
"914 393 LINE SMOOTH",
"914 495 OFFCURVE",
"861 546 OFFCURVE",
"755 546 CURVE SMOOTH",
"649 546 OFFCURVE",
"596 493 OFFCURVE",
"596 388 CURVE SMOOTH",
"596 131 LINE SMOOTH",
"596 89 OFFCURVE",
"576 68 OFFCURVE",
"537 68 CURVE SMOOTH",
"455 68 LINE SMOOTH",
"416 68 OFFCURVE",
"396 89 OFFCURVE",
"396 131 CURVE SMOOTH",
"396 393 LINE SMOOTH",
"396 495 OFFCURVE",
"344 546 OFFCURVE",
"238 546 CURVE SMOOTH",
"132 546 OFFCURVE",
"78 493 OFFCURVE",
"78 388 CURVE SMOOTH",
"78 151 LINE SMOOTH",
"78 58 OFFCURVE",
"131 9 OFFCURVE",
"222 0 CURVE",
"240 68 LINE",
"190 76 OFFCURVE",
"165 104 OFFCURVE",
"165 154 CURVE SMOOTH",
"165 391 LINE SMOOTH",
"165 444 OFFCURVE",
"190 470 OFFCURVE",
"238 470 CURVE SMOOTH",
"286 470 OFFCURVE",
"310 445 OFFCURVE",
"310 394 CURVE SMOOTH",
"310 133 LINE SMOOTH",
"310 47 OFFCURVE",
"354 3 OFFCURVE",
"444 0 CURVE",
"398 -129 LINE",
"413 -161 LINE",
"571 -161 LINE SMOOTH",
"634 -161 OFFCURVE",
"666 -200 OFFCURVE",
"666 -278 CURVE"
);
}
);
width = 963;
},
{
layerId = "791C41F8-8E37-43C9-BD6C-904761E149BF";
paths = (
{
closed = 1;
nodes = (
"880 -313 LINE",
"875 -157 OFFCURVE",
"810 -79 OFFCURVE",
"683 -79 CURVE SMOOTH",
"575 -79 LINE",
"618 20 LINE",
"581 0 LINE",
"589 0 LINE",
"728 0 OFFCURVE",
"795 63 OFFCURVE",
"795 187 CURVE SMOOTH",
"795 347 LINE SMOOTH",
"795 396 OFFCURVE",
"820 421 OFFCURVE",
"868 421 CURVE SMOOTH",
"916 421 OFFCURVE",
"939 397 OFFCURVE",
"939 350 CURVE SMOOTH",
"939 0 LINE",
"1070 0 LINE",
"1070 349 LINE SMOOTH",
"1070 480 OFFCURVE",
"1003 546 OFFCURVE",
"868 546 CURVE SMOOTH",
"732 546 OFFCURVE",
"664 479 OFFCURVE",
"664 344 CURVE SMOOTH",
"664 190 LINE SMOOTH",
"664 145 OFFCURVE",
"641 122 OFFCURVE",
"596 122 CURVE SMOOTH",
"553 122 LINE SMOOTH",
"507 122 OFFCURVE",
"484 145 OFFCURVE",
"484 190 CURVE SMOOTH",
"484 349 LINE SMOOTH",
"484 480 OFFCURVE",
"417 546 OFFCURVE",
"282 546 CURVE SMOOTH",
"146 546 OFFCURVE",
"78 479 OFFCURVE",
"78 344 CURVE SMOOTH",
"78 173 LINE SMOOTH",
"78 60 OFFCURVE",
"154 5 OFFCURVE",
"280 0 CURVE",
"299 93 LINE",
"239 101 OFFCURVE",
"209 129 OFFCURVE",
"209 178 CURVE SMOOTH",
"209 347 LINE SMOOTH",
"209 396 OFFCURVE",
"234 421 OFFCURVE",
"282 421 CURVE SMOOTH",
"330 421 OFFCURVE",
"354 397 OFFCURVE",
"354 350 CURVE SMOOTH",
"354 187 LINE SMOOTH",
"354 77 OFFCURVE",
"407 16 OFFCURVE",
"515 2 CURVE",
"437 -165 LINE",
"454 -195 LINE",
"673 -195 LINE SMOOTH",
"736 -195 OFFCURVE",
"768 -234 OFFCURVE",
"768 -313 CURVE"
);
}
);
width = 1119;
}
);
note = pacerek;
unicode = A989;
category = Letter;
},
{
glyphname = ngalelet;
lastChange = "2018-12-13 17:24:08 +0000";
layers = (
{
layerId = "BA48FBA0-A6DA-4EAF-9284-46C574130433";
paths = (
{
closed = 1;
nodes = (
"816 -830 OFFCURVE",
"927 -730 OFFCURVE",
"927 -534 CURVE SMOOTH",
"927 -177 LINE",
"1086 -177 LINE",
"1086 -98 LINE",
"927 -98 LINE",
"927 391 LINE SMOOTH",
"927 494 OFFCURVE",
"881 546 OFFCURVE",
"792 546 CURVE SMOOTH",
"739 546 OFFCURVE",
"704 526 OFFCURVE",
"686 485 CURVE",
"663 527 OFFCURVE",
"625 548 OFFCURVE",
"578 548 CURVE SMOOTH",
"498 548 OFFCURVE",
"455 503 OFFCURVE",
"455 432 CURVE SMOOTH",
"455 363 OFFCURVE",
"495 318 OFFCURVE",
"574 301 CURVE",
"603 360 LINE",
"558 373 OFFCURVE",
"535 395 OFFCURVE",
"535 428 CURVE SMOOTH",
"535 456 OFFCURVE",
"552 473 OFFCURVE",
"579 473 CURVE SMOOTH",
"616 473 OFFCURVE",
"641 441 OFFCURVE",
"647 384 CURVE",
"715 384 LINE",
"722 441 OFFCURVE",
"745 470 OFFCURVE",
"783 470 CURVE SMOOTH",
"821 470 OFFCURVE",
"840 445 OFFCURVE",
"840 394 CURVE SMOOTH",
"840 -97 LINE",
"655 -97 OFFCURVE",
"514 -137 OFFCURVE",
"417 -216 CURVE SMOOTH",
"319 -296 OFFCURVE",
"271 -401 OFFCURVE",
"271 -534 CURVE SMOOTH",
"271 -625 OFFCURVE",
"300 -697 OFFCURVE",
"360 -750 CURVE SMOOTH",
"420 -803 OFFCURVE",
"499 -830 OFFCURVE",
"596 -830 CURVE SMOOTH"
);
},
{
closed = 1;
nodes = (
"511 -740 OFFCURVE",
"448 -714 OFFCURVE",
"408 -662 CURVE SMOOTH",
"379 -624 OFFCURVE",
"365 -579 OFFCURVE",
"365 -525 CURVE SMOOTH",
"365 -423 OFFCURVE",
"405 -340 OFFCURVE",
"483 -275 CURVE SMOOTH",
"562 -210 OFFCURVE",
"681 -178 OFFCURVE",
"839 -177 CURVE",
"839 -523 LINE SMOOTH",
"839 -664 OFFCURVE",
"756 -740 OFFCURVE",
"608 -740 CURVE SMOOTH"
);
},
{
closed = 1;
nodes = (
"676 0 LINE",
"693 30 LINE",
"563 219 LINE",
"469 219 LINE",
"575 68 LINE",
"455 68 LINE SMOOTH",
"416 68 OFFCURVE",
"396 89 OFFCURVE",
"396 131 CURVE SMOOTH",
"396 393 LINE SMOOTH",
"396 495 OFFCURVE",
"344 546 OFFCURVE",
"238 546 CURVE SMOOTH",
"132 546 OFFCURVE",
"78 493 OFFCURVE",
"78 388 CURVE SMOOTH",
"78 149 LINE SMOOTH",
"78 53 OFFCURVE",
"137 9 OFFCURVE",
"222 0 CURVE",
"240 68 LINE",
"190 76 OFFCURVE",
"165 104 OFFCURVE",
"165 154 CURVE SMOOTH",
"165 391 LINE SMOOTH",
"165 444 OFFCURVE",
"190 470 OFFCURVE",
"238 470 CURVE SMOOTH",
"286 470 OFFCURVE",
"310 445 OFFCURVE",
"310 394 CURVE SMOOTH",
"310 133 LINE SMOOTH",
"310 45 OFFCURVE",
"357 0 OFFCURVE",
"450 0 CURVE SMOOTH"
);
}
);
width = 977;
},
{
layerId = "791C41F8-8E37-43C9-BD6C-904761E149BF";
paths = (
{
closed = 1;
nodes = (
"995 -830 OFFCURVE",
"1106 -716 OFFCURVE",
"1106 -490 CURVE SMOOTH",
"1106 -221 LINE",
"1266 -221 LINE",
"1266 -98 LINE",
"1106 -98 LINE",
"1106 361 LINE SMOOTH",
"1106 483 OFFCURVE",
"1048 546 OFFCURVE",
"933 546 CURVE SMOOTH",
"867 546 OFFCURVE",
"825 522 OFFCURVE",
"807 476 CURVE",
"784 524 OFFCURVE",
"736 548 OFFCURVE",
"663 548 CURVE SMOOTH",
"577 548 OFFCURVE",
"518 489 OFFCURVE",
"518 410 CURVE SMOOTH",
"518 322 OFFCURVE",
"570 271 OFFCURVE",
"676 257 CURVE",
"704 326 LINE",
"659 338 OFFCURVE",
"637 357 OFFCURVE",
"637 384 CURVE SMOOTH",
"637 409 OFFCURVE",
"655 424 OFFCURVE",
"685 424 CURVE SMOOTH",
"726 424 OFFCURVE",
"752 393 OFFCURVE",
"759 335 CURVE",
"851 335 LINE",
"858 393 OFFCURVE",
"879 421 OFFCURVE",
"914 421 CURVE SMOOTH",
"955 421 OFFCURVE",
"976 399 OFFCURVE",
"976 355 CURVE SMOOTH",
"976 -97 LINE",
"788 -97 OFFCURVE",
"649 -136 OFFCURVE",
"560 -214 CURVE SMOOTH",
"471 -292 OFFCURVE",
"426 -387 OFFCURVE",
"426 -500 CURVE SMOOTH",
"426 -604 OFFCURVE",
"460 -685 OFFCURVE",
"528 -743 CURVE SMOOTH",
"596 -801 OFFCURVE",
"678 -830 OFFCURVE",
"775 -830 CURVE SMOOTH"
);
},
{
closed = 1;
nodes = (
"709 -696 OFFCURVE",
"662 -679 OFFCURVE",
"626 -644 CURVE SMOOTH",
"591 -609 OFFCURVE",
"573 -564 OFFCURVE",
"573 -509 CURVE SMOOTH",
"573 -424 OFFCURVE",
"603 -354 OFFCURVE",
"662 -301 CURVE SMOOTH",
"720 -248 OFFCURVE",
"825 -222 OFFCURVE",
"975 -221 CURVE",
"975 -479 LINE SMOOTH",
"975 -621 OFFCURVE",
"901 -696 OFFCURVE",
"769 -696 CURVE SMOOTH"
);
},
{
closed = 1;
nodes = (
"797 0 LINE",
"814 30 LINE",
"694 219 LINE",
"605 219 LINE",
"662 122 LINE",
"553 122 LINE SMOOTH",
"507 122 OFFCURVE",
"484 145 OFFCURVE",
"484 190 CURVE SMOOTH",
"484 349 LINE SMOOTH",
"484 480 OFFCURVE",
"417 546 OFFCURVE",
"282 546 CURVE SMOOTH",
"146 546 OFFCURVE",
"78 479 OFFCURVE",
"78 344 CURVE SMOOTH",
"78 173 LINE SMOOTH",
"78 60 OFFCURVE",
"154 5 OFFCURVE",
"280 0 CURVE",
"299 93 LINE",
"239 101 OFFCURVE",
"209 129 OFFCURVE",
"209 178 CURVE SMOOTH",
"209 347 LINE SMOOTH",
"209 396 OFFCURVE",
"234 421 OFFCURVE",
"282 421 CURVE SMOOTH",
"330 421 OFFCURVE",
"354 397 OFFCURVE",
"354 350 CURVE SMOOTH",
"354 187 LINE SMOOTH",
"354 63 OFFCURVE",
"421 0 OFFCURVE",
"558 0 CURVE SMOOTH"
);
}
);
width = 1155;
}
);
note = ngalelet;
unicode = A98A;
category = Letter;
},
{
glyphname = ngaleletras;
lastChange = "2018-12-13 17:24:08 +0000";
layers = (
{
layerId = "BA48FBA0-A6DA-4EAF-9284-46C574130433";
paths = (
{
closed = 1;
nodes = (
"816 -830 OFFCURVE",
"927 -730 OFFCURVE",
"927 -534 CURVE SMOOTH",
"927 -177 LINE",
"1049 -177 LINE SMOOTH",
"1100 -177 OFFCURVE",
"1125 -196 OFFCURVE",
"1125 -234 CURVE SMOOTH",
"1125 -272 OFFCURVE",
"1097 -295 OFFCURVE",
"1040 -302 CURVE",
"1040 -370 LINE",
"1097 -376 OFFCURVE",
"1128 -401 OFFCURVE",
"1128 -438 CURVE SMOOTH",
"1128 -464 OFFCURVE",
"1111 -482 OFFCURVE",
"1083 -482 CURVE SMOOTH",
"1050 -482 OFFCURVE",
"1028 -459 OFFCURVE",
"1016 -415 CURVE",
"956 -443 LINE",
"973 -522 OFFCURVE",
"1018 -562 OFFCURVE",
"1090 -562 CURVE",
"1169 -558 OFFCURVE",
"1208 -516 OFFCURVE",
"1208 -436 CURVE SMOOTH",
"1208 -389 OFFCURVE",
"1186 -354 OFFCURVE",
"1141 -332 CURVE",
"1184 -313 OFFCURVE",
"1206 -278 OFFCURVE",
"1206 -225 CURVE SMOOTH",
"1206 -141 OFFCURVE",
"1153 -98 OFFCURVE",
"1046 -98 CURVE SMOOTH",
"927 -98 LINE",
"927 391 LINE SMOOTH",
"927 494 OFFCURVE",
"881 546 OFFCURVE",
"792 546 CURVE SMOOTH",
"739 546 OFFCURVE",
"704 526 OFFCURVE",
"686 485 CURVE",
"663 527 OFFCURVE",
"628 548 OFFCURVE",
"581 548 CURVE SMOOTH",
"501 548 OFFCURVE",
"455 505 OFFCURVE",
"455 433 CURVE SMOOTH",
"455 362 OFFCURVE",
"495 318 OFFCURVE",
"574 301 CURVE",
"603 360 LINE",
"558 373 OFFCURVE",
"535 394 OFFCURVE",
"535 427 CURVE SMOOTH",
"535 457 OFFCURVE",
"552 473 OFFCURVE",
"579 473 CURVE SMOOTH",
"616 473 OFFCURVE",
"641 441 OFFCURVE",
"647 384 CURVE",
"715 384 LINE",
"722 441 OFFCURVE",
"745 470 OFFCURVE",
"783 470 CURVE SMOOTH",
"821 470 OFFCURVE",
"840 445 OFFCURVE",
"840 394 CURVE SMOOTH",
"840 -97 LINE",
"655 -97 OFFCURVE",
"514 -137 OFFCURVE",
"417 -216 CURVE SMOOTH",
"319 -296 OFFCURVE",
"271 -401 OFFCURVE",
"271 -534 CURVE SMOOTH",
"271 -625 OFFCURVE",
"300 -697 OFFCURVE",
"360 -750 CURVE SMOOTH",
"420 -803 OFFCURVE",
"499 -830 OFFCURVE",
"596 -830 CURVE SMOOTH"
);
},
{
closed = 1;
nodes = (
"510 -740 OFFCURVE",
"448 -714 OFFCURVE",
"408 -662 CURVE SMOOTH",
"379 -624 OFFCURVE",
"365 -579 OFFCURVE",
"365 -525 CURVE SMOOTH",
"365 -423 OFFCURVE",
"405 -340 OFFCURVE",
"483 -275 CURVE SMOOTH",
"562 -210 OFFCURVE",
"681 -178 OFFCURVE",
"839 -177 CURVE",
"839 -523 LINE SMOOTH",
"839 -664 OFFCURVE",
"756 -740 OFFCURVE",
"608 -740 CURVE SMOOTH"
);
},
{
closed = 1;
nodes = (
"676 0 LINE",
"693 30 LINE",
"563 219 LINE",
"469 219 LINE",
"575 68 LINE",
"455 68 LINE SMOOTH",
"416 68 OFFCURVE",
"396 89 OFFCURVE",
"396 131 CURVE SMOOTH",
"396 393 LINE SMOOTH",
"396 495 OFFCURVE",
"344 546 OFFCURVE",
"238 546 CURVE SMOOTH",
"132 546 OFFCURVE",
"78 493 OFFCURVE",
"78 388 CURVE SMOOTH",
"78 149 LINE SMOOTH",
"78 53 OFFCURVE",
"137 9 OFFCURVE",
"222 0 CURVE",
"240 68 LINE",
"190 76 OFFCURVE",
"165 104 OFFCURVE",
"165 154 CURVE SMOOTH",
"165 391 LINE SMOOTH",
"165 444 OFFCURVE",
"190 470 OFFCURVE",
"238 470 CURVE SMOOTH",
"286 470 OFFCURVE",
"310 445 OFFCURVE",
"310 394 CURVE SMOOTH",
"310 133 LINE SMOOTH",
"310 45 OFFCURVE",
"357 0 OFFCURVE",
"450 0 CURVE SMOOTH"
);
}
);
width = 977;
},
{
layerId = "791C41F8-8E37-43C9-BD6C-904761E149BF";
paths = (
{
closed = 1;
nodes = (
"995 -830 OFFCURVE",
"1106 -716 OFFCURVE",
"1106 -490 CURVE SMOOTH",
"1106 -221 LINE",
"1216 -221 LINE SMOOTH",
"1257 -221 OFFCURVE",
"1278 -235 OFFCURVE",
"1278 -264 CURVE SMOOTH",
"1278 -292 OFFCURVE",
"1243 -310 OFFCURVE",
"1172 -316 CURVE",
"1172 -399 LINE",
"1246 -402 OFFCURVE",
"1286 -425 OFFCURVE",
"1286 -463 CURVE SMOOTH",
"1286 -482 OFFCURVE",
"1273 -497 OFFCURVE",
"1255 -497 CURVE SMOOTH",
"1229 -497 OFFCURVE",
"1209 -484 OFFCURVE",
"1197 -458 CURVE",
"1123 -487 LINE",
"1140 -566 OFFCURVE",
"1191 -606 OFFCURVE",
"1276 -606 CURVE",
"1369 -602 OFFCURVE",
"1415 -560 OFFCURVE",
"1415 -480 CURVE SMOOTH",
"1415 -414 OFFCURVE",
"1380 -373 OFFCURVE",
"1313 -356 CURVE",
"1379 -341 OFFCURVE",
"1412 -306 OFFCURVE",
"1412 -249 CURVE SMOOTH",
"1412 -149 OFFCURVE",
"1346 -98 OFFCURVE",
"1213 -98 CURVE SMOOTH",
"1106 -98 LINE",
"1106 362 LINE SMOOTH",
"1106 484 OFFCURVE",
"1048 546 OFFCURVE",
"933 546 CURVE SMOOTH",
"867 546 OFFCURVE",
"825 522 OFFCURVE",
"807 476 CURVE",
"784 524 OFFCURVE",
"736 548 OFFCURVE",
"663 548 CURVE SMOOTH",
"578 548 OFFCURVE",
"518 490 OFFCURVE",
"518 410 CURVE SMOOTH",
"518 322 OFFCURVE",
"570 271 OFFCURVE",
"676 257 CURVE",
"704 326 LINE",
"659 338 OFFCURVE",
"637 357 OFFCURVE",
"637 384 CURVE SMOOTH",
"637 410 OFFCURVE",
"655 424 OFFCURVE",
"685 424 CURVE SMOOTH",
"728 424 OFFCURVE",
"752 393 OFFCURVE",
"759 335 CURVE",
"851 335 LINE",
"858 393 OFFCURVE",
"879 421 OFFCURVE",
"914 421 CURVE SMOOTH",
"955 421 OFFCURVE",
"976 399 OFFCURVE",
"976 355 CURVE SMOOTH",
"976 -97 LINE",
"788 -97 OFFCURVE",
"649 -136 OFFCURVE",
"560 -214 CURVE SMOOTH",
"471 -292 OFFCURVE",
"426 -387 OFFCURVE",
"426 -500 CURVE SMOOTH",
"426 -604 OFFCURVE",
"460 -685 OFFCURVE",
"528 -743 CURVE SMOOTH",
"596 -801 OFFCURVE",
"678 -830 OFFCURVE",
"775 -830 CURVE SMOOTH"
);
},
{
closed = 1;
nodes = (
"709 -696 OFFCURVE",
"662 -679 OFFCURVE",
"626 -644 CURVE SMOOTH",
"591 -609 OFFCURVE",
"573 -564 OFFCURVE",
"573 -509 CURVE SMOOTH",
"573 -424 OFFCURVE",
"603 -354 OFFCURVE",
"662 -301 CURVE SMOOTH",
"720 -248 OFFCURVE",
"825 -222 OFFCURVE",
"975 -221 CURVE",
"975 -479 LINE SMOOTH",
"975 -620 OFFCURVE",
"902 -696 OFFCURVE",
"769 -696 CURVE SMOOTH"
);
},
{
closed = 1;
nodes = (
"797 0 LINE",
"814 30 LINE",
"694 219 LINE",
"605 219 LINE",
"662 122 LINE",
"553 122 LINE SMOOTH",
"507 122 OFFCURVE",
"484 145 OFFCURVE",
"484 190 CURVE SMOOTH",
"484 349 LINE SMOOTH",
"484 480 OFFCURVE",
"417 546 OFFCURVE",
"282 546 CURVE SMOOTH",
"146 546 OFFCURVE",
"78 479 OFFCURVE",
"78 344 CURVE SMOOTH",
"78 173 LINE SMOOTH",
"78 60 OFFCURVE",
"154 5 OFFCURVE",
"280 0 CURVE",
"299 93 LINE",
"239 101 OFFCURVE",
"209 129 OFFCURVE",
"209 178 CURVE SMOOTH",
"209 347 LINE SMOOTH",
"209 396 OFFCURVE",
"234 421 OFFCURVE",
"282 421 CURVE SMOOTH",
"330 421 OFFCURVE",
"354 397 OFFCURVE",
"354 350 CURVE SMOOTH",
"354 187 LINE SMOOTH",
"354 63 OFFCURVE",
"421 0 OFFCURVE",
"558 0 CURVE SMOOTH"
);
}
);
width = 1155;
}
);
note = ngaleletras;
unicode = A98B;
category = Letter;
},
{
glyphname = ekara;
lastChange = "2018-12-13 17:24:08 +0000";
layers = (
{
layerId = "BA48FBA0-A6DA-4EAF-9284-46C574130433";
paths = (
{
closed = 1;
nodes = (
"777 -56 LINE",
"734 61 OFFCURVE",
"691 131 OFFCURVE",
"648 155 CURVE SMOOTH",
"631 165 OFFCURVE",
"608 170 OFFCURVE",
"579 170 CURVE SMOOTH",
"535 170 OFFCURVE",
"479 159 OFFCURVE",
"411 138 CURVE SMOOTH",
"296 102 OFFCURVE",
"225 84 OFFCURVE",
"198 84 CURVE SMOOTH",
"166 84 OFFCURVE",
"148 99 OFFCURVE",
"148 128 CURVE SMOOTH",
"148 179 OFFCURVE",
"187 245 OFFCURVE",
"258 327 CURVE",
"270 324 OFFCURVE",
"282 323 OFFCURVE",
"294 323 CURVE SMOOTH",
"471 323 OFFCURVE",
"559 371 OFFCURVE",
"559 466 CURVE SMOOTH",
"559 516 OFFCURVE",
"514 545 OFFCURVE",
"453 545 CURVE SMOOTH",
"387 545 OFFCURVE",
"304 493 OFFCURVE",
"206 388 CURVE SMOOTH",
"108 283 OFFCURVE",
"59 187 OFFCURVE",
"59 100 CURVE SMOOTH",
"59 33 OFFCURVE",
"91 0 OFFCURVE",
"156 0 CURVE SMOOTH",
"200 0 OFFCURVE",
"273 16 OFFCURVE",
"376 49 CURVE SMOOTH",
"458 75 OFFCURVE",
"523 88 OFFCURVE",
"565 88 CURVE SMOOTH",
"636 88 OFFCURVE",
"673 12 OFFCURVE",
"719 -82 CURVE"
);
},
{
closed = 1;
nodes = (
"374 445 OFFCURVE",
"419 474 OFFCURVE",
"451 474 CURVE SMOOTH",
"468 474 OFFCURVE",
"477 469 OFFCURVE",
"477 458 CURVE SMOOTH",
"477 418 OFFCURVE",
"423 394 OFFCURVE",
"314 386 CURVE"
);
}
);
width = 781;
},
{
layerId = "791C41F8-8E37-43C9-BD6C-904761E149BF";
paths = (
{
closed = 1;
nodes = (
"816 -56 LINE",
"776 55 OFFCURVE",
"742 128 OFFCURVE",
"714 163 CURVE SMOOTH",
"686 198 OFFCURVE",
"650 214 OFFCURVE",
"608 214 CURVE SMOOTH",
"564 214 OFFCURVE",
"512 202 OFFCURVE",
"450 182 CURVE SMOOTH",
"338 146 OFFCURVE",
"269 128 OFFCURVE",
"242 128 CURVE SMOOTH",
"210 128 OFFCURVE",
"192 144 OFFCURVE",
"192 172 CURVE SMOOTH",
"192 204 OFFCURVE",
"212 242 OFFCURVE",
"250 285 CURVE",
"271 284 OFFCURVE",
"295 284 OFFCURVE",
"314 284 CURVE SMOOTH",
"478 284 OFFCURVE",
"636 300 OFFCURVE",
"636 436 CURVE SMOOTH",
"636 501 OFFCURVE",
"585 545 OFFCURVE",
"500 545 CURVE SMOOTH",
"383 545 OFFCURVE",
"286 496 OFFCURVE",
"191 397 CURVE SMOOTH",
"96 299 OFFCURVE",
"49 208 OFFCURVE",
"49 124 CURVE SMOOTH",
"49 41 OFFCURVE",
"98 0 OFFCURVE",
"195 0 CURVE SMOOTH",
"240 0 OFFCURVE",
"310 16 OFFCURVE",
"406 49 CURVE SMOOTH",
"484 76 OFFCURVE",
"544 88 OFFCURVE",
"579 88 CURVE SMOOTH",
"651 88 OFFCURVE",
"688 11 OFFCURVE",
"733 -87 CURVE"
);
},
{
closed = 1;
nodes = (
"408 423 OFFCURVE",
"457 450 OFFCURVE",
"490 450 CURVE SMOOTH",
"507 450 OFFCURVE",
"516 443 OFFCURVE",
"516 429 CURVE SMOOTH",
"516 398 OFFCURVE",
"458 379 OFFCURVE",
"343 372 CURVE"
);
}
);
width = 781;
}
);
note = ekara;
unicode = A98C;
category = Letter;
},
{
glyphname = aikara;
lastChange = "2018-12-13 17:24:08 +0000";
layers = (
{
layerId = "BA48FBA0-A6DA-4EAF-9284-46C574130433";
paths = (
{
closed = 1;
nodes = (
"777 -56 LINE",
"734 61 OFFCURVE",
"691 131 OFFCURVE",
"648 155 CURVE SMOOTH",
"631 165 OFFCURVE",
"608 170 OFFCURVE",
"579 170 CURVE SMOOTH",
"535 170 OFFCURVE",
"479 159 OFFCURVE",
"411 138 CURVE SMOOTH",
"296 102 OFFCURVE",
"225 84 OFFCURVE",
"198 84 CURVE SMOOTH",
"166 84 OFFCURVE",
"148 99 OFFCURVE",
"148 128 CURVE SMOOTH",
"148 179 OFFCURVE",
"187 245 OFFCURVE",
"258 327 CURVE",
"270 324 OFFCURVE",
"282 323 OFFCURVE",
"294 323 CURVE SMOOTH",
"471 323 OFFCURVE",
"559 371 OFFCURVE",
"559 466 CURVE SMOOTH",
"559 516 OFFCURVE",
"514 545 OFFCURVE",
"453 545 CURVE SMOOTH",
"387 545 OFFCURVE",
"304 493 OFFCURVE",
"206 388 CURVE SMOOTH",
"108 283 OFFCURVE",
"59 187 OFFCURVE",
"59 100 CURVE SMOOTH",
"59 33 OFFCURVE",
"91 0 OFFCURVE",
"156 0 CURVE SMOOTH",
"200 0 OFFCURVE",
"273 16 OFFCURVE",
"376 49 CURVE SMOOTH",
"458 75 OFFCURVE",
"523 88 OFFCURVE",
"565 88 CURVE SMOOTH",
"636 88 OFFCURVE",
"673 12 OFFCURVE",
"719 -82 CURVE"
);
},
{
closed = 1;
nodes = (
"374 445 OFFCURVE",
"419 474 OFFCURVE",
"451 474 CURVE SMOOTH",
"468 474 OFFCURVE",
"477 469 OFFCURVE",
"477 458 CURVE SMOOTH",
"477 418 OFFCURVE",
"423 394 OFFCURVE",
"314 386 CURVE"
);
},
{
closed = 1;
nodes = (
"414 619 OFFCURVE",
"473 664 OFFCURVE",
"473 722 CURVE SMOOTH",
"473 759 OFFCURVE",
"453 783 OFFCURVE",
"412 802 CURVE SMOOTH",
"363 825 LINE SMOOTH",
"341 835 OFFCURVE",
"329 847 OFFCURVE",
"329 864 CURVE SMOOTH",
"329 884 OFFCURVE",
"349 894 OFFCURVE",
"383 894 CURVE SMOOTH",
"395 894 OFFCURVE",
"410 893 OFFCURVE",
"429 890 CURVE",
"429 947 LINE",
"412 952 OFFCURVE",
"396 954 OFFCURVE",
"378 954 CURVE SMOOTH",
"312 954 OFFCURVE",
"253 923 OFFCURVE",
"253 856 CURVE SMOOTH",
"253 834 OFFCURVE",
"260 815 OFFCURVE",
"275 800 CURVE SMOOTH",
"292 782 OFFCURVE",
"314 769 OFFCURVE",
"370 745 CURVE SMOOTH",
"388 737 OFFCURVE",
"397 727 OFFCURVE",
"397 712 CURVE SMOOTH",
"397 688 OFFCURVE",
"357 657 OFFCURVE",
"310 622 CURVE",
"346 579 LINE"
);
}
);
width = 781;
},
{
layerId = "791C41F8-8E37-43C9-BD6C-904761E149BF";
paths = (
{
closed = 1;
nodes = (
"816 -56 LINE",
"776 55 OFFCURVE",
"742 128 OFFCURVE",
"714 163 CURVE SMOOTH",
"686 198 OFFCURVE",
"650 214 OFFCURVE",
"608 214 CURVE SMOOTH",
"564 214 OFFCURVE",
"512 202 OFFCURVE",
"450 182 CURVE SMOOTH",
"338 146 OFFCURVE",
"269 128 OFFCURVE",
"242 128 CURVE SMOOTH",
"210 128 OFFCURVE",
"192 144 OFFCURVE",
"192 172 CURVE SMOOTH",
"192 204 OFFCURVE",
"212 242 OFFCURVE",
"250 285 CURVE",
"271 284 OFFCURVE",
"295 284 OFFCURVE",
"314 284 CURVE SMOOTH",
"478 284 OFFCURVE",
"636 300 OFFCURVE",
"636 436 CURVE SMOOTH",
"636 501 OFFCURVE",
"585 545 OFFCURVE",
"500 545 CURVE SMOOTH",
"383 545 OFFCURVE",
"286 496 OFFCURVE",
"191 397 CURVE SMOOTH",
"96 299 OFFCURVE",
"49 208 OFFCURVE",
"49 124 CURVE SMOOTH",
"49 41 OFFCURVE",
"98 0 OFFCURVE",
"195 0 CURVE SMOOTH",
"240 0 OFFCURVE",
"310 16 OFFCURVE",
"406 49 CURVE SMOOTH",
"484 76 OFFCURVE",
"544 88 OFFCURVE",
"579 88 CURVE SMOOTH",
"651 88 OFFCURVE",
"688 11 OFFCURVE",
"733 -87 CURVE"
);
},
{
closed = 1;
nodes = (
"408 423 OFFCURVE",
"457 450 OFFCURVE",
"490 450 CURVE SMOOTH",
"507 450 OFFCURVE",
"516 443 OFFCURVE",
"516 429 CURVE SMOOTH",
"516 398 OFFCURVE",
"458 379 OFFCURVE",
"343 372 CURVE"
);
},
{
closed = 1;
nodes = (
"469 624 OFFCURVE",
"511 670 OFFCURVE",
"511 718 CURVE SMOOTH",
"511 750 OFFCURVE",
"495 778 OFFCURVE",
"473 798 CURVE SMOOTH",
"430 837 LINE SMOOTH",
"418 848 OFFCURVE",
"413 853 OFFCURVE",
"413 868 CURVE SMOOTH",
"413 884 OFFCURVE",
"423 893 OFFCURVE",
"444 893 CURVE SMOOTH",
"456 893 OFFCURVE",
"469 891 OFFCURVE",
"486 887 CURVE",
"486 959 LINE",
"455 970 OFFCURVE",
"422 975 OFFCURVE",
"393 975 CURVE SMOOTH",
"329 975 OFFCURVE",
"271 942 OFFCURVE",
"271 877 CURVE SMOOTH",
"271 855 OFFCURVE",
"281 837 OFFCURVE",
"301 817 CURVE SMOOTH",
"320 798 OFFCURVE",
"343 777 OFFCURVE",
"369 755 CURVE SMOOTH",
"384 743 OFFCURVE",
"392 729 OFFCURVE",
"392 713 CURVE SMOOTH",
"392 693 OFFCURVE",
"374 667 OFFCURVE",
"338 634 CURVE",
"385 579 LINE"
);
}
);
width = 781;
}
);
note = aikara;
unicode = A98D;
category = Letter;
},
{
glyphname = okara;
lastChange = "2018-12-13 17:24:08 +0000";
layers = (
{
layerId = "BA48FBA0-A6DA-4EAF-9284-46C574130433";
paths = (
{
closed = 1;
nodes = (
"315 -825 OFFCURVE",
"398 -779 OFFCURVE",
"441 -697 CURVE SMOOTH",
"516 -553 LINE SMOOTH",
"546 -496 OFFCURVE",
"608 -448 OFFCURVE",
"672 -448 CURVE SMOOTH",
"710 -448 OFFCURVE",
"742 -466 OFFCURVE",
"766 -502 CURVE SMOOTH",
"791 -539 OFFCURVE",
"831 -643 OFFCURVE",
"888 -816 CURVE",
"955 -791 LINE",
"911 -621 OFFCURVE",
"869 -503 OFFCURVE",
"829 -440 CURVE SMOOTH",
"788 -376 OFFCURVE",
"742 -353 OFFCURVE",
"662 -353 CURVE SMOOTH",
"588 -353 OFFCURVE",
"488 -415 OFFCURVE",
"435 -506 CURVE SMOOTH",
"325 -695 LINE SMOOTH",
"309 -722 OFFCURVE",
"276 -739 OFFCURVE",
"256 -739 CURVE SMOOTH",
"223 -739 OFFCURVE",
"214 -713 OFFCURVE",
"214 -667 CURVE SMOOTH",
"214 -603 OFFCURVE",
"249 -526 OFFCURVE",
"309 -443 CURVE SMOOTH",
"369 -360 OFFCURVE",
"484 -275 OFFCURVE",
"655 -189 CURVE SMOOTH",
"826 -103 OFFCURVE",
"918 -7 OFFCURVE",
"918 89 CURVE SMOOTH",
"918 388 LINE SMOOTH",
"918 493 OFFCURVE",
"864 546 OFFCURVE",
"758 546 CURVE SMOOTH",
"503 546 LINE",
"503 479 LINE",
"597 473 OFFCURVE",
"645 415 OFFCURVE",
"645 305 CURVE SMOOTH",
"645 131 LINE SMOOTH",
"645 89 OFFCURVE",
"625 68 OFFCURVE",
"586 68 CURVE SMOOTH",
"455 68 LINE SMOOTH",
"416 68 OFFCURVE",
"396 89 OFFCURVE",
"396 131 CURVE SMOOTH",
"396 393 LINE SMOOTH",
"396 495 OFFCURVE",
"344 546 OFFCURVE",
"238 546 CURVE SMOOTH",
"132 546 OFFCURVE",
"78 493 OFFCURVE",
"78 388 CURVE SMOOTH",
"78 151 LINE SMOOTH",
"78 58 OFFCURVE",
"132 9 OFFCURVE",
"222 0 CURVE",
"240 68 LINE",
"190 76 OFFCURVE",
"165 104 OFFCURVE",
"165 154 CURVE SMOOTH",
"165 391 LINE SMOOTH",
"165 444 OFFCURVE",
"190 470 OFFCURVE",
"238 470 CURVE SMOOTH",
"286 470 OFFCURVE",
"310 445 OFFCURVE",
"310 394 CURVE SMOOTH",
"310 133 LINE SMOOTH",
"310 45 OFFCURVE",
"356 0 OFFCURVE",
"450 0 CURVE SMOOTH",
"591 0 LINE SMOOTH",
"685 0 OFFCURVE",
"731 45 OFFCURVE",
"731 133 CURVE SMOOTH",
"731 321 LINE SMOOTH",
"731 404 OFFCURVE",
"704 454 OFFCURVE",
"649 470 CURVE",
"758 470 LINE SMOOTH",
"807 470 OFFCURVE",
"831 444 OFFCURVE",
"831 391 CURVE SMOOTH",
"831 100 LINE SMOOTH",
"831 24 OFFCURVE",
"754 -51 OFFCURVE",
"599 -128 CURVE SMOOTH",
"445 -204 OFFCURVE",
"328 -290 OFFCURVE",
"247 -385 CURVE SMOOTH",
"167 -479 OFFCURVE",
"127 -581 OFFCURVE",
"127 -690 CURVE SMOOTH",
"127 -769 OFFCURVE",
"172 -825 OFFCURVE",
"249 -825 CURVE SMOOTH"
);
}
);
width = 967;
},
{
layerId = "791C41F8-8E37-43C9-BD6C-904761E149BF";
paths = (
{
closed = 1;
nodes = (
"502 -825 OFFCURVE",
"573 -788 OFFCURVE",
"632 -715 CURVE SMOOTH",
"771 -542 LINE SMOOTH",
"814 -489 OFFCURVE",
"856 -458 OFFCURVE",
"898 -458 CURVE SMOOTH",
"943 -458 OFFCURVE",
"975 -479 OFFCURVE",
"1000 -524 CURVE SMOOTH",
"1025 -569 OFFCURVE",
"1065 -666 OFFCURVE",
"1123 -816 CURVE",
"1199 -791 LINE",
"1155 -587 OFFCURVE",
"1113 -455 OFFCURVE",
"1073 -392 CURVE SMOOTH",
"1036 -334 OFFCURVE",
"985 -304 OFFCURVE",
"918 -304 CURVE SMOOTH",
"835 -304 OFFCURVE",
"770 -342 OFFCURVE",
"692 -436 CURVE SMOOTH",
"534 -626 LINE SMOOTH",
"507 -658 OFFCURVE",
"481 -676 OFFCURVE",
"452 -676 CURVE SMOOTH",
"423 -676 OFFCURVE",
"409 -656 OFFCURVE",
"409 -613 CURVE SMOOTH",
"409 -570 OFFCURVE",
"440 -516 OFFCURVE",
"494 -458 CURVE SMOOTH",
"548 -401 OFFCURVE",
"664 -323 OFFCURVE",
"841 -222 CURVE SMOOTH",
"1018 -121 OFFCURVE",
"1113 -18 OFFCURVE",
"1113 79 CURVE SMOOTH",
"1113 393 LINE SMOOTH",
"1113 495 OFFCURVE",
"1043 546 OFFCURVE",
"905 546 CURVE SMOOTH",
"601 546 LINE",
"601 425 LINE",
"705 419 OFFCURVE",
"757 354 OFFCURVE",
"757 228 CURVE",
"757 227 LINE SMOOTH",
"757 156 OFFCURVE",
"736 122 OFFCURVE",
"693 122 CURVE SMOOTH",
"543 122 LINE SMOOTH",
"504 122 OFFCURVE",
"484 145 OFFCURVE",
"484 190 CURVE SMOOTH",
"484 349 LINE SMOOTH",
"484 480 OFFCURVE",
"417 546 OFFCURVE",
"282 546 CURVE SMOOTH",
"146 546 OFFCURVE",
"78 479 OFFCURVE",
"78 344 CURVE SMOOTH",
"78 173 LINE SMOOTH",
"78 60 OFFCURVE",
"154 5 OFFCURVE",
"280 0 CURVE",
"299 93 LINE",
"239 101 OFFCURVE",
"209 129 OFFCURVE",
"209 178 CURVE SMOOTH",
"209 347 LINE SMOOTH",
"209 396 OFFCURVE",
"234 421 OFFCURVE",
"282 421 CURVE SMOOTH",
"330 421 OFFCURVE",
"354 397 OFFCURVE",
"354 350 CURVE SMOOTH",
"354 192 LINE SMOOTH",
"354 65 OFFCURVE",
"417 0 OFFCURVE",
"543 0 CURVE SMOOTH",
"688 0 LINE SMOOTH",
"818 0 OFFCURVE",
"883 73 OFFCURVE",
"883 217 CURVE",
"883 217 LINE SMOOTH",
"883 327 OFFCURVE",
"849 396 OFFCURVE",
"781 421 CURVE",
"895 421 LINE SMOOTH",
"953 421 OFFCURVE",
"982 395 OFFCURVE",
"982 342 CURVE SMOOTH",
"982 100 LINE SMOOTH",
"982 24 OFFCURVE",
"898 -56 OFFCURVE",
"731 -141 CURVE SMOOTH",
"563 -226 OFFCURVE",
"443 -309 OFFCURVE",
"369 -390 CURVE SMOOTH",
"295 -472 OFFCURVE",
"259 -559 OFFCURVE",
"259 -651 CURVE SMOOTH",
"259 -755 OFFCURVE",
"322 -825 OFFCURVE",
"419 -825 CURVE SMOOTH"
);
}
);
width = 1162;
}
);
note = okara;
unicode = A98E;
category = Letter;
},
{
glyphname = ka;
lastChange = "2018-12-13 17:24:08 +0000";
layers = (
{
layerId = "BA48FBA0-A6DA-4EAF-9284-46C574130433";
paths = (
{
closed = 1;
nodes = (
"240 68 LINE",
"190 76 OFFCURVE",
"165 104 OFFCURVE",
"165 154 CURVE SMOOTH",
"165 391 LINE SMOOTH",
"165 444 OFFCURVE",
"190 470 OFFCURVE",
"238 470 CURVE SMOOTH",
"286 470 OFFCURVE",
"310 445 OFFCURVE",
"310 394 CURVE SMOOTH",
"310 0 LINE",
"396 0 LINE",
"396 182 LINE",
"495 182 LINE",
"495 116 LINE SMOOTH",
"495 39 OFFCURVE",
"538 0 OFFCURVE",
"616 0 CURVE SMOOTH",
"688 0 OFFCURVE",
"733 39 OFFCURVE",
"733 118 CURVE SMOOTH",
"733 201 OFFCURVE",
"673 255 OFFCURVE",
"582 257 CURVE",
"582 328 LINE SMOOTH",
"582 423 OFFCURVE",
"628 470 OFFCURVE",
"718 470 CURVE SMOOTH",
"809 470 OFFCURVE",
"854 424 OFFCURVE",
"854 331 CURVE SMOOTH",
"854 0 LINE",
"940 0 LINE",
"940 391 LINE SMOOTH",
"940 444 OFFCURVE",
"965 470 OFFCURVE",
"1013 470 CURVE SMOOTH",
"1061 470 OFFCURVE",
"1085 445 OFFCURVE",
"1085 394 CURVE SMOOTH",
"1085 0 LINE",
"1172 0 LINE",
"1172 393 LINE SMOOTH",
"1172 495 OFFCURVE",
"1122 546 OFFCURVE",
"1023 546 CURVE SMOOTH",
"969 546 OFFCURVE",
"929 521 OFFCURVE",
"902 472 CURVE",
"866 521 OFFCURVE",
"805 546 OFFCURVE",
"718 546 CURVE SMOOTH",
"570 546 OFFCURVE",
"495 472 OFFCURVE",
"495 325 CURVE SMOOTH",
"495 257 LINE",
"396 257 LINE",
"396 393 LINE SMOOTH",
"396 495 OFFCURVE",
"344 546 OFFCURVE",
"238 546 CURVE SMOOTH",
"132 546 OFFCURVE",
"78 493 OFFCURVE",
"78 388 CURVE SMOOTH",
"78 150 LINE SMOOTH",
"78 57 OFFCURVE",
"132 10 OFFCURVE",
"222 0 CURVE"
);
},
{
closed = 1;
nodes = (
"595 71 OFFCURVE",
"582 86 OFFCURVE",
"582 116 CURVE SMOOTH",
"582 182 LINE",
"627 182 OFFCURVE",
"657 160 OFFCURVE",
"657 117 CURVE SMOOTH",
"657 89 OFFCURVE",
"649 71 OFFCURVE",
"620 71 CURVE SMOOTH"
);
}
);
width = 1221;
},
{
layerId = "791C41F8-8E37-43C9-BD6C-904761E149BF";
paths = (
{
closed = 1;
nodes = (
"299 93 LINE",
"239 101 OFFCURVE",
"209 129 OFFCURVE",
"209 178 CURVE SMOOTH",
"209 347 LINE SMOOTH",
"209 396 OFFCURVE",
"234 421 OFFCURVE",
"282 421 CURVE SMOOTH",
"330 421 OFFCURVE",
"354 397 OFFCURVE",
"354 350 CURVE SMOOTH",
"354 0 LINE",
"484 0 LINE",
"484 196 LINE",
"573 196 LINE",
"573 170 LINE SMOOTH",
"573 57 OFFCURVE",
"633 0 OFFCURVE",
"752 0 CURVE SMOOTH",
"839 0 OFFCURVE",
"909 61 OFFCURVE",
"909 137 CURVE SMOOTH",
"909 252 OFFCURVE",
"836 299 OFFCURVE",
"705 301 CURVE",
"705 301 LINE SMOOTH",
"707 381 OFFCURVE",
"756 421 OFFCURVE",
"855 421 CURVE SMOOTH",
"955 421 OFFCURVE",
"1005 378 OFFCURVE",
"1005 292 CURVE SMOOTH",
"1005 0 LINE",
"1136 0 LINE",
"1136 352 LINE SMOOTH",
"1136 398 OFFCURVE",
"1160 421 OFFCURVE",
"1206 421 CURVE SMOOTH",
"1252 421 OFFCURVE",
"1275 397 OFFCURVE",
"1275 350 CURVE SMOOTH",
"1275 0 LINE",
"1406 0 LINE",
"1406 349 LINE SMOOTH",
"1406 480 OFFCURVE",
"1349 546 OFFCURVE",
"1233 546 CURVE SMOOTH",
"1167 546 OFFCURVE",
"1114 515 OFFCURVE",
"1075 453 CURVE",
"1028 515 OFFCURVE",
"955 546 OFFCURVE",
"855 546 CURVE SMOOTH",
"670 546 OFFCURVE",
"577 464 OFFCURVE",
"574 301 CURVE SMOOTH",
"574 301 LINE",
"484 301 LINE",
"484 349 LINE SMOOTH",
"484 480 OFFCURVE",
"417 546 OFFCURVE",
"282 546 CURVE SMOOTH",
"146 546 OFFCURVE",
"78 478 OFFCURVE",
"78 343 CURVE SMOOTH",
"78 173 LINE SMOOTH",
"78 60 OFFCURVE",
"154 5 OFFCURVE",
"280 0 CURVE"
);
},
{
closed = 1;
nodes = (
"720 98 OFFCURVE",
"704 116 OFFCURVE",
"704 147 CURVE SMOOTH",
"704 196 LINE",
"768 196 OFFCURVE",
"800 178 OFFCURVE",
"800 143 CURVE SMOOTH",
"800 114 OFFCURVE",
"787 98 OFFCURVE",
"750 98 CURVE SMOOTH"
);
}
);
width = 1455;
}
);
note = ka;
unicode = A98F;
category = Letter;
},
{
glyphname = qa;
lastChange = "2018-12-13 17:24:08 +0000";
layers = (
{
layerId = "BA48FBA0-A6DA-4EAF-9284-46C574130433";
paths = (
{
closed = 1;
nodes = (
"861 -278 LINE",
"856 -152 OFFCURVE",
"802 -88 OFFCURVE",
"698 -88 CURVE SMOOTH",
"612 -88 LINE",
"644 2 LINE",
"700 12 OFFCURVE",
"733 51 OFFCURVE",
"733 118 CURVE SMOOTH",
"733 201 OFFCURVE",
"673 255 OFFCURVE",
"582 257 CURVE",
"582 328 LINE SMOOTH",
"582 423 OFFCURVE",
"628 470 OFFCURVE",
"718 470 CURVE SMOOTH",
"809 470 OFFCURVE",
"854 424 OFFCURVE",
"854 331 CURVE SMOOTH",
"854 0 LINE",
"940 0 LINE",
"940 391 LINE SMOOTH",
"940 444 OFFCURVE",
"965 470 OFFCURVE",
"1013 470 CURVE SMOOTH",
"1061 470 OFFCURVE",
"1085 445 OFFCURVE",
"1085 394 CURVE SMOOTH",
"1085 0 LINE",
"1172 0 LINE",
"1172 393 LINE SMOOTH",
"1172 495 OFFCURVE",
"1122 546 OFFCURVE",
"1023 546 CURVE SMOOTH",
"969 546 OFFCURVE",
"929 521 OFFCURVE",
"902 472 CURVE",
"866 521 OFFCURVE",
"805 546 OFFCURVE",
"718 546 CURVE SMOOTH",
"570 546 OFFCURVE",
"495 472 OFFCURVE",
"495 325 CURVE SMOOTH",
"495 257 LINE",
"396 257 LINE",
"396 393 LINE SMOOTH",
"396 495 OFFCURVE",
"344 546 OFFCURVE",
"238 546 CURVE SMOOTH",
"132 546 OFFCURVE",
"78 493 OFFCURVE",
"78 388 CURVE SMOOTH",
"78 147 LINE SMOOTH",
"78 54 OFFCURVE",
"136 10 OFFCURVE",
"222 0 CURVE",
"240 68 LINE",
"190 76 OFFCURVE",
"165 104 OFFCURVE",
"165 154 CURVE SMOOTH",
"165 391 LINE SMOOTH",
"165 444 OFFCURVE",
"190 470 OFFCURVE",
"238 470 CURVE SMOOTH",
"286 470 OFFCURVE",
"310 445 OFFCURVE",
"310 394 CURVE SMOOTH",
"310 0 LINE",
"396 0 LINE",
"396 182 LINE",
"495 182 LINE",
"495 116 LINE SMOOTH",
"495 62 OFFCURVE",
"516 23 OFFCURVE",
"564 7 CURVE",
"516 -129 LINE",
"530 -161 LINE",
"688 -161 LINE SMOOTH",
"751 -161 OFFCURVE",
"783 -200 OFFCURVE",
"783 -278 CURVE"
);
},
{
closed = 1;
nodes = (
"595 71 OFFCURVE",
"582 86 OFFCURVE",
"582 116 CURVE SMOOTH",
"582 182 LINE",
"627 182 OFFCURVE",
"657 160 OFFCURVE",
"657 117 CURVE SMOOTH",
"657 88 OFFCURVE",
"648 71 OFFCURVE",
"620 71 CURVE SMOOTH"
);
}
);
width = 1221;
},
{
layerId = "791C41F8-8E37-43C9-BD6C-904761E149BF";
paths = (
{
closed = 1;
nodes = (
"1042 -313 LINE",
"1038 -157 OFFCURVE",
"972 -79 OFFCURVE",
"845 -79 CURVE SMOOTH",
"737 -79 LINE",
"771 1 LINE",
"846 8 OFFCURVE",
"909 63 OFFCURVE",
"909 144 CURVE SMOOTH",
"909 253 OFFCURVE",
"830 299 OFFCURVE",
"705 301 CURVE",
"705 301 LINE SMOOTH",
"707 381 OFFCURVE",
"756 421 OFFCURVE",
"855 421 CURVE SMOOTH",
"955 421 OFFCURVE",
"1005 378 OFFCURVE",
"1005 292 CURVE SMOOTH",
"1005 0 LINE",
"1136 0 LINE",
"1136 352 LINE SMOOTH",
"1136 398 OFFCURVE",
"1160 421 OFFCURVE",
"1206 421 CURVE SMOOTH",
"1252 421 OFFCURVE",
"1275 397 OFFCURVE",
"1275 350 CURVE SMOOTH",
"1275 0 LINE",
"1406 0 LINE",
"1406 349 LINE SMOOTH",
"1406 480 OFFCURVE",
"1349 546 OFFCURVE",
"1233 546 CURVE SMOOTH",
"1167 546 OFFCURVE",
"1114 515 OFFCURVE",
"1075 453 CURVE",
"1028 515 OFFCURVE",
"955 546 OFFCURVE",
"855 546 CURVE SMOOTH",
"670 546 OFFCURVE",
"577 464 OFFCURVE",
"574 301 CURVE SMOOTH",
"574 301 LINE",
"484 301 LINE",
"484 349 LINE SMOOTH",
"484 480 OFFCURVE",
"417 546 OFFCURVE",
"282 546 CURVE SMOOTH",
"146 546 OFFCURVE",
"78 479 OFFCURVE",
"78 344 CURVE SMOOTH",
"78 173 LINE SMOOTH",
"78 60 OFFCURVE",
"154 5 OFFCURVE",
"280 0 CURVE",
"299 93 LINE",
"239 101 OFFCURVE",
"209 129 OFFCURVE",
"209 178 CURVE SMOOTH",
"209 347 LINE SMOOTH",
"209 396 OFFCURVE",
"234 421 OFFCURVE",
"282 421 CURVE SMOOTH",
"330 421 OFFCURVE",
"354 397 OFFCURVE",
"354 350 CURVE SMOOTH",
"354 0 LINE",
"484 0 LINE",
"484 196 LINE",
"573 196 LINE",
"573 170 LINE SMOOTH",
"573 80 OFFCURVE",
"610 27 OFFCURVE",
"682 8 CURVE",
"599 -165 LINE",
"616 -195 LINE",
"835 -195 LINE SMOOTH",
"898 -195 OFFCURVE",
"930 -234 OFFCURVE",
"930 -313 CURVE"
);
},
{
closed = 1;
nodes = (
"720 98 OFFCURVE",
"704 114 OFFCURVE",
"704 146 CURVE SMOOTH",
"704 196 LINE",
"768 196 OFFCURVE",
"799 178 OFFCURVE",
"799 142 CURVE SMOOTH",
"799 112 OFFCURVE",
"785 98 OFFCURVE",
"753 98 CURVE SMOOTH"
);
}
);
width = 1455;
}
);
note = qa;
unicode = A990;
category = Letter;
},
{
glyphname = kha;
lastChange = "2018-12-13 17:24:08 +0000";
layers = (
{
layerId = "BA48FBA0-A6DA-4EAF-9284-46C574130433";
paths = (
{
closed = 1;
nodes = (
"1033 -2 OFFCURVE",
"1075 48 OFFCURVE",
"1105 152 CURVE SMOOTH",
"1150 310 LINE SMOOTH",
"1177 405 OFFCURVE",
"1225 459 OFFCURVE",
"1289 472 CURVE",
"1272 543 LINE",
"1163 522 OFFCURVE",
"1091 441 OFFCURVE",
"1054 299 CURVE SMOOTH",
"1009 125 LINE SMOOTH",
"1002 99 OFFCURVE",
"988 83 OFFCURVE",
"971 83 CURVE SMOOTH",
"951 83 OFFCURVE",
"940 96 OFFCURVE",
"940 120 CURVE SMOOTH",
"940 330 LINE SMOOTH",
"940 474 OFFCURVE",
"866 546 OFFCURVE",
"718 546 CURVE SMOOTH",
"570 546 OFFCURVE",
"495 472 OFFCURVE",
"495 325 CURVE SMOOTH",
"495 257 LINE",
"396 257 LINE",
"396 393 LINE SMOOTH",
"396 495 OFFCURVE",
"344 546 OFFCURVE",
"238 546 CURVE SMOOTH",
"132 546 OFFCURVE",
"78 493 OFFCURVE",
"78 388 CURVE SMOOTH",
"78 150 LINE SMOOTH",
"78 57 OFFCURVE",
"132 10 OFFCURVE",
"222 0 CURVE",
"240 68 LINE",
"190 76 OFFCURVE",
"165 104 OFFCURVE",
"165 154 CURVE SMOOTH",
"165 391 LINE SMOOTH",
"165 444 OFFCURVE",
"190 470 OFFCURVE",
"238 470 CURVE SMOOTH",
"286 470 OFFCURVE",
"310 445 OFFCURVE",
"310 394 CURVE SMOOTH",
"310 0 LINE",
"396 0 LINE",
"396 182 LINE",
"495 182 LINE",
"495 116 LINE SMOOTH",
"495 39 OFFCURVE",
"538 0 OFFCURVE",
"616 0 CURVE SMOOTH",
"688 0 OFFCURVE",
"733 39 OFFCURVE",
"733 118 CURVE SMOOTH",
"733 201 OFFCURVE",
"673 255 OFFCURVE",
"582 257 CURVE",
"582 328 LINE SMOOTH",
"582 423 OFFCURVE",
"628 470 OFFCURVE",
"718 470 CURVE SMOOTH",
"809 470 OFFCURVE",
"854 424 OFFCURVE",
"854 331 CURVE SMOOTH",
"854 134 LINE SMOOTH",
"854 43 OFFCURVE",
"893 -2 OFFCURVE",
"967 -2 CURVE SMOOTH"
);
},
{
closed = 1;
nodes = (
"595 71 OFFCURVE",
"582 86 OFFCURVE",
"582 116 CURVE SMOOTH",
"582 182 LINE",
"627 182 OFFCURVE",
"657 160 OFFCURVE",
"657 117 CURVE SMOOTH",
"657 88 OFFCURVE",
"649 71 OFFCURVE",
"620 71 CURVE SMOOTH"
);
}
);
width = 1289;
},
{
layerId = "791C41F8-8E37-43C9-BD6C-904761E149BF";
paths = (
{
closed = 1;
nodes = (
"1252 -2 OFFCURVE",
"1302 48 OFFCURVE",
"1333 152 CURVE SMOOTH",
"1380 308 LINE SMOOTH",
"1404 387 OFFCURVE",
"1462 435 OFFCURVE",
"1541 446 CURVE",
"1517 543 LINE",
"1377 535 OFFCURVE",
"1302 475 OFFCURVE",
"1258 335 CURVE SMOOTH",
"1204 162 LINE SMOOTH",
"1196 137 OFFCURVE",
"1185 123 OFFCURVE",
"1166 123 CURVE SMOOTH",
"1146 123 OFFCURVE",
"1136 134 OFFCURVE",
"1136 158 CURVE SMOOTH",
"1136 286 LINE SMOOTH",
"1136 459 OFFCURVE",
"1042 546 OFFCURVE",
"855 546 CURVE SMOOTH",
"670 546 OFFCURVE",
"577 464 OFFCURVE",
"574 301 CURVE SMOOTH",
"574 301 LINE",
"484 301 LINE",
"484 349 LINE SMOOTH",
"484 480 OFFCURVE",
"417 546 OFFCURVE",
"282 546 CURVE SMOOTH",
"146 546 OFFCURVE",
"78 479 OFFCURVE",
"78 344 CURVE SMOOTH",
"78 173 LINE SMOOTH",
"78 60 OFFCURVE",
"154 5 OFFCURVE",
"280 0 CURVE",
"299 93 LINE",
"239 101 OFFCURVE",
"209 129 OFFCURVE",
"209 178 CURVE SMOOTH",
"209 347 LINE SMOOTH",
"209 396 OFFCURVE",
"234 421 OFFCURVE",
"282 421 CURVE SMOOTH",
"330 421 OFFCURVE",
"354 397 OFFCURVE",
"354 350 CURVE SMOOTH",
"354 0 LINE",
"484 0 LINE",
"484 196 LINE",
"573 196 LINE",
"573 170 LINE SMOOTH",
"573 57 OFFCURVE",
"633 0 OFFCURVE",
"752 0 CURVE SMOOTH",
"839 0 OFFCURVE",
"909 58 OFFCURVE",
"909 144 CURVE SMOOTH",
"909 256 OFFCURVE",
"824 299 OFFCURVE",
"705 301 CURVE",
"705 301 LINE SMOOTH",
"707 381 OFFCURVE",
"756 421 OFFCURVE",
"855 421 CURVE SMOOTH",
"955 421 OFFCURVE",
"1005 376 OFFCURVE",
"1005 287 CURVE SMOOTH",
"1005 170 LINE SMOOTH",
"1005 57 OFFCURVE",
"1060 -2 OFFCURVE",
"1167 -2 CURVE SMOOTH"
);
},
{
closed = 1;
nodes = (
"722 98 OFFCURVE",
"704 114 OFFCURVE",
"704 146 CURVE SMOOTH",
"704 196 LINE",
"768 196 OFFCURVE",
"800 178 OFFCURVE",
"800 142 CURVE SMOOTH",
"800 111 OFFCURVE",
"785 98 OFFCURVE",
"750 98 CURVE SMOOTH"
);
}
);
width = 1514;
}
);
note = kha;
unicode = A991;
category = Letter;
},
{
glyphname = ga;
lastChange = "2018-12-13 17:24:08 +0000";
layers = (
{
layerId = "BA48FBA0-A6DA-4EAF-9284-46C574130433";
paths = (
{
closed = 1;
nodes = (
"367 0 LINE",
"367 372 LINE SMOOTH",
"367 438 OFFCURVE",
"396 470 OFFCURVE",
"455 470 CURVE SMOOTH",
"512 470 OFFCURVE",
"541 438 OFFCURVE",
"541 375 CURVE SMOOTH",
"541 0 LINE",
"628 0 LINE",
"628 372 LINE SMOOTH",
"628 438 OFFCURVE",
"657 470 OFFCURVE",
"715 470 CURVE SMOOTH",
"773 470 OFFCURVE",
"802 438 OFFCURVE",
"802 375 CURVE SMOOTH",
"802 0 LINE",
"889 0 LINE",
"889 374 LINE SMOOTH",
"889 488 OFFCURVE",
"831 546 OFFCURVE",
"715 546 CURVE SMOOTH",
"656 546 OFFCURVE",
"613 522 OFFCURVE",
"587 474 CURVE",
"562 522 OFFCURVE",
"518 546 OFFCURVE",
"455 546 CURVE SMOOTH",
"395 546 OFFCURVE",
"352 521 OFFCURVE",
"325 471 CURVE",
"298 521 OFFCURVE",
"260 546 OFFCURVE",
"208 546 CURVE SMOOTH",
"103 546 OFFCURVE",
"42 493 OFFCURVE",
"42 388 CURVE SMOOTH",
"42 313 OFFCURVE",
"105 238 OFFCURVE",
"196 234 CURVE",
"205 293 LINE",
"159 306 OFFCURVE",
"136 338 OFFCURVE",
"136 391 CURVE SMOOTH",
"136 444 OFFCURVE",
"161 470 OFFCURVE",
"208 470 CURVE SMOOTH",
"256 470 OFFCURVE",
"280 438 OFFCURVE",
"280 375 CURVE SMOOTH",
"280 0 LINE"
);
}
);
width = 938;
},
{
layerId = "791C41F8-8E37-43C9-BD6C-904761E149BF";
paths = (
{
closed = 1;
nodes = (
"479 0 LINE",
"479 342 LINE SMOOTH",
"479 398 OFFCURVE",
"508 426 OFFCURVE",
"562 426 CURVE SMOOTH",
"616 426 OFFCURVE",
"644 399 OFFCURVE",
"644 345 CURVE SMOOTH",
"644 0 LINE",
"774 0 LINE",
"774 342 LINE SMOOTH",
"774 398 OFFCURVE",
"803 426 OFFCURVE",
"859 426 CURVE SMOOTH",
"916 426 OFFCURVE",
"943 399 OFFCURVE",
"943 345 CURVE SMOOTH",
"943 0 LINE",
"1074 0 LINE",
"1074 354 LINE SMOOTH",
"1074 482 OFFCURVE",
"1007 546 OFFCURVE",
"872 546 CURVE SMOOTH",
"796 546 OFFCURVE",
"743 518 OFFCURVE",
"712 463 CURVE",
"681 518 OFFCURVE",
"631 546 OFFCURVE",
"562 546 CURVE SMOOTH",
"496 546 OFFCURVE",
"447 518 OFFCURVE",
"416 463 CURVE",
"384 518 OFFCURVE",
"330 546 OFFCURVE",
"252 546 CURVE SMOOTH",
"136 546 OFFCURVE",
"59 470 OFFCURVE",
"59 346 CURVE SMOOTH",
"59 228 OFFCURVE",
"139 165 OFFCURVE",
"255 146 CURVE",
"273 244 LINE",
"214 257 OFFCURVE",
"185 290 OFFCURVE",
"185 342 CURVE SMOOTH",
"185 398 OFFCURVE",
"213 426 OFFCURVE",
"267 426 CURVE SMOOTH",
"321 426 OFFCURVE",
"349 399 OFFCURVE",
"349 345 CURVE SMOOTH",
"349 0 LINE"
);
}
);
width = 1123;
}
);
note = ga;
unicode = A992;
category = Letter;
},
{
glyphname = gha;
lastChange = "2018-12-13 17:24:08 +0000";
layers = (
{
layerId = "BA48FBA0-A6DA-4EAF-9284-46C574130433";
paths = (
{
closed = 1;
nodes = (
"240 68 LINE",
"190 76 OFFCURVE",
"165 104 OFFCURVE",
"165 154 CURVE SMOOTH",
"165 391 LINE SMOOTH",
"165 444 OFFCURVE",
"190 470 OFFCURVE",
"237 470 CURVE SMOOTH",
"279 470 OFFCURVE",
"310 441 OFFCURVE",
"310 394 CURVE SMOOTH",
"310 0 LINE",
"396 0 LINE",
"396 391 LINE SMOOTH",
"396 444 OFFCURVE",
"421 470 OFFCURVE",
"469 470 CURVE SMOOTH",
"517 470 OFFCURVE",
"541 445 OFFCURVE",
"541 394 CURVE SMOOTH",
"541 156 LINE SMOOTH",
"541 52 OFFCURVE",
"591 0 OFFCURVE",
"683 0 CURVE SMOOTH",
"729 0 OFFCURVE",
"762 21 OFFCURVE",
"782 63 CURVE",
"802 21 OFFCURVE",
"835 0 OFFCURVE",
"880 0 CURVE SMOOTH",
"972 0 OFFCURVE",
"1022 52 OFFCURVE",
"1022 156 CURVE SMOOTH",
"1022 321 LINE SMOOTH",
"1022 404 OFFCURVE",
"995 454 OFFCURVE",
"940 470 CURVE",
"1049 470 LINE SMOOTH",
"1098 470 OFFCURVE",
"1122 444 OFFCURVE",
"1122 391 CURVE SMOOTH",
"1122 0 LINE",
"1209 0 LINE",
"1209 387 LINE SMOOTH",
"1209 492 OFFCURVE",
"1155 546 OFFCURVE",
"1049 546 CURVE SMOOTH",
"794 546 LINE",
"794 479 LINE",
"888 473 OFFCURVE",
"936 415 OFFCURVE",
"936 305 CURVE SMOOTH",
"936 134 LINE SMOOTH",
"936 94 OFFCURVE",
"916 72 OFFCURVE",
"880 72 CURVE SMOOTH",
"845 72 OFFCURVE",
"825 94 OFFCURVE",
"825 134 CURVE SMOOTH",
"825 213 LINE",
"738 213 LINE",
"738 132 LINE SMOOTH",
"738 92 OFFCURVE",
"719 72 OFFCURVE",
"683 72 CURVE SMOOTH",
"647 72 OFFCURVE",
"628 92 OFFCURVE",
"628 132 CURVE SMOOTH",
"628 393 LINE SMOOTH",
"628 495 OFFCURVE",
"577 546 OFFCURVE",
"474 546 CURVE SMOOTH",
"421 546 OFFCURVE",
"382 525 OFFCURVE",
"356 483 CURVE",
"332 522 OFFCURVE",
"287 546 OFFCURVE",
"237 546 CURVE SMOOTH",
"131 546 OFFCURVE",
"78 493 OFFCURVE",
"78 388 CURVE SMOOTH",
"78 150 LINE SMOOTH",
"78 56 OFFCURVE",
"132 10 OFFCURVE",
"222 0 CURVE"
);
}
);
width = 1258;
},
{
layerId = "791C41F8-8E37-43C9-BD6C-904761E149BF";
paths = (
{
closed = 1;
nodes = (
"299 93 LINE",
"239 101 OFFCURVE",
"209 129 OFFCURVE",
"209 178 CURVE SMOOTH",
"209 347 LINE SMOOTH",
"209 400 OFFCURVE",
"233 426 OFFCURVE",
"279 426 CURVE SMOOTH",
"326 426 OFFCURVE",
"349 401 OFFCURVE",
"349 350 CURVE SMOOTH",
"349 0 LINE",
"479 0 LINE",
"479 347 LINE SMOOTH",
"479 400 OFFCURVE",
"503 426 OFFCURVE",
"547 426 CURVE SMOOTH",
"592 426 OFFCURVE",
"614 401 OFFCURVE",
"614 350 CURVE SMOOTH",
"614 173 LINE SMOOTH",
"614 59 OFFCURVE",
"674 0 OFFCURVE",
"786 0 CURVE SMOOTH",
"854 0 OFFCURVE",
"905 24 OFFCURVE",
"938 72 CURVE",
"971 24 OFFCURVE",
"1022 0 OFFCURVE",
"1090 0 CURVE SMOOTH",
"1202 0 OFFCURVE",
"1262 60 OFFCURVE",
"1262 174 CURVE SMOOTH",
"1262 215 LINE SMOOTH",
"1262 325 OFFCURVE",
"1224 396 OFFCURVE",
"1156 421 CURVE",
"1270 421 LINE SMOOTH",
"1328 421 OFFCURVE",
"1357 395 OFFCURVE",
"1357 342 CURVE SMOOTH",
"1357 0 LINE",
"1488 0 LINE",
"1488 392 LINE SMOOTH",
"1488 494 OFFCURVE",
"1418 546 OFFCURVE",
"1280 546 CURVE SMOOTH",
"976 546 LINE",
"976 425 LINE",
"1072 421 OFFCURVE",
"1131 356 OFFCURVE",
"1131 249 CURVE SMOOTH",
"1131 183 LINE SMOOTH",
"1131 143 OFFCURVE",
"1107 121 OFFCURVE",
"1066 121 CURVE SMOOTH",
"1024 121 OFFCURVE",
"1001 142 OFFCURVE",
"1001 182 CURVE SMOOTH",
"1001 272 LINE",
"875 272 LINE",
"875 182 LINE SMOOTH",
"875 142 OFFCURVE",
"852 121 OFFCURVE",
"810 121 CURVE SMOOTH",
"769 121 OFFCURVE",
"745 142 OFFCURVE",
"745 182 CURVE SMOOTH",
"745 349 LINE SMOOTH",
"745 480 OFFCURVE",
"686 546 OFFCURVE",
"567 546 CURVE SMOOTH",
"499 546 OFFCURVE",
"448 521 OFFCURVE",
"415 469 CURVE",
"382 521 OFFCURVE",
"331 546 OFFCURVE",
"262 546 CURVE SMOOTH",
"140 546 OFFCURVE",
"78 479 OFFCURVE",
"78 344 CURVE SMOOTH",
"78 173 LINE SMOOTH",
"78 60 OFFCURVE",
"154 5 OFFCURVE",
"280 0 CURVE"
);
}
);
width = 1537;
}
);
note = gha;
unicode = A993;
category = Letter;
},
{
glyphname = nga;
lastChange = "2018-12-13 17:24:08 +0000";
layers = (
{
layerId = "BA48FBA0-A6DA-4EAF-9284-46C574130433";
paths = (
{
closed = 1;
nodes = (
"927 0 LINE",
"927 390 LINE SMOOTH",
"927 493 OFFCURVE",
"881 546 OFFCURVE",
"792 546 CURVE SMOOTH",
"739 546 OFFCURVE",
"704 526 OFFCURVE",
"686 485 CURVE",
"663 527 OFFCURVE",
"628 548 OFFCURVE",
"581 548 CURVE SMOOTH",
"500 548 OFFCURVE",
"455 503 OFFCURVE",
"455 434 CURVE SMOOTH",
"455 362 OFFCURVE",
"495 318 OFFCURVE",
"574 301 CURVE",
"603 360 LINE",
"558 373 OFFCURVE",
"535 395 OFFCURVE",
"535 428 CURVE SMOOTH",
"535 456 OFFCURVE",
"552 473 OFFCURVE",
"579 473 CURVE SMOOTH",
"617 473 OFFCURVE",
"641 441 OFFCURVE",
"647 384 CURVE",
"715 384 LINE",
"722 441 OFFCURVE",
"745 470 OFFCURVE",
"783 470 CURVE SMOOTH",
"821 470 OFFCURVE",
"840 445 OFFCURVE",
"840 394 CURVE SMOOTH",
"840 0 LINE"
);
},
{
closed = 1;
nodes = (
"676 0 LINE",
"693 30 LINE",
"563 219 LINE",
"469 219 LINE",
"575 68 LINE",
"455 68 LINE SMOOTH",
"416 68 OFFCURVE",
"396 89 OFFCURVE",
"396 131 CURVE SMOOTH",
"396 393 LINE SMOOTH",
"396 495 OFFCURVE",
"344 546 OFFCURVE",
"238 546 CURVE SMOOTH",
"132 546 OFFCURVE",
"78 493 OFFCURVE",
"78 388 CURVE SMOOTH",
"78 149 LINE SMOOTH",
"78 53 OFFCURVE",
"137 9 OFFCURVE",
"222 0 CURVE",
"240 68 LINE",
"190 76 OFFCURVE",
"165 104 OFFCURVE",
"165 154 CURVE SMOOTH",
"165 391 LINE SMOOTH",
"165 444 OFFCURVE",
"190 470 OFFCURVE",
"238 470 CURVE SMOOTH",
"286 470 OFFCURVE",
"310 445 OFFCURVE",
"310 394 CURVE SMOOTH",
"310 133 LINE SMOOTH",
"310 45 OFFCURVE",
"357 0 OFFCURVE",
"450 0 CURVE SMOOTH"
);
}
);
width = 976;
},
{
layerId = "791C41F8-8E37-43C9-BD6C-904761E149BF";
paths = (
{
closed = 1;
nodes = (
"1106 0 LINE",
"1106 361 LINE SMOOTH",
"1106 483 OFFCURVE",
"1048 546 OFFCURVE",
"933 546 CURVE SMOOTH",
"867 546 OFFCURVE",
"825 522 OFFCURVE",
"807 476 CURVE",
"784 524 OFFCURVE",
"736 548 OFFCURVE",
"663 548 CURVE SMOOTH",
"578 548 OFFCURVE",
"518 490 OFFCURVE",
"518 410 CURVE SMOOTH",
"518 322 OFFCURVE",
"570 271 OFFCURVE",
"676 257 CURVE",
"704 326 LINE",
"659 338 OFFCURVE",
"637 357 OFFCURVE",
"637 384 CURVE SMOOTH",
"637 410 OFFCURVE",
"655 424 OFFCURVE",
"685 424 CURVE SMOOTH",
"726 424 OFFCURVE",
"752 393 OFFCURVE",
"759 335 CURVE",
"851 335 LINE",
"858 393 OFFCURVE",
"879 421 OFFCURVE",
"914 421 CURVE SMOOTH",
"955 421 OFFCURVE",
"976 399 OFFCURVE",
"976 355 CURVE SMOOTH",
"976 0 LINE"
);
},
{
closed = 1;
nodes = (
"797 0 LINE",
"814 30 LINE",
"694 219 LINE",
"605 219 LINE",
"662 122 LINE",
"553 122 LINE SMOOTH",
"507 122 OFFCURVE",
"484 145 OFFCURVE",
"484 190 CURVE SMOOTH",
"484 349 LINE SMOOTH",
"484 480 OFFCURVE",
"417 546 OFFCURVE",
"282 546 CURVE SMOOTH",
"146 546 OFFCURVE",
"78 479 OFFCURVE",
"78 344 CURVE SMOOTH",
"78 173 LINE SMOOTH",
"78 60 OFFCURVE",
"154 5 OFFCURVE",
"280 0 CURVE",
"299 93 LINE",
"239 101 OFFCURVE",
"209 129 OFFCURVE",
"209 178 CURVE SMOOTH",
"209 347 LINE SMOOTH",
"209 396 OFFCURVE",
"234 421 OFFCURVE",
"282 421 CURVE SMOOTH",
"330 421 OFFCURVE",
"354 397 OFFCURVE",
"354 350 CURVE SMOOTH",
"354 187 LINE SMOOTH",
"354 63 OFFCURVE",
"421 0 OFFCURVE",
"558 0 CURVE SMOOTH"
);
}
);
width = 1155;
}
);
note = nga;
unicode = A994;
category = Letter;
},
{
glyphname = ca;
lastChange = "2018-12-13 17:24:08 +0000";
layers = (
{
layerId = "BA48FBA0-A6DA-4EAF-9284-46C574130433";
paths = (
{
closed = 1;
nodes = (
"240 68 LINE",
"190 76 OFFCURVE",
"165 104 OFFCURVE",
"165 154 CURVE SMOOTH",
"165 350 LINE SMOOTH",
"165 430 OFFCURVE",
"207 470 OFFCURVE",
"291 470 CURVE SMOOTH",
"375 470 OFFCURVE",
"417 429 OFFCURVE",
"417 347 CURVE SMOOTH",
"417 233 LINE",
"405 235 OFFCURVE",
"394 236 OFFCURVE",
"383 236 CURVE SMOOTH",
"310 236 OFFCURVE",
"266 190 OFFCURVE",
"266 118 CURVE SMOOTH",
"266 44 OFFCURVE",
"309 0 OFFCURVE",
"383 0 CURVE SMOOTH",
"458 0 OFFCURVE",
"504 46 OFFCURVE",
"504 121 CURVE",
"588 55 LINE SMOOTH",
"634 19 OFFCURVE",
"675 0 OFFCURVE",
"718 0 CURVE SMOOTH",
"776 0 OFFCURVE",
"808 43 OFFCURVE",
"808 124 CURVE SMOOTH",
"808 321 LINE SMOOTH",
"808 405 OFFCURVE",
"780 454 OFFCURVE",
"725 470 CURVE",
"834 470 LINE SMOOTH",
"883 470 OFFCURVE",
"907 444 OFFCURVE",
"907 391 CURVE SMOOTH",
"907 0 LINE",
"994 0 LINE",
"994 388 LINE SMOOTH",
"994 493 OFFCURVE",
"940 546 OFFCURVE",
"834 546 CURVE SMOOTH",
"579 546 LINE",
"579 479 LINE",
"673 473 OFFCURVE",
"721 415 OFFCURVE",
"721 305 CURVE SMOOTH",
"721 132 LINE SMOOTH",
"721 106 OFFCURVE",
"712 92 OFFCURVE",
"695 92 CURVE SMOOTH",
"678 92 OFFCURVE",
"663 98 OFFCURVE",
"646 111 CURVE SMOOTH",
"504 220 LINE",
"504 344 LINE SMOOTH",
"504 479 OFFCURVE",
"432 546 OFFCURVE",
"291 546 CURVE SMOOTH",
"149 546 OFFCURVE",
"78 480 OFFCURVE",
"78 349 CURVE SMOOTH",
"78 150 LINE SMOOTH",
"78 57 OFFCURVE",
"132 10 OFFCURVE",
"222 0 CURVE"
);
},
{
closed = 1;
nodes = (
"354 66 OFFCURVE",
"342 83 OFFCURVE",
"342 112 CURVE SMOOTH",
"342 117 LINE SMOOTH",
"342 150 OFFCURVE",
"357 167 OFFCURVE",
"389 167 CURVE SMOOTH",
"397 167 OFFCURVE",
"407 165 OFFCURVE",
"417 162 CURVE",
"417 116 LINE SMOOTH",
"417 83 OFFCURVE",
"404 66 OFFCURVE",
"379 66 CURVE SMOOTH"
);
}
);
width = 1043;
},
{
layerId = "791C41F8-8E37-43C9-BD6C-904761E149BF";
paths = (
{
closed = 1;
nodes = (
"299 93 LINE",
"242 101 OFFCURVE",
"214 129 OFFCURVE",
"214 178 CURVE SMOOTH",
"214 277 LINE SMOOTH",
"214 373 OFFCURVE",
"266 421 OFFCURVE",
"369 421 CURVE SMOOTH",
"475 421 OFFCURVE",
"528 373 OFFCURVE",
"528 277 CURVE SMOOTH",
"528 271 LINE",
"510 273 OFFCURVE",
"496 274 OFFCURVE",
"485 274 CURVE SMOOTH",
"391 274 OFFCURVE",
"329 226 OFFCURVE",
"329 137 CURVE SMOOTH",
"329 46 OFFCURVE",
"396 0 OFFCURVE",
"487 0 CURVE SMOOTH",
"590 0 OFFCURVE",
"655 42 OFFCURVE",
"659 125 CURVE",
"721 66 LINE SMOOTH",
"767 22 OFFCURVE",
"811 -1 OFFCURVE",
"854 -1 CURVE SMOOTH",
"926 -1 OFFCURVE",
"963 42 OFFCURVE",
"963 123 CURVE SMOOTH",
"963 220 LINE SMOOTH",
"963 327 OFFCURVE",
"928 396 OFFCURVE",
"861 421 CURVE",
"990 421 LINE SMOOTH",
"1047 421 OFFCURVE",
"1077 395 OFFCURVE",
"1077 342 CURVE SMOOTH",
"1077 0 LINE",
"1208 0 LINE",
"1208 393 LINE",
"1208 495 OFFCURVE",
"1138 546 OFFCURVE",
"1000 546 CURVE SMOOTH",
"681 546 LINE",
"681 425 LINE",
"785 419 OFFCURVE",
"837 354 OFFCURVE",
"837 228 CURVE SMOOTH",
"837 161 LINE SMOOTH",
"837 134 OFFCURVE",
"828 121 OFFCURVE",
"811 121 CURVE SMOOTH",
"801 121 OFFCURVE",
"790 127 OFFCURVE",
"777 140 CURVE SMOOTH",
"660 253 LINE",
"660 277 LINE SMOOTH",
"660 456 OFFCURVE",
"563 546 OFFCURVE",
"369 546 CURVE SMOOTH",
"175 546 OFFCURVE",
"78 456 OFFCURVE",
"78 276 CURVE SMOOTH",
"78 173 LINE SMOOTH",
"78 60 OFFCURVE",
"154 5 OFFCURVE",
"280 0 CURVE"
);
},
{
closed = 1;
nodes = (
"458 95 OFFCURVE",
"444 109 OFFCURVE",
"444 136 CURVE SMOOTH",
"444 136 LINE SMOOTH",
"444 169 OFFCURVE",
"460 186 OFFCURVE",
"491 186 CURVE SMOOTH",
"500 186 OFFCURVE",
"512 185 OFFCURVE",
"529 182 CURVE",
"529 141 LINE SMOOTH",
"529 110 OFFCURVE",
"515 95 OFFCURVE",
"487 95 CURVE SMOOTH"
);
}
);
width = 1257;
}
);
note = ca;
unicode = A995;
category = Letter;
},
{
glyphname = cha;
lastChange = "2018-12-13 17:24:08 +0000";
layers = (
{
layerId = "BA48FBA0-A6DA-4EAF-9284-46C574130433";
paths = (
{
closed = 1;
nodes = (
"344 0 OFFCURVE",
"396 51 OFFCURVE",
"396 153 CURVE SMOOTH",
"396 416 LINE SMOOTH",
"396 452 OFFCURVE",
"413 470 OFFCURVE",
"445 470 CURVE SMOOTH",
"477 470 OFFCURVE",
"492 453 OFFCURVE",
"492 418 CURVE SMOOTH",
"492 138 LINE SMOOTH",
"492 46 OFFCURVE",
"538 0 OFFCURVE",
"627 0 CURVE SMOOTH",
"717 0 OFFCURVE",
"762 44 OFFCURVE",
"762 133 CURVE SMOOTH",
"762 416 LINE SMOOTH",
"762 452 OFFCURVE",
"778 470 OFFCURVE",
"810 470 CURVE SMOOTH",
"842 470 OFFCURVE",
"857 453 OFFCURVE",
"857 418 CURVE SMOOTH",
"857 138 LINE SMOOTH",
"857 46 OFFCURVE",
"903 0 OFFCURVE",
"993 0 CURVE SMOOTH",
"1082 0 OFFCURVE",
"1127 44 OFFCURVE",
"1127 133 CURVE SMOOTH",
"1127 327 LINE SMOOTH",
"1127 415 OFFCURVE",
"1170 467 OFFCURVE",
"1248 467 CURVE SMOOTH",
"1314 467 OFFCURVE",
"1347 444 OFFCURVE",
"1347 399 CURVE SMOOTH",
"1347 334 OFFCURVE",
"1311 302 OFFCURVE",
"1239 302 CURVE SMOOTH",
"1191 302 LINE",
"1191 230 LINE",
"1237 230 LINE SMOOTH",
"1323 230 OFFCURVE",
"1368 198 OFFCURVE",
"1368 139 CURVE SMOOTH",
"1368 101 OFFCURVE",
"1341 79 OFFCURVE",
"1300 79 CURVE SMOOTH",
"1261 79 OFFCURVE",
"1225 93 OFFCURVE",
"1189 121 CURVE",
"1159 51 LINE",
"1204 18 OFFCURVE",
"1251 0 OFFCURVE",
"1300 0 CURVE SMOOTH",
"1387 0 OFFCURVE",
"1450 46 OFFCURVE",
"1450 141 CURVE SMOOTH",
"1450 203 OFFCURVE",
"1412 244 OFFCURVE",
"1335 263 CURVE",
"1335 268 LINE",
"1392 292 OFFCURVE",
"1435 335 OFFCURVE",
"1435 399 CURVE SMOOTH",
"1435 497 OFFCURVE",
"1361 545 OFFCURVE",
"1258 545 CURVE SMOOTH",
"1129 545 OFFCURVE",
"1040 459 OFFCURVE",
"1040 334 CURVE SMOOTH",
"1040 132 LINE SMOOTH",
"1040 95 OFFCURVE",
"1024 76 OFFCURVE",
"993 76 CURVE SMOOTH",
"961 76 OFFCURVE",
"944 97 OFFCURVE",
"944 136 CURVE SMOOTH",
"944 417 LINE SMOOTH",
"944 503 OFFCURVE",
"899 546 OFFCURVE",
"810 546 CURVE SMOOTH",
"721 546 OFFCURVE",
"675 501 OFFCURVE",
"675 413 CURVE SMOOTH",
"675 132 LINE SMOOTH",
"675 95 OFFCURVE",
"659 76 OFFCURVE",
"627 76 CURVE SMOOTH",
"596 76 OFFCURVE",
"579 96 OFFCURVE",
"579 135 CURVE SMOOTH",
"579 417 LINE SMOOTH",
"579 503 OFFCURVE",
"534 546 OFFCURVE",
"445 546 CURVE SMOOTH",
"355 546 OFFCURVE",
"310 502 OFFCURVE",
"310 414 CURVE SMOOTH",
"310 152 LINE SMOOTH",
"310 101 OFFCURVE",
"286 76 OFFCURVE",
"238 76 CURVE SMOOTH",
"190 76 OFFCURVE",
"165 102 OFFCURVE",
"165 155 CURVE SMOOTH",
"165 392 LINE SMOOTH",
"165 441 OFFCURVE",
"190 470 OFFCURVE",
"240 478 CURVE",
"222 546 LINE",
"133 536 OFFCURVE",
"78 491 OFFCURVE",
"78 394 CURVE SMOOTH",
"78 158 LINE SMOOTH",
"78 53 OFFCURVE",
"132 0 OFFCURVE",
"238 0 CURVE SMOOTH"
);
}
);
width = 1479;
},
{
layerId = "791C41F8-8E37-43C9-BD6C-904761E149BF";
paths = (
{
closed = 1;
nodes = (
"399 0 OFFCURVE",
"465 69 OFFCURVE",
"465 207 CURVE SMOOTH",
"465 342 LINE SMOOTH",
"465 395 OFFCURVE",
"486 421 OFFCURVE",
"528 421 CURVE SMOOTH",
"569 421 OFFCURVE",
"590 396 OFFCURVE",
"590 345 CURVE SMOOTH",
"590 202 LINE SMOOTH",
"590 67 OFFCURVE",
"654 0 OFFCURVE",
"783 0 CURVE SMOOTH",
"911 0 OFFCURVE",
"977 70 OFFCURVE",
"977 208 CURVE SMOOTH",
"977 342 LINE SMOOTH",
"977 395 OFFCURVE",
"998 421 OFFCURVE",
"1040 421 CURVE SMOOTH",
"1081 421 OFFCURVE",
"1102 396 OFFCURVE",
"1102 345 CURVE SMOOTH",
"1102 202 LINE SMOOTH",
"1102 67 OFFCURVE",
"1166 0 OFFCURVE",
"1294 0 CURVE SMOOTH",
"1423 0 OFFCURVE",
"1488 69 OFFCURVE",
"1488 207 CURVE SMOOTH",
"1488 308 LINE SMOOTH",
"1488 380 OFFCURVE",
"1527 417 OFFCURVE",
"1599 417 CURVE SMOOTH",
"1649 417 OFFCURVE",
"1683 399 OFFCURVE",
"1683 372 CURVE SMOOTH",
"1683 344 OFFCURVE",
"1660 331 OFFCURVE",
"1614 331 CURVE SMOOTH",
"1566 331 LINE",
"1566 200 LINE",
"1598 200 LINE SMOOTH",
"1657 200 OFFCURVE",
"1689 185 OFFCURVE",
"1689 155 CURVE SMOOTH",
"1689 136 OFFCURVE",
"1674 123 OFFCURVE",
"1642 123 CURVE SMOOTH",
"1616 123 OFFCURVE",
"1585 133 OFFCURVE",
"1550 155 CURVE",
"1520 51 LINE",
"1564 17 OFFCURVE",
"1611 0 OFFCURVE",
"1661 0 CURVE SMOOTH",
"1751 0 OFFCURVE",
"1825 49 OFFCURVE",
"1825 141 CURVE SMOOTH",
"1825 200 OFFCURVE",
"1787 238 OFFCURVE",
"1710 257 CURVE",
"1710 263 LINE",
"1775 274 OFFCURVE",
"1824 312 OFFCURVE",
"1824 387 CURVE SMOOTH",
"1824 497 OFFCURVE",
"1723 546 OFFCURVE",
"1600 546 CURVE SMOOTH",
"1439 546 OFFCURVE",
"1357 466 OFFCURVE",
"1357 305 CURVE SMOOTH",
"1357 204 LINE SMOOTH",
"1357 151 OFFCURVE",
"1336 125 OFFCURVE",
"1294 125 CURVE SMOOTH",
"1253 125 OFFCURVE",
"1232 150 OFFCURVE",
"1232 201 CURVE SMOOTH",
"1232 344 LINE SMOOTH",
"1232 479 OFFCURVE",
"1168 546 OFFCURVE",
"1040 546 CURVE SMOOTH",
"911 546 OFFCURVE",
"846 477 OFFCURVE",
"846 339 CURVE SMOOTH",
"846 204 LINE SMOOTH",
"846 151 OFFCURVE",
"824 125 OFFCURVE",
"783 125 CURVE SMOOTH",
"741 125 OFFCURVE",
"721 150 OFFCURVE",
"721 201 CURVE SMOOTH",
"721 344 LINE SMOOTH",
"721 479 OFFCURVE",
"656 546 OFFCURVE",
"528 546 CURVE SMOOTH",
"399 546 OFFCURVE",
"334 477 OFFCURVE",
"334 339 CURVE SMOOTH",
"334 204 LINE SMOOTH",
"334 151 OFFCURVE",
"313 125 OFFCURVE",
"271 125 CURVE SMOOTH",
"229 125 OFFCURVE",
"209 150 OFFCURVE",
"209 201 CURVE SMOOTH",
"209 346 LINE SMOOTH",
"209 410 OFFCURVE",
"243 442 OFFCURVE",
"312 442 CURVE",
"312 549 LINE",
"156 549 OFFCURVE",
"78 479 OFFCURVE",
"78 340 CURVE SMOOTH",
"78 202 LINE SMOOTH",
"78 67 OFFCURVE",
"143 0 OFFCURVE",
"271 0 CURVE SMOOTH"
);
}
);
width = 1865;
}
);
note = cha;
unicode = A996;
category = Letter;
},
{
glyphname = ja;
lastChange = "2018-12-13 17:24:08 +0000";
layers = (
{
layerId = "BA48FBA0-A6DA-4EAF-9284-46C574130433";
paths = (
{
closed = 1;
nodes = (
"240 68 LINE",
"190 76 OFFCURVE",
"165 104 OFFCURVE",
"165 154 CURVE SMOOTH",
"165 391 LINE SMOOTH",
"165 444 OFFCURVE",
"190 470 OFFCURVE",
"238 470 CURVE SMOOTH",
"286 470 OFFCURVE",
"310 445 OFFCURVE",
"310 394 CURVE SMOOTH",
"310 133 LINE SMOOTH",
"310 45 OFFCURVE",
"356 0 OFFCURVE",
"450 0 CURVE SMOOTH",
"732 0 LINE",
"732 68 LINE",
"634 101 OFFCURVE",
"580 142 OFFCURVE",
"569 193 CURVE",
"714 193 LINE SMOOTH",
"796 193 OFFCURVE",
"851 158 OFFCURVE",
"851 72 CURVE SMOOTH",
"851 0 LINE",
"938 0 LINE",
"938 93 LINE SMOOTH",
"938 195 OFFCURVE",
"856 254 OFFCURVE",
"707 254 CURVE SMOOTH",
"611 254 LINE",
"942 439 LINE",
"942 536 LINE",
"720 536 LINE SMOOTH",
"567 536 OFFCURVE",
"489 457 OFFCURVE",
"489 297 CURVE SMOOTH",
"489 271 LINE SMOOTH",
"489 168 OFFCURVE",
"525 100 OFFCURVE",
"599 68 CURVE",
"455 68 LINE SMOOTH",
"416 68 OFFCURVE",
"396 89 OFFCURVE",
"396 131 CURVE SMOOTH",
"396 393 LINE SMOOTH",
"396 495 OFFCURVE",
"344 546 OFFCURVE",
"238 546 CURVE SMOOTH",
"132 546 OFFCURVE",
"78 493 OFFCURVE",
"78 388 CURVE SMOOTH",
"78 150 LINE SMOOTH",
"78 57 OFFCURVE",
"132 10 OFFCURVE",
"222 0 CURVE"
);
},
{
closed = 1;
nodes = (
"569 332 LINE SMOOTH",
"569 414 OFFCURVE",
"622 473 OFFCURVE",
"715 473 CURVE SMOOTH",
"846 473 LINE",
"569 300 LINE"
);
}
);
width = 991;
},
{
layerId = "791C41F8-8E37-43C9-BD6C-904761E149BF";
paths = (
{
closed = 1;
nodes = (
"299 93 LINE",
"239 101 OFFCURVE",
"209 129 OFFCURVE",
"209 178 CURVE SMOOTH",
"209 347 LINE SMOOTH",
"209 396 OFFCURVE",
"234 421 OFFCURVE",
"282 421 CURVE SMOOTH",
"330 421 OFFCURVE",
"354 397 OFFCURVE",
"354 350 CURVE SMOOTH",
"354 187 LINE SMOOTH",
"354 63 OFFCURVE",
"422 0 OFFCURVE",
"559 0 CURVE SMOOTH",
"832 0 LINE",
"832 83 LINE",
"761 109 OFFCURVE",
"713 146 OFFCURVE",
"688 193 CURVE",
"792 193 LINE SMOOTH",
"880 193 OFFCURVE",
"932 148 OFFCURVE",
"932 49 CURVE SMOOTH",
"932 0 LINE",
"1063 0 LINE",
"1063 93 LINE SMOOTH",
"1063 208 OFFCURVE",
"973 269 OFFCURVE",
"814 269 CURVE SMOOTH",
"750 269 LINE",
"1067 400 LINE",
"1067 536 LINE",
"815 536 LINE SMOOTH",
"646 536 OFFCURVE",
"560 461 OFFCURVE",
"560 312 CURVE SMOOTH",
"560 312 LINE SMOOTH",
"560 224 OFFCURVE",
"586 160 OFFCURVE",
"641 122 CURVE",
"553 122 LINE SMOOTH",
"507 122 OFFCURVE",
"484 145 OFFCURVE",
"484 190 CURVE SMOOTH",
"484 349 LINE SMOOTH",
"484 480 OFFCURVE",
"417 546 OFFCURVE",
"282 546 CURVE SMOOTH",
"146 546 OFFCURVE",
"78 479 OFFCURVE",
"78 344 CURVE SMOOTH",
"78 173 LINE SMOOTH",
"78 60 OFFCURVE",
"154 5 OFFCURVE",
"280 0 CURVE"
);
},
{
closed = 1;
nodes = (
"670 309 LINE",
"670 386 OFFCURVE",
"714 424 OFFCURVE",
"802 424 CURVE SMOOTH",
"931 424 LINE",
"670 309 LINE"
);
}
);
width = 1116;
}
);
note = ja;
unicode = A997;
category = Letter;
},
{
glyphname = jnya;
lastChange = "2018-12-13 17:24:08 +0000";
layers = (
{
layerId = "BA48FBA0-A6DA-4EAF-9284-46C574130433";
paths = (
{
closed = 1;
nodes = (
"739 -278 LINE",
"734 -152 OFFCURVE",
"680 -88 OFFCURVE",
"576 -88 CURVE SMOOTH",
"490 -88 LINE",
"521 0 LINE",
"732 0 LINE",
"732 68 LINE",
"634 101 OFFCURVE",
"580 142 OFFCURVE",
"569 193 CURVE",
"714 193 LINE SMOOTH",
"796 193 OFFCURVE",
"851 158 OFFCURVE",
"851 72 CURVE SMOOTH",
"851 0 LINE",
"938 0 LINE",
"938 93 LINE SMOOTH",
"938 197 OFFCURVE",
"855 254 OFFCURVE",
"706 254 CURVE SMOOTH",
"611 254 LINE",
"942 439 LINE",
"942 536 LINE",
"720 536 LINE SMOOTH",
"567 536 OFFCURVE",
"489 457 OFFCURVE",
"489 297 CURVE SMOOTH",
"489 271 LINE SMOOTH",
"489 168 OFFCURVE",
"525 100 OFFCURVE",
"599 68 CURVE",
"455 68 LINE SMOOTH",
"416 68 OFFCURVE",
"396 89 OFFCURVE",
"396 131 CURVE SMOOTH",
"396 393 LINE SMOOTH",
"396 495 OFFCURVE",
"344 546 OFFCURVE",
"238 546 CURVE SMOOTH",
"132 546 OFFCURVE",
"78 493 OFFCURVE",
"78 388 CURVE SMOOTH",
"78 149 LINE SMOOTH",
"78 56 OFFCURVE",
"133 10 OFFCURVE",
"222 0 CURVE",
"240 68 LINE",
"190 76 OFFCURVE",
"165 104 OFFCURVE",
"165 154 CURVE SMOOTH",
"165 391 LINE SMOOTH",
"165 444 OFFCURVE",
"190 470 OFFCURVE",
"238 470 CURVE SMOOTH",
"286 470 OFFCURVE",
"310 445 OFFCURVE",
"310 394 CURVE SMOOTH",
"310 133 LINE SMOOTH",
"310 49 OFFCURVE",
"353 4 OFFCURVE",
"439 0 CURVE",
"394 -129 LINE",
"408 -161 LINE",
"566 -161 LINE SMOOTH",
"629 -161 OFFCURVE",
"661 -200 OFFCURVE",
"661 -278 CURVE"
);
},
{
closed = 1;
nodes = (
"569 332 LINE SMOOTH",
"569 414 OFFCURVE",
"621 473 OFFCURVE",
"714 473 CURVE SMOOTH",
"846 473 LINE",
"569 300 LINE"
);
}
);
width = 991;
},
{
layerId = "791C41F8-8E37-43C9-BD6C-904761E149BF";
paths = (
{
closed = 1;
nodes = (
"842 -313 LINE",
"837 -157 OFFCURVE",
"771 -79 OFFCURVE",
"645 -79 CURVE SMOOTH",
"537 -79 LINE",
"570 0 LINE",
"832 0 LINE",
"832 83 LINE",
"761 109 OFFCURVE",
"713 146 OFFCURVE",
"688 193 CURVE",
"793 193 LINE SMOOTH",
"881 193 OFFCURVE",
"932 147 OFFCURVE",
"932 49 CURVE SMOOTH",
"932 0 LINE",
"1063 0 LINE",
"1063 96 LINE SMOOTH",
"1063 208 OFFCURVE",
"971 269 OFFCURVE",
"812 269 CURVE SMOOTH",
"750 269 LINE",
"1067 400 LINE",
"1067 536 LINE",
"815 536 LINE SMOOTH",
"646 536 OFFCURVE",
"560 461 OFFCURVE",
"560 312 CURVE SMOOTH",
"560 312 LINE SMOOTH",
"560 224 OFFCURVE",
"586 160 OFFCURVE",
"641 122 CURVE",
"553 122 LINE SMOOTH",
"507 122 OFFCURVE",
"484 145 OFFCURVE",
"484 190 CURVE SMOOTH",
"484 349 LINE SMOOTH",
"484 480 OFFCURVE",
"417 546 OFFCURVE",
"282 546 CURVE SMOOTH",
"146 546 OFFCURVE",
"78 479 OFFCURVE",
"78 344 CURVE SMOOTH",
"78 173 LINE SMOOTH",
"78 60 OFFCURVE",
"154 5 OFFCURVE",
"280 0 CURVE",
"299 93 LINE",
"239 101 OFFCURVE",
"209 129 OFFCURVE",
"209 178 CURVE SMOOTH",
"209 347 LINE SMOOTH",
"209 396 OFFCURVE",
"234 421 OFFCURVE",
"282 421 CURVE SMOOTH",
"330 421 OFFCURVE",
"354 397 OFFCURVE",
"354 350 CURVE SMOOTH",
"354 187 LINE SMOOTH",
"354 89 OFFCURVE",
"396 30 OFFCURVE",
"480 9 CURVE",
"399 -165 LINE",
"416 -195 LINE",
"635 -195 LINE SMOOTH",
"698 -195 OFFCURVE",
"729 -234 OFFCURVE",
"730 -313 CURVE"
);
},
{
closed = 1;
nodes = (
"670 309 LINE",
"670 386 OFFCURVE",
"714 424 OFFCURVE",
"802 424 CURVE SMOOTH",
"931 424 LINE",
"670 309 LINE"
);
}
);
width = 1116;
}
);
note = jnya;
unicode = A998;
category = Letter;
},
{
glyphname = jha;
lastChange = "2018-12-13 17:24:08 +0000";
layers = (
{
layerId = "BA48FBA0-A6DA-4EAF-9284-46C574130433";
paths = (
{
closed = 1;
nodes = (
"1002 -829 OFFCURVE",
"1110 -712 OFFCURVE",
"1110 -506 CURVE SMOOTH",
"1110 521 LINE SMOOTH",
"1110 643 OFFCURVE",
"1089 721 OFFCURVE",
"1047 756 CURVE SMOOTH",
"1020 778 OFFCURVE",
"992 790 OFFCURVE",
"963 790 CURVE SMOOTH",
"898 790 OFFCURVE",
"854 753 OFFCURVE",
"854 680 CURVE SMOOTH",
"854 592 OFFCURVE",
"921 541 OFFCURVE",
"1023 503 CURVE",
"1023 -511 LINE SMOOTH",
"1023 -666 OFFCURVE",
"924 -744 OFFCURVE",
"722 -744 CURVE SMOOTH",
"541 -744 OFFCURVE",
"435 -661 OFFCURVE",
"435 -519 CURVE SMOOTH",
"435 -460 OFFCURVE",
"454 -407 OFFCURVE",
"493 -358 CURVE SMOOTH",
"532 -310 OFFCURVE",
"580 -274 OFFCURVE",
"637 -252 CURVE SMOOTH",
"821 -182 OFFCURVE",
"927 -91 OFFCURVE",
"927 5 CURVE SMOOTH",
"927 390 LINE SMOOTH",
"927 493 OFFCURVE",
"881 546 OFFCURVE",
"792 546 CURVE SMOOTH",
"739 546 OFFCURVE",
"704 526 OFFCURVE",
"686 485 CURVE",
"663 527 OFFCURVE",
"627 548 OFFCURVE",
"580 548 CURVE SMOOTH",
"499 548 OFFCURVE",
"455 503 OFFCURVE",
"455 434 CURVE SMOOTH",
"455 361 OFFCURVE",
"495 318 OFFCURVE",
"574 301 CURVE",
"603 360 LINE",
"558 373 OFFCURVE",
"535 395 OFFCURVE",
"535 428 CURVE SMOOTH",
"535 455 OFFCURVE",
"552 473 OFFCURVE",
"579 473 CURVE SMOOTH",
"618 473 OFFCURVE",
"641 441 OFFCURVE",
"647 384 CURVE",
"715 384 LINE",
"722 441 OFFCURVE",
"745 470 OFFCURVE",
"783 470 CURVE SMOOTH",
"821 470 OFFCURVE",
"840 445 OFFCURVE",
"840 394 CURVE SMOOTH",
"840 -7 LINE SMOOTH",
"840 -59 OFFCURVE",
"765 -113 OFFCURVE",
"615 -174 CURVE SMOOTH",
"432 -248 OFFCURVE",
"340 -363 OFFCURVE",
"340 -523 CURVE SMOOTH",
"340 -725 OFFCURVE",
"480 -829 OFFCURVE",
"728 -829 CURVE SMOOTH"
);
},
{
closed = 1;
nodes = (
"240 68 LINE",
"190 76 OFFCURVE",
"165 104 OFFCURVE",
"165 154 CURVE SMOOTH",
"165 391 LINE SMOOTH",
"165 444 OFFCURVE",
"190 470 OFFCURVE",
"238 470 CURVE SMOOTH",
"286 470 OFFCURVE",
"310 445 OFFCURVE",
"310 394 CURVE SMOOTH",
"310 133 LINE SMOOTH",
"310 45 OFFCURVE",
"357 0 OFFCURVE",
"450 0 CURVE SMOOTH",
"676 0 LINE",
"693 30 LINE",
"563 219 LINE",
"469 219 LINE",
"575 68 LINE",
"455 68 LINE SMOOTH",
"416 68 OFFCURVE",
"396 89 OFFCURVE",
"396 131 CURVE SMOOTH",
"396 393 LINE SMOOTH",
"396 495 OFFCURVE",
"344 546 OFFCURVE",
"238 546 CURVE SMOOTH",
"132 546 OFFCURVE",
"78 493 OFFCURVE",
"78 388 CURVE SMOOTH",
"78 149 LINE SMOOTH",
"78 53 OFFCURVE",
"137 9 OFFCURVE",
"222 0 CURVE"
);
},
{
closed = 1;
nodes = (
"962 603 OFFCURVE",
"930 636 OFFCURVE",
"930 676 CURVE SMOOTH",
"930 701 OFFCURVE",
"941 713 OFFCURVE",
"964 713 CURVE SMOOTH",
"1000 713 OFFCURVE",
"1021 668 OFFCURVE",
"1026 577 CURVE",
"1026 577 LINE"
);
}
);
width = 1159;
},
{
layerId = "791C41F8-8E37-43C9-BD6C-904761E149BF";
paths = (
{
closed = 1;
nodes = (
"1202 -829 OFFCURVE",
"1354 -712 OFFCURVE",
"1354 -486 CURVE SMOOTH",
"1354 583 LINE SMOOTH",
"1354 721 OFFCURVE",
"1292 790 OFFCURVE",
"1169 790 CURVE SMOOTH",
"1079 790 OFFCURVE",
"1018 733 OFFCURVE",
"1018 646 CURVE SMOOTH",
"1018 604 OFFCURVE",
"1034 569 OFFCURVE",
"1067 542 CURVE SMOOTH",
"1099 515 OFFCURVE",
"1151 497 OFFCURVE",
"1223 489 CURVE",
"1223 -481 LINE SMOOTH",
"1223 -622 OFFCURVE",
"1109 -695 OFFCURVE",
"900 -695 CURVE SMOOTH",
"723 -695 OFFCURVE",
"614 -619 OFFCURVE",
"614 -494 CURVE SMOOTH",
"614 -443 OFFCURVE",
"634 -398 OFFCURVE",
"673 -361 CURVE SMOOTH",
"711 -324 OFFCURVE",
"760 -294 OFFCURVE",
"817 -272 CURVE SMOOTH",
"1000 -201 OFFCURVE",
"1106 -106 OFFCURVE",
"1106 -5 CURVE SMOOTH",
"1106 362 LINE SMOOTH",
"1106 484 OFFCURVE",
"1048 546 OFFCURVE",
"933 546 CURVE SMOOTH",
"867 546 OFFCURVE",
"825 522 OFFCURVE",
"807 476 CURVE",
"784 524 OFFCURVE",
"736 548 OFFCURVE",
"663 548 CURVE SMOOTH",
"578 548 OFFCURVE",
"518 490 OFFCURVE",
"518 410 CURVE SMOOTH",
"518 322 OFFCURVE",
"570 271 OFFCURVE",
"676 257 CURVE",
"704 326 LINE",
"659 338 OFFCURVE",
"637 357 OFFCURVE",
"637 384 CURVE SMOOTH",
"637 411 OFFCURVE",
"655 424 OFFCURVE",
"685 424 CURVE SMOOTH",
"728 424 OFFCURVE",
"752 393 OFFCURVE",
"759 335 CURVE",
"851 335 LINE",
"858 393 OFFCURVE",
"879 421 OFFCURVE",
"914 421 CURVE SMOOTH",
"955 421 OFFCURVE",
"976 399 OFFCURVE",
"976 355 CURVE SMOOTH",
"976 -7 LINE SMOOTH",
"976 -52 OFFCURVE",
"893 -107 OFFCURVE",
"731 -174 CURVE SMOOTH",
"555 -247 OFFCURVE",
"466 -358 OFFCURVE",
"466 -508 CURVE SMOOTH",
"466 -720 OFFCURVE",
"612 -829 OFFCURVE",
"903 -829 CURVE SMOOTH"
);
},
{
closed = 1;
nodes = (
"299 93 LINE",
"239 101 OFFCURVE",
"209 129 OFFCURVE",
"209 178 CURVE SMOOTH",
"209 347 LINE SMOOTH",
"209 396 OFFCURVE",
"234 421 OFFCURVE",
"282 421 CURVE SMOOTH",
"330 421 OFFCURVE",
"354 397 OFFCURVE",
"354 350 CURVE SMOOTH",
"354 187 LINE SMOOTH",
"354 63 OFFCURVE",
"421 0 OFFCURVE",
"558 0 CURVE SMOOTH",
"797 0 LINE",
"814 30 LINE",
"694 219 LINE",
"605 219 LINE",
"662 122 LINE",
"553 122 LINE SMOOTH",
"507 122 OFFCURVE",
"484 145 OFFCURVE",
"484 190 CURVE SMOOTH",
"484 349 LINE SMOOTH",
"484 480 OFFCURVE",
"417 546 OFFCURVE",
"282 546 CURVE SMOOTH",
"146 546 OFFCURVE",
"78 479 OFFCURVE",
"78 344 CURVE SMOOTH",
"78 173 LINE SMOOTH",
"78 60 OFFCURVE",
"154 5 OFFCURVE",
"280 0 CURVE"
);
},
{
closed = 1;
nodes = (
"1168 615 OFFCURVE",
"1138 630 OFFCURVE",
"1138 652 CURVE SMOOTH",
"1138 668 OFFCURVE",
"1150 678 OFFCURVE",
"1171 678 CURVE SMOOTH",
"1207 678 OFFCURVE",
"1228 657 OFFCURVE",
"1228 619 CURVE SMOOTH",
"1228 608 LINE"
);
}
);
width = 1402;
}
);
note = jha;
unicode = A999;
category = Letter;
},
{
glyphname = jha.alt;
lastChange = "2018-12-13 17:24:08 +0000";
layers = (
{
layerId = "BA48FBA0-A6DA-4EAF-9284-46C574130433";
paths = (
{
closed = 1;
nodes = (
"991 -829 OFFCURVE",
"1108 -723 OFFCURVE",
"1108 -510 CURVE SMOOTH",
"1108 463 LINE",
"1173 437 OFFCURVE",
"1208 389 OFFCURVE",
"1208 318 CURVE SMOOTH",
"1208 0 LINE",
"1295 0 LINE",
"1295 305 LINE SMOOTH",
"1295 426 OFFCURVE",
"1232 506 OFFCURVE",
"1111 545 CURVE",
"1109 651 OFFCURVE",
"1087 721 OFFCURVE",
"1045 756 CURVE SMOOTH",
"1018 778 OFFCURVE",
"990 790 OFFCURVE",
"961 790 CURVE SMOOTH",
"896 790 OFFCURVE",
"852 753 OFFCURVE",
"852 680 CURVE SMOOTH",
"852 592 OFFCURVE",
"919 541 OFFCURVE",
"1021 503 CURVE",
"1021 -510 LINE SMOOTH",
"1021 -665 OFFCURVE",
"932 -744 OFFCURVE",
"745 -744 CURVE SMOOTH",
"544 -744 OFFCURVE",
"433 -661 OFFCURVE",
"433 -519 CURVE SMOOTH",
"433 -460 OFFCURVE",
"452 -407 OFFCURVE",
"491 -358 CURVE SMOOTH",
"530 -310 OFFCURVE",
"578 -274 OFFCURVE",
"635 -252 CURVE SMOOTH",
"819 -182 OFFCURVE",
"925 -91 OFFCURVE",
"925 8 CURVE SMOOTH",
"925 390 LINE SMOOTH",
"925 493 OFFCURVE",
"879 546 OFFCURVE",
"791 546 CURVE SMOOTH",
"737 546 OFFCURVE",
"702 526 OFFCURVE",
"684 485 CURVE",
"661 527 OFFCURVE",
"624 548 OFFCURVE",
"577 548 CURVE SMOOTH",
"498 548 OFFCURVE",
"453 502 OFFCURVE",
"453 433 CURVE SMOOTH",
"453 362 OFFCURVE",
"493 318 OFFCURVE",
"572 301 CURVE",
"601 360 LINE",
"556 373 OFFCURVE",
"533 395 OFFCURVE",
"533 428 CURVE SMOOTH",
"533 458 OFFCURVE",
"551 473 OFFCURVE",
"577 473 CURVE SMOOTH",
"615 473 OFFCURVE",
"639 441 OFFCURVE",
"646 384 CURVE",
"713 384 LINE",
"720 441 OFFCURVE",
"743 470 OFFCURVE",
"781 470 CURVE SMOOTH",
"819 470 OFFCURVE",
"838 445 OFFCURVE",
"838 394 CURVE SMOOTH",
"838 -7 LINE SMOOTH",
"838 -59 OFFCURVE",
"763 -114 OFFCURVE",
"613 -174 CURVE SMOOTH",
"430 -247 OFFCURVE",
"338 -363 OFFCURVE",
"338 -523 CURVE SMOOTH",
"338 -720 OFFCURVE",
"484 -829 OFFCURVE",
"742 -829 CURVE SMOOTH"
);
},
{
closed = 1;
nodes = (
"240 68 LINE",
"190 76 OFFCURVE",
"165 104 OFFCURVE",
"165 154 CURVE SMOOTH",
"165 391 LINE SMOOTH",
"165 444 OFFCURVE",
"190 470 OFFCURVE",
"238 470 CURVE SMOOTH",
"286 470 OFFCURVE",
"310 445 OFFCURVE",
"310 394 CURVE SMOOTH",
"310 133 LINE SMOOTH",
"310 45 OFFCURVE",
"357 0 OFFCURVE",
"450 0 CURVE SMOOTH",
"676 0 LINE",
"693 30 LINE",
"563 219 LINE",
"469 219 LINE",
"575 68 LINE",
"455 68 LINE SMOOTH",
"416 68 OFFCURVE",
"396 89 OFFCURVE",
"396 131 CURVE SMOOTH",
"396 393 LINE SMOOTH",
"396 495 OFFCURVE",
"344 546 OFFCURVE",
"238 546 CURVE SMOOTH",
"132 546 OFFCURVE",
"78 493 OFFCURVE",
"78 388 CURVE SMOOTH",
"78 149 LINE SMOOTH",
"78 53 OFFCURVE",
"137 9 OFFCURVE",
"222 0 CURVE"
);
},
{
closed = 1;
nodes = (
"960 603 OFFCURVE",
"928 636 OFFCURVE",
"928 676 CURVE SMOOTH",
"928 701 OFFCURVE",
"939 713 OFFCURVE",
"962 713 CURVE SMOOTH",
"998 713 OFFCURVE",
"1019 668 OFFCURVE",
"1024 577 CURVE",
"1024 577 LINE"
);
}
);
width = 1344;
},
{
layerId = "791C41F8-8E37-43C9-BD6C-904761E149BF";
paths = (
{
closed = 1;
nodes = (
"1202 -829 OFFCURVE",
"1354 -711 OFFCURVE",
"1354 -485 CURVE SMOOTH",
"1354 453 LINE",
"1420 436 OFFCURVE",
"1456 385 OFFCURVE",
"1456 298 CURVE SMOOTH",
"1456 0 LINE",
"1586 0 LINE",
"1586 305 LINE SMOOTH",
"1586 448 OFFCURVE",
"1507 541 OFFCURVE",
"1354 583 CURVE",
"1354 721 OFFCURVE",
"1292 790 OFFCURVE",
"1169 790 CURVE SMOOTH",
"1079 790 OFFCURVE",
"1018 732 OFFCURVE",
"1018 646 CURVE SMOOTH",
"1018 604 OFFCURVE",
"1034 569 OFFCURVE",
"1067 542 CURVE SMOOTH",
"1099 515 OFFCURVE",
"1151 497 OFFCURVE",
"1223 489 CURVE",
"1223 -480 LINE SMOOTH",
"1223 -621 OFFCURVE",
"1111 -693 OFFCURVE",
"898 -695 CURVE",
"709 -686 OFFCURVE",
"614 -619 OFFCURVE",
"614 -494 CURVE SMOOTH",
"614 -443 OFFCURVE",
"634 -398 OFFCURVE",
"673 -361 CURVE SMOOTH",
"711 -324 OFFCURVE",
"760 -294 OFFCURVE",
"817 -272 CURVE SMOOTH",
"1000 -201 OFFCURVE",
"1106 -107 OFFCURVE",
"1106 -5 CURVE SMOOTH",
"1106 362 LINE SMOOTH",
"1106 484 OFFCURVE",
"1048 546 OFFCURVE",
"933 546 CURVE SMOOTH",
"867 546 OFFCURVE",
"825 522 OFFCURVE",
"807 476 CURVE",
"784 524 OFFCURVE",
"736 548 OFFCURVE",
"663 548 CURVE SMOOTH",
"578 548 OFFCURVE",
"518 490 OFFCURVE",
"518 410 CURVE SMOOTH",
"518 322 OFFCURVE",
"570 271 OFFCURVE",
"676 257 CURVE",
"704 326 LINE",
"659 338 OFFCURVE",
"637 357 OFFCURVE",
"637 384 CURVE SMOOTH",
"637 411 OFFCURVE",
"655 424 OFFCURVE",
"685 424 CURVE SMOOTH",
"727 424 OFFCURVE",
"752 393 OFFCURVE",
"759 335 CURVE",
"851 335 LINE",
"858 393 OFFCURVE",
"879 421 OFFCURVE",
"914 421 CURVE SMOOTH",
"955 421 OFFCURVE",
"976 399 OFFCURVE",
"976 355 CURVE SMOOTH",
"976 -7 LINE SMOOTH",
"976 -52 OFFCURVE",
"894 -108 OFFCURVE",
"731 -174 CURVE SMOOTH",
"555 -245 OFFCURVE",
"466 -358 OFFCURVE",
"466 -508 CURVE SMOOTH",
"466 -720 OFFCURVE",
"612 -829 OFFCURVE",
"903 -829 CURVE SMOOTH"
);
},
{
closed = 1;
nodes = (
"299 93 LINE",
"239 101 OFFCURVE",
"209 129 OFFCURVE",
"209 178 CURVE SMOOTH",
"209 347 LINE SMOOTH",
"209 396 OFFCURVE",
"234 421 OFFCURVE",
"282 421 CURVE SMOOTH",
"330 421 OFFCURVE",
"354 397 OFFCURVE",
"354 350 CURVE SMOOTH",
"354 187 LINE SMOOTH",
"354 63 OFFCURVE",
"421 0 OFFCURVE",
"558 0 CURVE SMOOTH",
"797 0 LINE",
"814 30 LINE",
"694 219 LINE",
"605 219 LINE",
"662 122 LINE",
"553 122 LINE SMOOTH",
"507 122 OFFCURVE",
"484 145 OFFCURVE",
"484 190 CURVE SMOOTH",
"484 349 LINE SMOOTH",
"484 480 OFFCURVE",
"417 546 OFFCURVE",
"282 546 CURVE SMOOTH",
"146 546 OFFCURVE",
"78 479 OFFCURVE",
"78 344 CURVE SMOOTH",
"78 173 LINE SMOOTH",
"78 60 OFFCURVE",
"154 5 OFFCURVE",
"280 0 CURVE"
);
},
{
closed = 1;
nodes = (
"1168 615 OFFCURVE",
"1138 630 OFFCURVE",
"1138 652 CURVE SMOOTH",
"1138 669 OFFCURVE",
"1150 678 OFFCURVE",
"1171 678 CURVE SMOOTH",
"1208 678 OFFCURVE",
"1228 657 OFFCURVE",
"1228 620 CURVE SMOOTH",
"1228 608 LINE"
);
}
);
width = 1635;
}
);
note = jha.alt;
category = Letter;
},
{
glyphname = jha.alt1;
lastChange = "2018-12-13 17:24:08 +0000";
layers = (
{
layerId = "BA48FBA0-A6DA-4EAF-9284-46C574130433";
paths = (
{
closed = 1;
nodes = (
"1295 -537 LINE",
"1295 303 LINE SMOOTH",
"1295 424 OFFCURVE",
"1232 506 OFFCURVE",
"1111 545 CURVE",
"1109 651 OFFCURVE",
"1087 721 OFFCURVE",
"1045 756 CURVE SMOOTH",
"1018 778 OFFCURVE",
"990 790 OFFCURVE",
"961 790 CURVE SMOOTH",
"896 790 OFFCURVE",
"852 753 OFFCURVE",
"852 680 CURVE SMOOTH",
"852 590 OFFCURVE",
"923 539 OFFCURVE",
"1021 503 CURVE",
"1021 -218 LINE SMOOTH",
"1021 -373 OFFCURVE",
"939 -451 OFFCURVE",
"775 -451 CURVE SMOOTH",
"704 -451 OFFCURVE",
"650 -442 OFFCURVE",
"615 -424 CURVE SMOOTH",
"580 -406 OFFCURVE",
"562 -380 OFFCURVE",
"562 -344 CURVE SMOOTH",
"562 -302 OFFCURVE",
"586 -271 OFFCURVE",
"635 -252 CURVE SMOOTH",
"773 -199 LINE SMOOTH",
"864 -164 OFFCURVE",
"925 -87 OFFCURVE",
"925 9 CURVE SMOOTH",
"925 391 LINE SMOOTH",
"925 494 OFFCURVE",
"879 546 OFFCURVE",
"791 546 CURVE SMOOTH",
"737 546 OFFCURVE",
"702 526 OFFCURVE",
"684 485 CURVE",
"661 527 OFFCURVE",
"626 548 OFFCURVE",
"579 548 CURVE SMOOTH",
"500 548 OFFCURVE",
"458 510 OFFCURVE",
"453 435 CURVE",
"453 362 OFFCURVE",
"493 318 OFFCURVE",
"572 301 CURVE",
"601 360 LINE",
"556 373 OFFCURVE",
"533 395 OFFCURVE",
"533 428 CURVE SMOOTH",
"533 456 OFFCURVE",
"550 473 OFFCURVE",
"577 473 CURVE SMOOTH",
"616 473 OFFCURVE",
"639 441 OFFCURVE",
"646 384 CURVE",
"713 384 LINE",
"720 441 OFFCURVE",
"743 470 OFFCURVE",
"781 470 CURVE SMOOTH",
"819 470 OFFCURVE",
"838 445 OFFCURVE",
"838 394 CURVE SMOOTH",
"838 -7 LINE SMOOTH",
"838 -59 OFFCURVE",
"800 -100 OFFCURVE",
"726 -129 CURVE SMOOTH",
"613 -174 LINE SMOOTH",
"508 -216 OFFCURVE",
"458 -276 OFFCURVE",
"458 -355 CURVE SMOOTH",
"458 -417 OFFCURVE",
"487 -462 OFFCURVE",
"546 -491 CURVE SMOOTH",
"604 -520 OFFCURVE",
"681 -536 OFFCURVE",
"775 -536 CURVE SMOOTH",
"997 -536 OFFCURVE",
"1108 -430 OFFCURVE",
"1108 -217 CURVE SMOOTH",
"1108 463 LINE",
"1173 437 OFFCURVE",
"1208 389 OFFCURVE",
"1208 318 CURVE SMOOTH",
"1208 -537 LINE"
);
},
{
closed = 1;
nodes = (
"240 68 LINE",
"190 76 OFFCURVE",
"165 104 OFFCURVE",
"165 154 CURVE SMOOTH",
"165 391 LINE SMOOTH",
"165 444 OFFCURVE",
"190 470 OFFCURVE",
"238 470 CURVE SMOOTH",
"286 470 OFFCURVE",
"310 445 OFFCURVE",
"310 394 CURVE SMOOTH",
"310 133 LINE SMOOTH",
"310 45 OFFCURVE",
"357 0 OFFCURVE",
"450 0 CURVE SMOOTH",
"676 0 LINE",
"693 30 LINE",
"563 219 LINE",
"469 219 LINE",
"575 68 LINE",
"455 68 LINE SMOOTH",
"416 68 OFFCURVE",
"396 89 OFFCURVE",
"396 131 CURVE SMOOTH",
"396 393 LINE SMOOTH",
"396 495 OFFCURVE",
"344 546 OFFCURVE",
"238 546 CURVE SMOOTH",
"132 546 OFFCURVE",
"78 493 OFFCURVE",
"78 388 CURVE SMOOTH",
"78 149 LINE SMOOTH",
"78 53 OFFCURVE",
"137 9 OFFCURVE",
"222 0 CURVE"
);
},
{
closed = 1;
nodes = (
"960 603 OFFCURVE",
"928 636 OFFCURVE",
"928 676 CURVE SMOOTH",
"928 701 OFFCURVE",
"939 713 OFFCURVE",
"962 713 CURVE SMOOTH",
"998 713 OFFCURVE",
"1019 668 OFFCURVE",
"1024 577 CURVE",
"1024 577 LINE"
);
}
);
width = 1344;
},
{
layerId = "791C41F8-8E37-43C9-BD6C-904761E149BF";
paths = (
{
closed = 1;
nodes = (
"1586 -537 LINE",
"1586 305 LINE SMOOTH",
"1586 448 OFFCURVE",
"1507 541 OFFCURVE",
"1354 583 CURVE",
"1354 721 OFFCURVE",
"1292 790 OFFCURVE",
"1169 790 CURVE SMOOTH",
"1079 790 OFFCURVE",
"1018 732 OFFCURVE",
"1018 646 CURVE SMOOTH",
"1018 604 OFFCURVE",
"1034 569 OFFCURVE",
"1067 542 CURVE SMOOTH",
"1099 515 OFFCURVE",
"1151 497 OFFCURVE",
"1223 489 CURVE",
"1223 -218 LINE SMOOTH",
"1223 -344 OFFCURVE",
"1133 -407 OFFCURVE",
"957 -407 CURVE SMOOTH",
"885 -407 OFFCURVE",
"830 -399 OFFCURVE",
"791 -387 CURVE SMOOTH",
"751 -375 OFFCURVE",
"738 -361 OFFCURVE",
"738 -338 CURVE SMOOTH",
"738 -315 OFFCURVE",
"768 -291 OFFCURVE",
"817 -272 CURVE SMOOTH",
"955 -218 LINE SMOOTH",
"1046 -182 OFFCURVE",
"1097 -111 OFFCURVE",
"1106 -3 CURVE",
"1106 361 LINE SMOOTH",
"1106 483 OFFCURVE",
"1048 546 OFFCURVE",
"933 546 CURVE SMOOTH",
"867 546 OFFCURVE",
"825 522 OFFCURVE",
"807 476 CURVE",
"784 524 OFFCURVE",
"736 548 OFFCURVE",
"663 548 CURVE SMOOTH",
"578 548 OFFCURVE",
"518 490 OFFCURVE",
"518 410 CURVE SMOOTH",
"518 322 OFFCURVE",
"570 271 OFFCURVE",
"676 257 CURVE",
"704 326 LINE",
"659 338 OFFCURVE",
"637 357 OFFCURVE",
"637 384 CURVE SMOOTH",
"637 410 OFFCURVE",
"655 424 OFFCURVE",
"685 424 CURVE SMOOTH",
"728 424 OFFCURVE",
"752 393 OFFCURVE",
"759 335 CURVE",
"851 335 LINE",
"858 393 OFFCURVE",
"879 421 OFFCURVE",
"914 421 CURVE SMOOTH",
"955 421 OFFCURVE",
"976 399 OFFCURVE",
"976 355 CURVE SMOOTH",
"976 -7 LINE SMOOTH",
"976 -59 OFFCURVE",
"937 -99 OFFCURVE",
"863 -129 CURVE SMOOTH",
"750 -174 LINE SMOOTH",
"647 -215 OFFCURVE",
"595 -276 OFFCURVE",
"595 -355 CURVE SMOOTH",
"595 -414 OFFCURVE",
"624 -455 OFFCURVE",
"672 -483 CURVE SMOOTH",
"741 -523 OFFCURVE",
"848 -536 OFFCURVE",
"957 -536 CURVE SMOOTH",
"1221 -536 OFFCURVE",
"1354 -430 OFFCURVE",
"1354 -217 CURVE SMOOTH",
"1354 453 LINE",
"1420 436 OFFCURVE",
"1456 384 OFFCURVE",
"1456 297 CURVE SMOOTH",
"1456 -537 LINE"
);
},
{
closed = 1;
nodes = (
"299 93 LINE",
"239 101 OFFCURVE",
"209 129 OFFCURVE",
"209 178 CURVE SMOOTH",
"209 347 LINE SMOOTH",
"209 396 OFFCURVE",
"234 421 OFFCURVE",
"282 421 CURVE SMOOTH",
"330 421 OFFCURVE",
"354 397 OFFCURVE",
"354 350 CURVE SMOOTH",
"354 187 LINE SMOOTH",
"354 63 OFFCURVE",
"421 0 OFFCURVE",
"558 0 CURVE SMOOTH",
"797 0 LINE",
"814 30 LINE",
"694 219 LINE",
"605 219 LINE",
"662 122 LINE",
"553 122 LINE SMOOTH",
"507 122 OFFCURVE",
"484 145 OFFCURVE",
"484 190 CURVE SMOOTH",
"484 349 LINE SMOOTH",
"484 480 OFFCURVE",
"417 546 OFFCURVE",
"282 546 CURVE SMOOTH",
"146 546 OFFCURVE",
"78 479 OFFCURVE",
"78 344 CURVE SMOOTH",
"78 173 LINE SMOOTH",
"78 60 OFFCURVE",
"154 5 OFFCURVE",
"280 0 CURVE"
);
},
{
closed = 1;
nodes = (
"1168 615 OFFCURVE",
"1138 630 OFFCURVE",
"1138 652 CURVE SMOOTH",
"1138 669 OFFCURVE",
"1150 678 OFFCURVE",
"1171 678 CURVE SMOOTH",
"1208 678 OFFCURVE",
"1228 657 OFFCURVE",
"1228 619 CURVE SMOOTH",
"1228 608 LINE"
);
}
);
width = 1635;
}
);
note = jha.alt1;
category = Letter;
},
{
glyphname = nya;
lastChange = "2018-12-13 17:24:08 +0000";
layers = (
{
layerId = "BA48FBA0-A6DA-4EAF-9284-46C574130433";
paths = (
{
closed = 1;
nodes = (
"927 0 LINE",
"927 391 LINE SMOOTH",
"927 444 OFFCURVE",
"951 470 OFFCURVE",
"999 470 CURVE SMOOTH",
"1038 470 OFFCURVE",
"1071 443 OFFCURVE",
"1071 397 CURVE SMOOTH",
"1071 0 LINE",
"1158 0 LINE",
"1158 391 LINE SMOOTH",
"1158 444 OFFCURVE",
"1183 470 OFFCURVE",
"1231 470 CURVE SMOOTH",
"1279 470 OFFCURVE",
"1303 445 OFFCURVE",
"1303 394 CURVE SMOOTH",
"1303 0 LINE",
"1390 0 LINE",
"1390 393 LINE SMOOTH",
"1390 495 OFFCURVE",
"1337 546 OFFCURVE",
"1231 546 CURVE SMOOTH",
"1182 546 OFFCURVE",
"1144 525 OFFCURVE",
"1118 483 CURVE",
"1094 522 OFFCURVE",
"1048 546 OFFCURVE",
"1000 546 CURVE SMOOTH",
"950 546 OFFCURVE",
"912 525 OFFCURVE",
"886 483 CURVE",
"867 525 OFFCURVE",
"832 546 OFFCURVE",
"783 546 CURVE SMOOTH",
"736 546 OFFCURVE",
"704 526 OFFCURVE",
"686 485 CURVE",
"663 527 OFFCURVE",
"627 548 OFFCURVE",
"580 548 CURVE SMOOTH",
"500 548 OFFCURVE",
"455 503 OFFCURVE",
"455 433 CURVE SMOOTH",
"455 363 OFFCURVE",
"495 318 OFFCURVE",
"574 301 CURVE",
"603 360 LINE",
"558 373 OFFCURVE",
"535 395 OFFCURVE",
"535 428 CURVE SMOOTH",
"535 456 OFFCURVE",
"552 473 OFFCURVE",
"579 473 CURVE SMOOTH",
"616 473 OFFCURVE",
"641 441 OFFCURVE",
"647 384 CURVE",
"715 384 LINE",
"722 441 OFFCURVE",
"745 470 OFFCURVE",
"783 470 CURVE SMOOTH",
"821 470 OFFCURVE",
"840 445 OFFCURVE",
"840 394 CURVE SMOOTH",
"840 0 LINE"
);
},
{
closed = 1;
nodes = (
"676 0 LINE",
"693 30 LINE",
"563 219 LINE",
"469 219 LINE",
"575 68 LINE",
"455 68 LINE SMOOTH",
"416 68 OFFCURVE",
"396 89 OFFCURVE",
"396 131 CURVE SMOOTH",
"396 393 LINE SMOOTH",
"396 495 OFFCURVE",
"344 546 OFFCURVE",
"238 546 CURVE SMOOTH",
"132 546 OFFCURVE",
"78 493 OFFCURVE",
"78 388 CURVE SMOOTH",
"78 149 LINE SMOOTH",
"78 53 OFFCURVE",
"137 9 OFFCURVE",
"222 0 CURVE",
"240 68 LINE",
"190 76 OFFCURVE",
"165 104 OFFCURVE",
"165 154 CURVE SMOOTH",
"165 391 LINE SMOOTH",
"165 444 OFFCURVE",
"190 470 OFFCURVE",
"238 470 CURVE SMOOTH",
"286 470 OFFCURVE",
"310 445 OFFCURVE",
"310 394 CURVE SMOOTH",
"310 133 LINE SMOOTH",
"310 45 OFFCURVE",
"357 0 OFFCURVE",
"450 0 CURVE SMOOTH"
);
}
);
width = 1439;
},
{
layerId = "791C41F8-8E37-43C9-BD6C-904761E149BF";
paths = (
{
closed = 1;
nodes = (
"1106 0 LINE",
"1106 352 LINE SMOOTH",
"1106 398 OFFCURVE",
"1130 421 OFFCURVE",
"1177 421 CURVE SMOOTH",
"1223 421 OFFCURVE",
"1246 397 OFFCURVE",
"1246 350 CURVE SMOOTH",
"1246 0 LINE",
"1377 0 LINE",
"1377 352 LINE SMOOTH",
"1377 398 OFFCURVE",
"1401 421 OFFCURVE",
"1447 421 CURVE SMOOTH",
"1494 421 OFFCURVE",
"1517 397 OFFCURVE",
"1517 350 CURVE SMOOTH",
"1517 0 LINE",
"1647 0 LINE",
"1647 349 LINE SMOOTH",
"1647 480 OFFCURVE",
"1590 546 OFFCURVE",
"1474 546 CURVE SMOOTH",
"1422 546 OFFCURVE",
"1379 525 OFFCURVE",
"1344 484 CURVE",
"1315 525 OFFCURVE",
"1269 546 OFFCURVE",
"1204 546 CURVE SMOOTH",
"1149 546 OFFCURVE",
"1104 523 OFFCURVE",
"1068 479 CURVE",
"1040 523 OFFCURVE",
"994 546 OFFCURVE",
"933 546 CURVE SMOOTH",
"867 546 OFFCURVE",
"825 522 OFFCURVE",
"807 476 CURVE",
"784 524 OFFCURVE",
"736 548 OFFCURVE",
"663 548 CURVE SMOOTH",
"578 548 OFFCURVE",
"518 490 OFFCURVE",
"518 410 CURVE SMOOTH",
"518 322 OFFCURVE",
"570 271 OFFCURVE",
"676 257 CURVE",
"704 326 LINE",
"659 338 OFFCURVE",
"637 357 OFFCURVE",
"637 384 CURVE SMOOTH",
"637 410 OFFCURVE",
"655 424 OFFCURVE",
"685 424 CURVE SMOOTH",
"728 424 OFFCURVE",
"752 393 OFFCURVE",
"759 335 CURVE",
"851 335 LINE",
"858 393 OFFCURVE",
"879 421 OFFCURVE",
"914 421 CURVE SMOOTH",
"955 421 OFFCURVE",
"976 399 OFFCURVE",
"976 355 CURVE SMOOTH",
"976 0 LINE"
);
},
{
closed = 1;
nodes = (
"797 0 LINE",
"814 30 LINE",
"694 219 LINE",
"605 219 LINE",
"662 122 LINE",
"553 122 LINE SMOOTH",
"507 122 OFFCURVE",
"484 145 OFFCURVE",
"484 190 CURVE SMOOTH",
"484 349 LINE SMOOTH",
"484 480 OFFCURVE",
"417 546 OFFCURVE",
"282 546 CURVE SMOOTH",
"146 546 OFFCURVE",
"78 479 OFFCURVE",
"78 344 CURVE SMOOTH",
"78 173 LINE SMOOTH",
"78 60 OFFCURVE",
"154 5 OFFCURVE",
"280 0 CURVE",
"299 93 LINE",
"239 101 OFFCURVE",
"209 129 OFFCURVE",
"209 178 CURVE SMOOTH",
"209 347 LINE SMOOTH",
"209 396 OFFCURVE",
"234 421 OFFCURVE",
"282 421 CURVE SMOOTH",
"330 421 OFFCURVE",
"354 397 OFFCURVE",
"354 350 CURVE SMOOTH",
"354 187 LINE SMOOTH",
"354 63 OFFCURVE",
"421 0 OFFCURVE",
"558 0 CURVE SMOOTH"
);
}
);
width = 1696;
}
);
note = nya;
unicode = A99A;
category = Letter;
},
{
glyphname = tta;
lastChange = "2018-12-13 17:24:08 +0000";
layers = (
{
layerId = "BA48FBA0-A6DA-4EAF-9284-46C574130433";
paths = (
{
closed = 1;
nodes = (
"597 -140 OFFCURVE",
"644 -124 OFFCURVE",
"697 -91 CURVE",
"672 -33 LINE",
"627 -54 OFFCURVE",
"591 -64 OFFCURVE",
"563 -64 CURVE SMOOTH",
"527 -64 OFFCURVE",
"510 -44 OFFCURVE",
"509 2 CURVE",
"561 6 OFFCURVE",
"603 22 OFFCURVE",
"636 51 CURVE SMOOTH",
"668 80 OFFCURVE",
"685 114 OFFCURVE",
"685 159 CURVE SMOOTH",
"685 209 OFFCURVE",
"652 239 OFFCURVE",
"601 239 CURVE SMOOTH",
"505 239 OFFCURVE",
"461 171 OFFCURVE",
"449 69 CURVE",
"414 69 OFFCURVE",
"396 92 OFFCURVE",
"396 137 CURVE SMOOTH",
"396 393 LINE SMOOTH",
"396 495 OFFCURVE",
"344 546 OFFCURVE",
"238 546 CURVE SMOOTH",
"132 546 OFFCURVE",
"78 493 OFFCURVE",
"78 388 CURVE SMOOTH",
"78 150 LINE SMOOTH",
"78 57 OFFCURVE",
"132 11 OFFCURVE",
"222 0 CURVE",
"240 68 LINE",
"190 76 OFFCURVE",
"165 104 OFFCURVE",
"165 154 CURVE SMOOTH",
"165 391 LINE SMOOTH",
"165 444 OFFCURVE",
"190 470 OFFCURVE",
"238 470 CURVE SMOOTH",
"286 470 OFFCURVE",
"310 445 OFFCURVE",
"310 394 CURVE SMOOTH",
"310 138 LINE SMOOTH",
"310 47 OFFCURVE",
"353 1 OFFCURVE",
"440 0 CURVE",
"440 -94 OFFCURVE",
"479 -140 OFFCURVE",
"556 -140 CURVE SMOOTH"
);
},
{
closed = 1;
nodes = (
"530 139 OFFCURVE",
"553 173 OFFCURVE",
"589 173 CURVE SMOOTH",
"605 173 OFFCURVE",
"613 164 OFFCURVE",
"613 146 CURVE SMOOTH",
"613 115 OFFCURVE",
"578 86 OFFCURVE",
"519 71 CURVE"
);
},
{
closed = 1;
nodes = (
"927 0 LINE",
"927 391 LINE SMOOTH",
"927 494 OFFCURVE",
"881 546 OFFCURVE",
"792 546 CURVE SMOOTH",
"739 546 OFFCURVE",
"704 526 OFFCURVE",
"686 485 CURVE",
"663 527 OFFCURVE",
"628 548 OFFCURVE",
"581 548 CURVE SMOOTH",
"501 548 OFFCURVE",
"459 510 OFFCURVE",
"455 435 CURVE",
"455 362 OFFCURVE",
"495 318 OFFCURVE",
"574 301 CURVE",
"603 360 LINE",
"558 373 OFFCURVE",
"535 395 OFFCURVE",
"535 428 CURVE SMOOTH",
"535 456 OFFCURVE",
"552 473 OFFCURVE",
"579 473 CURVE SMOOTH",
"616 473 OFFCURVE",
"641 441 OFFCURVE",
"647 384 CURVE",
"715 384 LINE",
"722 441 OFFCURVE",
"745 470 OFFCURVE",
"783 470 CURVE SMOOTH",
"821 470 OFFCURVE",
"840 445 OFFCURVE",
"840 394 CURVE SMOOTH",
"840 0 LINE"
);
}
);
width = 976;
},
{
layerId = "791C41F8-8E37-43C9-BD6C-904761E149BF";
paths = (
{
closed = 1;
nodes = (
"705 -140 OFFCURVE",
"758 -119 OFFCURVE",
"818 -77 CURVE",
"784 -3 LINE",
"739 -24 OFFCURVE",
"699 -36 OFFCURVE",
"665 -36 CURVE SMOOTH",
"636 -36 OFFCURVE",
"621 -23 OFFCURVE",
"620 2 CURVE",
"662 3 OFFCURVE",
"700 15 OFFCURVE",
"735 37 CURVE SMOOTH",
"770 59 OFFCURVE",
"787 93 OFFCURVE",
"787 141 CURVE SMOOTH",
"787 195 OFFCURVE",
"738 234 OFFCURVE",
"673 234 CURVE SMOOTH",
"592 234 OFFCURVE",
"541 188 OFFCURVE",
"522 96 CURVE",
"497 108 OFFCURVE",
"484 136 OFFCURVE",
"484 180 CURVE SMOOTH",
"484 349 LINE SMOOTH",
"484 480 OFFCURVE",
"417 546 OFFCURVE",
"282 546 CURVE SMOOTH",
"146 546 OFFCURVE",
"78 479 OFFCURVE",
"78 344 CURVE SMOOTH",
"78 173 LINE SMOOTH",
"78 60 OFFCURVE",
"154 5 OFFCURVE",
"280 0 CURVE",
"299 93 LINE",
"239 101 OFFCURVE",
"209 129 OFFCURVE",
"209 178 CURVE SMOOTH",
"209 347 LINE SMOOTH",
"209 396 OFFCURVE",
"234 421 OFFCURVE",
"282 421 CURVE SMOOTH",
"330 421 OFFCURVE",
"354 397 OFFCURVE",
"354 350 CURVE SMOOTH",
"354 192 LINE SMOOTH",
"354 82 OFFCURVE",
"405 18 OFFCURVE",
"507 0 CURVE",
"508 -93 OFFCURVE",
"559 -140 OFFCURVE",
"658 -140 CURVE SMOOTH"
);
},
{
closed = 1;
nodes = (
"630 133 OFFCURVE",
"645 149 OFFCURVE",
"669 149 CURVE SMOOTH",
"682 149 OFFCURVE",
"688 143 OFFCURVE",
"688 129 CURVE SMOOTH",
"688 107 OFFCURVE",
"666 93 OFFCURVE",
"625 90 CURVE"
);
},
{
closed = 1;
nodes = (
"1106 0 LINE",
"1106 362 LINE SMOOTH",
"1106 484 OFFCURVE",
"1048 546 OFFCURVE",
"933 546 CURVE SMOOTH",
"867 546 OFFCURVE",
"825 522 OFFCURVE",
"807 476 CURVE",
"784 524 OFFCURVE",
"736 548 OFFCURVE",
"663 548 CURVE SMOOTH",
"579 548 OFFCURVE",
"518 490 OFFCURVE",
"518 410 CURVE SMOOTH",
"518 322 OFFCURVE",
"570 271 OFFCURVE",
"676 257 CURVE",
"704 326 LINE",
"659 338 OFFCURVE",
"637 357 OFFCURVE",
"637 384 CURVE SMOOTH",
"637 409 OFFCURVE",
"655 424 OFFCURVE",
"685 424 CURVE SMOOTH",
"725 424 OFFCURVE",
"752 393 OFFCURVE",
"759 335 CURVE",
"851 335 LINE",
"858 393 OFFCURVE",
"879 421 OFFCURVE",
"914 421 CURVE SMOOTH",
"955 421 OFFCURVE",
"976 399 OFFCURVE",
"976 355 CURVE SMOOTH",
"976 0 LINE"
);
}
);
width = 1155;
}
);
note = tta;
unicode = A99B;
category = Letter;
},
{
glyphname = ttha;
lastChange = "2018-12-13 17:24:08 +0000";
layers = (
{
layerId = "BA48FBA0-A6DA-4EAF-9284-46C574130433";
paths = (
{
closed = 1;
nodes = (
"240 68 LINE",
"190 76 OFFCURVE",
"165 104 OFFCURVE",
"165 154 CURVE SMOOTH",
"165 391 LINE SMOOTH",
"165 444 OFFCURVE",
"190 470 OFFCURVE",
"238 470 CURVE SMOOTH",
"286 470 OFFCURVE",
"310 445 OFFCURVE",
"310 394 CURVE SMOOTH",
"310 138 LINE SMOOTH",
"310 47 OFFCURVE",
"359 0 OFFCURVE",
"459 0 CURVE SMOOTH",
"535 0 OFFCURVE",
"591 16 OFFCURVE",
"628 47 CURVE SMOOTH",
"666 78 OFFCURVE",
"685 115 OFFCURVE",
"685 160 CURVE SMOOTH",
"685 210 OFFCURVE",
"652 239 OFFCURVE",
"601 239 CURVE SMOOTH",
"507 239 OFFCURVE",
"461 171 OFFCURVE",
"449 69 CURVE",
"414 69 OFFCURVE",
"396 92 OFFCURVE",
"396 137 CURVE SMOOTH",
"396 393 LINE SMOOTH",
"396 495 OFFCURVE",
"344 546 OFFCURVE",
"238 546 CURVE SMOOTH",
"132 546 OFFCURVE",
"78 493 OFFCURVE",
"78 388 CURVE SMOOTH",
"78 150 LINE SMOOTH",
"78 57 OFFCURVE",
"132 10 OFFCURVE",
"222 0 CURVE"
);
},
{
closed = 1;
nodes = (
"530 139 OFFCURVE",
"553 173 OFFCURVE",
"589 173 CURVE SMOOTH",
"605 173 OFFCURVE",
"613 164 OFFCURVE",
"613 145 CURVE SMOOTH",
"613 115 OFFCURVE",
"578 86 OFFCURVE",
"519 71 CURVE"
);
},
{
closed = 1;
nodes = (
"927 0 LINE",
"927 391 LINE SMOOTH",
"927 494 OFFCURVE",
"881 546 OFFCURVE",
"792 546 CURVE SMOOTH",
"739 546 OFFCURVE",
"704 526 OFFCURVE",
"686 485 CURVE",
"663 527 OFFCURVE",
"628 548 OFFCURVE",
"581 548 CURVE SMOOTH",
"501 548 OFFCURVE",
"459 510 OFFCURVE",
"455 435 CURVE",
"455 362 OFFCURVE",
"495 318 OFFCURVE",
"574 301 CURVE",
"603 360 LINE",
"558 373 OFFCURVE",
"535 395 OFFCURVE",
"535 428 CURVE SMOOTH",
"535 456 OFFCURVE",
"552 473 OFFCURVE",
"579 473 CURVE SMOOTH",
"616 473 OFFCURVE",
"641 441 OFFCURVE",
"647 384 CURVE",
"715 384 LINE",
"722 441 OFFCURVE",
"745 470 OFFCURVE",
"783 470 CURVE SMOOTH",
"821 470 OFFCURVE",
"840 445 OFFCURVE",
"840 394 CURVE SMOOTH",
"840 0 LINE"
);
}
);
width = 976;
},
{
layerId = "791C41F8-8E37-43C9-BD6C-904761E149BF";
paths = (
{
closed = 1;
nodes = (
"299 93 LINE",
"239 101 OFFCURVE",
"209 129 OFFCURVE",
"209 178 CURVE SMOOTH",
"209 347 LINE SMOOTH",
"209 396 OFFCURVE",
"234 421 OFFCURVE",
"282 421 CURVE SMOOTH",
"330 421 OFFCURVE",
"354 397 OFFCURVE",
"354 350 CURVE SMOOTH",
"354 192 LINE SMOOTH",
"354 68 OFFCURVE",
"415 4 OFFCURVE",
"537 0 CURVE",
"643 0 OFFCURVE",
"681 4 OFFCURVE",
"735 37 CURVE SMOOTH",
"770 59 OFFCURVE",
"787 93 OFFCURVE",
"787 141 CURVE SMOOTH",
"787 193 OFFCURVE",
"740 234 OFFCURVE",
"675 234 CURVE SMOOTH",
"592 234 OFFCURVE",
"541 188 OFFCURVE",
"522 96 CURVE",
"497 108 OFFCURVE",
"484 136 OFFCURVE",
"484 180 CURVE SMOOTH",
"484 349 LINE SMOOTH",
"484 480 OFFCURVE",
"417 546 OFFCURVE",
"282 546 CURVE SMOOTH",
"146 546 OFFCURVE",
"78 479 OFFCURVE",
"78 344 CURVE SMOOTH",
"78 173 LINE SMOOTH",
"78 60 OFFCURVE",
"154 5 OFFCURVE",
"280 0 CURVE"
);
},
{
closed = 1;
nodes = (
"630 133 OFFCURVE",
"645 149 OFFCURVE",
"669 149 CURVE SMOOTH",
"682 149 OFFCURVE",
"688 143 OFFCURVE",
"688 129 CURVE SMOOTH",
"688 107 OFFCURVE",
"666 93 OFFCURVE",
"625 90 CURVE"
);
},
{
closed = 1;
nodes = (
"1106 0 LINE",
"1106 362 LINE SMOOTH",
"1106 484 OFFCURVE",
"1048 546 OFFCURVE",
"933 546 CURVE SMOOTH",
"867 546 OFFCURVE",
"825 522 OFFCURVE",
"807 476 CURVE",
"784 524 OFFCURVE",
"736 548 OFFCURVE",
"663 548 CURVE SMOOTH",
"579 548 OFFCURVE",
"518 490 OFFCURVE",
"518 410 CURVE SMOOTH",
"518 322 OFFCURVE",
"570 271 OFFCURVE",
"676 257 CURVE",
"704 326 LINE",
"659 338 OFFCURVE",
"637 357 OFFCURVE",
"637 384 CURVE SMOOTH",
"637 409 OFFCURVE",
"655 424 OFFCURVE",
"685 424 CURVE SMOOTH",
"725 424 OFFCURVE",
"752 393 OFFCURVE",
"759 335 CURVE",
"851 335 LINE",
"858 393 OFFCURVE",
"879 421 OFFCURVE",
"914 421 CURVE SMOOTH",
"955 421 OFFCURVE",
"976 399 OFFCURVE",
"976 355 CURVE SMOOTH",
"976 0 LINE"
);
}
);
width = 1155;
}
);
note = ttha;
unicode = A99C;
category = Letter;
},
{
glyphname = dda;
lastChange = "2018-12-13 17:24:08 +0000";
layers = (
{
layerId = "BA48FBA0-A6DA-4EAF-9284-46C574130433";
paths = (
{
closed = 1;
nodes = (
"240 68 LINE",
"190 76 OFFCURVE",
"165 104 OFFCURVE",
"165 154 CURVE SMOOTH",
"165 391 LINE SMOOTH",
"165 444 OFFCURVE",
"190 470 OFFCURVE",
"238 470 CURVE SMOOTH",
"286 470 OFFCURVE",
"310 445 OFFCURVE",
"310 394 CURVE SMOOTH",
"310 156 LINE SMOOTH",
"310 52 OFFCURVE",
"360 0 OFFCURVE",
"452 0 CURVE SMOOTH",
"497 0 OFFCURVE",
"530 21 OFFCURVE",
"550 63 CURVE",
"570 21 OFFCURVE",
"604 0 OFFCURVE",
"649 0 CURVE SMOOTH",
"741 0 OFFCURVE",
"791 52 OFFCURVE",
"791 156 CURVE SMOOTH",
"791 391 LINE SMOOTH",
"791 444 OFFCURVE",
"816 470 OFFCURVE",
"864 470 CURVE SMOOTH",
"912 470 OFFCURVE",
"936 445 OFFCURVE",
"936 394 CURVE SMOOTH",
"936 0 LINE",
"1022 0 LINE",
"1022 393 LINE SMOOTH",
"1022 495 OFFCURVE",
"970 546 OFFCURVE",
"864 546 CURVE SMOOTH",
"758 546 OFFCURVE",
"704 493 OFFCURVE",
"704 388 CURVE SMOOTH",
"704 133 LINE SMOOTH",
"704 93 OFFCURVE",
"685 72 OFFCURVE",
"649 72 CURVE SMOOTH",
"613 72 OFFCURVE",
"594 94 OFFCURVE",
"594 134 CURVE SMOOTH",
"594 213 LINE",
"507 213 LINE",
"507 133 LINE SMOOTH",
"507 93 OFFCURVE",
"487 72 OFFCURVE",
"452 72 CURVE SMOOTH",
"416 72 OFFCURVE",
"396 93 OFFCURVE",
"396 133 CURVE SMOOTH",
"396 393 LINE SMOOTH",
"396 495 OFFCURVE",
"344 546 OFFCURVE",
"238 546 CURVE SMOOTH",
"132 546 OFFCURVE",
"78 493 OFFCURVE",
"78 388 CURVE SMOOTH",
"78 150 LINE SMOOTH",
"78 57 OFFCURVE",
"132 10 OFFCURVE",
"222 0 CURVE"
);
}
);
width = 1071;
},
{
layerId = "791C41F8-8E37-43C9-BD6C-904761E149BF";
paths = (
{
closed = 1;
nodes = (
"299 93 LINE",
"239 101 OFFCURVE",
"209 129 OFFCURVE",
"209 178 CURVE SMOOTH",
"209 347 LINE SMOOTH",
"209 396 OFFCURVE",
"234 421 OFFCURVE",
"282 421 CURVE SMOOTH",
"330 421 OFFCURVE",
"354 397 OFFCURVE",
"354 350 CURVE SMOOTH",
"354 173 LINE SMOOTH",
"354 59 OFFCURVE",
"414 0 OFFCURVE",
"525 0 CURVE SMOOTH",
"593 0 OFFCURVE",
"644 24 OFFCURVE",
"677 72 CURVE",
"710 24 OFFCURVE",
"761 0 OFFCURVE",
"830 0 CURVE SMOOTH",
"941 0 OFFCURVE",
"1001 60 OFFCURVE",
"1001 174 CURVE SMOOTH",
"1001 347 LINE SMOOTH",
"1001 396 OFFCURVE",
"1026 421 OFFCURVE",
"1074 421 CURVE SMOOTH",
"1122 421 OFFCURVE",
"1146 397 OFFCURVE",
"1146 350 CURVE SMOOTH",
"1146 0 LINE",
"1276 0 LINE",
"1276 349 LINE SMOOTH",
"1276 480 OFFCURVE",
"1209 546 OFFCURVE",
"1074 546 CURVE SMOOTH",
"938 546 OFFCURVE",
"870 479 OFFCURVE",
"870 344 CURVE SMOOTH",
"870 182 LINE SMOOTH",
"870 142 OFFCURVE",
"847 121 OFFCURVE",
"805 121 CURVE SMOOTH",
"764 121 OFFCURVE",
"740 143 OFFCURVE",
"740 183 CURVE SMOOTH",
"740 272 LINE",
"614 272 LINE",
"614 181 LINE SMOOTH",
"614 141 OFFCURVE",
"591 121 OFFCURVE",
"549 121 CURVE SMOOTH",
"508 121 OFFCURVE",
"484 143 OFFCURVE",
"484 183 CURVE SMOOTH",
"484 349 LINE SMOOTH",
"484 480 OFFCURVE",
"417 546 OFFCURVE",
"282 546 CURVE SMOOTH",
"146 546 OFFCURVE",
"78 479 OFFCURVE",
"78 344 CURVE SMOOTH",
"78 173 LINE SMOOTH",
"78 60 OFFCURVE",
"154 5 OFFCURVE",
"280 0 CURVE"
);
}
);
width = 1325;
}
);
note = dda;
unicode = A99D;
category = Letter;
},
{
glyphname = ddha;
lastChange = "2018-12-13 17:24:08 +0000";
layers = (
{
layerId = "BA48FBA0-A6DA-4EAF-9284-46C574130433";
paths = (
{
closed = 1;
nodes = (
"241 68 LINE",
"190 76 OFFCURVE",
"165 104 OFFCURVE",
"165 154 CURVE SMOOTH",
"165 391 LINE SMOOTH",
"165 444 OFFCURVE",
"190 470 OFFCURVE",
"238 470 CURVE SMOOTH",
"286 470 OFFCURVE",
"310 445 OFFCURVE",
"310 394 CURVE SMOOTH",
"310 159 LINE SMOOTH",
"310 55 OFFCURVE",
"360 0 OFFCURVE",
"452 0 CURVE SMOOTH",
"498 0 OFFCURVE",
"531 21 OFFCURVE",
"551 63 CURVE",
"571 21 OFFCURVE",
"604 0 OFFCURVE",
"649 0 CURVE SMOOTH",
"741 0 OFFCURVE",
"792 52 OFFCURVE",
"792 156 CURVE SMOOTH",
"792 393 LINE SMOOTH",
"792 491 OFFCURVE",
"740 534 OFFCURVE",
"648 546 CURVE",
"629 478 LINE",
"680 470 OFFCURVE",
"705 441 OFFCURVE",
"705 392 CURVE SMOOTH",
"705 133 LINE SMOOTH",
"705 93 OFFCURVE",
"685 72 OFFCURVE",
"649 72 CURVE SMOOTH",
"614 72 OFFCURVE",
"594 93 OFFCURVE",
"594 133 CURVE SMOOTH",
"594 213 LINE",
"507 213 LINE",
"507 132 LINE SMOOTH",
"507 92 OFFCURVE",
"488 72 OFFCURVE",
"452 72 CURVE SMOOTH",
"417 72 OFFCURVE",
"397 94 OFFCURVE",
"397 134 CURVE SMOOTH",
"397 393 LINE SMOOTH",
"397 495 OFFCURVE",
"344 546 OFFCURVE",
"238 546 CURVE SMOOTH",
"132 546 OFFCURVE",
"78 493 OFFCURVE",
"78 388 CURVE SMOOTH",
"78 150 LINE SMOOTH",
"78 56 OFFCURVE",
"132 11 OFFCURVE",
"222 0 CURVE"
);
}
);
width = 841;
},
{
layerId = "791C41F8-8E37-43C9-BD6C-904761E149BF";
paths = (
{
closed = 1;
nodes = (
"299 93 LINE",
"239 101 OFFCURVE",
"209 129 OFFCURVE",
"209 178 CURVE SMOOTH",
"209 347 LINE SMOOTH",
"209 396 OFFCURVE",
"234 421 OFFCURVE",
"282 421 CURVE SMOOTH",
"330 421 OFFCURVE",
"354 397 OFFCURVE",
"354 350 CURVE SMOOTH",
"354 172 LINE SMOOTH",
"354 58 OFFCURVE",
"414 0 OFFCURVE",
"525 0 CURVE SMOOTH",
"593 0 OFFCURVE",
"644 24 OFFCURVE",
"677 72 CURVE",
"710 24 OFFCURVE",
"761 0 OFFCURVE",
"830 0 CURVE SMOOTH",
"941 0 OFFCURVE",
"1001 59 OFFCURVE",
"1001 173 CURVE SMOOTH",
"1001 373 LINE SMOOTH",
"1001 492 OFFCURVE",
"924 539 OFFCURVE",
"799 546 CURVE",
"780 453 LINE",
"840 445 OFFCURVE",
"870 417 OFFCURVE",
"870 368 CURVE SMOOTH",
"870 182 LINE SMOOTH",
"870 142 OFFCURVE",
"847 121 OFFCURVE",
"805 121 CURVE SMOOTH",
"764 121 OFFCURVE",
"740 142 OFFCURVE",
"740 182 CURVE SMOOTH",
"740 272 LINE",
"614 272 LINE",
"614 181 LINE SMOOTH",
"614 141 OFFCURVE",
"591 121 OFFCURVE",
"549 121 CURVE SMOOTH",
"508 121 OFFCURVE",
"484 141 OFFCURVE",
"484 181 CURVE SMOOTH",
"484 349 LINE SMOOTH",
"484 480 OFFCURVE",
"417 546 OFFCURVE",
"282 546 CURVE SMOOTH",
"146 546 OFFCURVE",
"78 479 OFFCURVE",
"78 344 CURVE SMOOTH",
"78 173 LINE SMOOTH",
"78 60 OFFCURVE",
"154 5 OFFCURVE",
"280 0 CURVE"
);
}
);
width = 1050;
}
);
note = ddha;
unicode = A99E;
category = Letter;
},
{
glyphname = nna;
lastChange = "2018-12-13 17:24:08 +0000";
layers = (
{
layerId = "BA48FBA0-A6DA-4EAF-9284-46C574130433";
paths = (
{
closed = 1;
nodes = (
"367 0 LINE",
"367 372 LINE SMOOTH",
"367 438 OFFCURVE",
"396 470 OFFCURVE",
"455 470 CURVE SMOOTH",
"512 470 OFFCURVE",
"541 438 OFFCURVE",
"541 375 CURVE SMOOTH",
"541 0 LINE",
"628 0 LINE",
"628 372 LINE SMOOTH",
"628 438 OFFCURVE",
"657 470 OFFCURVE",
"715 470 CURVE SMOOTH",
"771 470 OFFCURVE",
"802 436 OFFCURVE",
"802 375 CURVE SMOOTH",
"802 0 LINE",
"889 0 LINE",
"889 372 LINE SMOOTH",
"889 438 OFFCURVE",
"918 470 OFFCURVE",
"976 470 CURVE SMOOTH",
"1034 470 OFFCURVE",
"1063 438 OFFCURVE",
"1063 375 CURVE SMOOTH",
"1063 0 LINE",
"1149 0 LINE",
"1149 374 LINE SMOOTH",
"1149 488 OFFCURVE",
"1092 546 OFFCURVE",
"976 546 CURVE SMOOTH",
"917 546 OFFCURVE",
"874 519 OFFCURVE",
"848 464 CURVE",
"823 517 OFFCURVE",
"776 546 OFFCURVE",
"715 546 CURVE SMOOTH",
"654 546 OFFCURVE",
"613 519 OFFCURVE",
"587 464 CURVE",
"562 519 OFFCURVE",
"518 546 OFFCURVE",
"455 546 CURVE SMOOTH",
"395 546 OFFCURVE",
"352 521 OFFCURVE",
"325 471 CURVE",
"298 521 OFFCURVE",
"260 546 OFFCURVE",
"208 546 CURVE SMOOTH",
"103 546 OFFCURVE",
"49 493 OFFCURVE",
"49 388 CURVE SMOOTH",
"49 345 OFFCURVE",
"61 308 OFFCURVE",
"88 281 CURVE SMOOTH",
"116 253 OFFCURVE",
"150 238 OFFCURVE",
"196 234 CURVE",
"205 293 LINE",
"159 306 OFFCURVE",
"136 338 OFFCURVE",
"136 391 CURVE SMOOTH",
"136 444 OFFCURVE",
"161 470 OFFCURVE",
"208 470 CURVE SMOOTH",
"256 470 OFFCURVE",
"280 443 OFFCURVE",
"280 389 CURVE SMOOTH",
"280 0 LINE"
);
}
);
width = 1198;
},
{
layerId = "791C41F8-8E37-43C9-BD6C-904761E149BF";
paths = (
{
closed = 1;
nodes = (
"479 0 LINE",
"479 342 LINE SMOOTH",
"479 398 OFFCURVE",
"508 426 OFFCURVE",
"562 426 CURVE SMOOTH",
"616 426 OFFCURVE",
"644 399 OFFCURVE",
"644 345 CURVE SMOOTH",
"644 0 LINE",
"774 0 LINE",
"774 342 LINE SMOOTH",
"774 398 OFFCURVE",
"803 426 OFFCURVE",
"857 426 CURVE SMOOTH",
"911 426 OFFCURVE",
"938 399 OFFCURVE",
"938 345 CURVE SMOOTH",
"938 0 LINE",
"1069 0 LINE",
"1069 342 LINE SMOOTH",
"1069 398 OFFCURVE",
"1098 426 OFFCURVE",
"1154 426 CURVE SMOOTH",
"1210 426 OFFCURVE",
"1238 399 OFFCURVE",
"1238 345 CURVE SMOOTH",
"1238 0 LINE",
"1369 0 LINE",
"1369 354 LINE SMOOTH",
"1369 482 OFFCURVE",
"1302 546 OFFCURVE",
"1167 546 CURVE SMOOTH",
"1091 546 OFFCURVE",
"1038 518 OFFCURVE",
"1007 463 CURVE",
"976 518 OFFCURVE",
"926 546 OFFCURVE",
"857 546 CURVE SMOOTH",
"791 546 OFFCURVE",
"743 519 OFFCURVE",
"711 464 CURVE",
"680 519 OFFCURVE",
"630 546 OFFCURVE",
"562 546 CURVE SMOOTH",
"496 546 OFFCURVE",
"447 518 OFFCURVE",
"416 463 CURVE",
"384 518 OFFCURVE",
"330 546 OFFCURVE",
"252 546 CURVE SMOOTH",
"136 546 OFFCURVE",
"59 473 OFFCURVE",
"59 349 CURVE SMOOTH",
"59 286 OFFCURVE",
"78 238 OFFCURVE",
"118 206 CURVE SMOOTH",
"158 174 OFFCURVE",
"203 153 OFFCURVE",
"255 146 CURVE",
"273 244 LINE",
"214 257 OFFCURVE",
"185 290 OFFCURVE",
"185 342 CURVE SMOOTH",
"185 398 OFFCURVE",
"213 426 OFFCURVE",
"267 426 CURVE SMOOTH",
"321 426 OFFCURVE",
"349 399 OFFCURVE",
"349 345 CURVE SMOOTH",
"349 0 LINE"
);
}
);
width = 1418;
}
);
note = nna;
unicode = A99F;
category = Letter;
},
{
glyphname = ta;
lastChange = "2018-12-13 17:24:08 +0000";
layers = (
{
layerId = "BA48FBA0-A6DA-4EAF-9284-46C574130433";
paths = (
{
closed = 1;
nodes = (
"240 68 LINE",
"190 76 OFFCURVE",
"165 104 OFFCURVE",
"165 154 CURVE SMOOTH",
"165 391 LINE SMOOTH",
"165 444 OFFCURVE",
"190 470 OFFCURVE",
"238 470 CURVE SMOOTH",
"286 470 OFFCURVE",
"310 445 OFFCURVE",
"310 394 CURVE SMOOTH",
"310 133 LINE SMOOTH",
"310 45 OFFCURVE",
"356 0 OFFCURVE",
"450 0 CURVE SMOOTH",
"588 0 LINE SMOOTH",
"695 0 OFFCURVE",
"759 40 OFFCURVE",
"759 148 CURVE SMOOTH",
"759 198 OFFCURVE",
"745 234 OFFCURVE",
"707 261 CURVE SMOOTH",
"689 274 OFFCURVE",
"663 289 OFFCURVE",
"636 303 CURVE SMOOTH",
"581 332 OFFCURVE",
"536 360 OFFCURVE",
"536 405 CURVE SMOOTH",
"536 447 OFFCURVE",
"566 470 OFFCURVE",
"617 470 CURVE SMOOTH",
"734 470 LINE SMOOTH",
"788 470 OFFCURVE",
"815 437 OFFCURVE",
"815 370 CURVE SMOOTH",
"815 0 LINE",
"902 0 LINE",
"902 391 LINE SMOOTH",
"902 444 OFFCURVE",
"927 470 OFFCURVE",
"975 470 CURVE SMOOTH",
"1023 470 OFFCURVE",
"1047 445 OFFCURVE",
"1047 394 CURVE SMOOTH",
"1047 0 LINE",
"1134 0 LINE",
"1134 393 LINE SMOOTH",
"1134 495 OFFCURVE",
"1083 546 OFFCURVE",
"980 546 CURVE SMOOTH",
"927 546 OFFCURVE",
"888 525 OFFCURVE",
"862 483 CURVE",
"842 525 OFFCURVE",
"800 546 OFFCURVE",
"734 546 CURVE SMOOTH",
"612 546 LINE SMOOTH",
"525 546 OFFCURVE",
"450 495 OFFCURVE",
"450 404 CURVE SMOOTH",
"450 359 OFFCURVE",
"470 325 OFFCURVE",
"506 294 CURVE SMOOTH",
"522 281 OFFCURVE",
"549 265 OFFCURVE",
"586 244 CURVE SMOOTH",
"638 215 OFFCURVE",
"673 184 OFFCURVE",
"673 140 CURVE SMOOTH",
"673 91 OFFCURVE",
"640 70 OFFCURVE",
"590 70 CURVE SMOOTH",
"442 70 LINE SMOOTH",
"414 70 OFFCURVE",
"396 97 OFFCURVE",
"396 131 CURVE SMOOTH",
"396 393 LINE SMOOTH",
"396 495 OFFCURVE",
"344 546 OFFCURVE",
"238 546 CURVE SMOOTH",
"132 546 OFFCURVE",
"78 493 OFFCURVE",
"78 388 CURVE SMOOTH",
"78 153 LINE SMOOTH",
"78 60 OFFCURVE",
"133 7 OFFCURVE",
"222 0 CURVE"
);
}
);
width = 1183;
},
{
layerId = "791C41F8-8E37-43C9-BD6C-904761E149BF";
paths = (
{
closed = 1;
nodes = (
"299 93 LINE",
"239 101 OFFCURVE",
"209 129 OFFCURVE",
"209 178 CURVE SMOOTH",
"209 347 LINE SMOOTH",
"209 396 OFFCURVE",
"234 421 OFFCURVE",
"282 421 CURVE SMOOTH",
"330 421 OFFCURVE",
"354 397 OFFCURVE",
"354 350 CURVE SMOOTH",
"354 178 LINE SMOOTH",
"354 64 OFFCURVE",
"432 0 OFFCURVE",
"540 0 CURVE SMOOTH",
"698 0 LINE SMOOTH",
"803 0 OFFCURVE",
"883 43 OFFCURVE",
"883 148 CURVE SMOOTH",
"883 187 OFFCURVE",
"873 219 OFFCURVE",
"853 244 CURVE SMOOTH",
"833 269 OFFCURVE",
"803 293 OFFCURVE",
"765 317 CURVE SMOOTH",
"716 348 OFFCURVE",
"689 370 OFFCURVE",
"689 388 CURVE SMOOTH",
"689 410 OFFCURVE",
"700 421 OFFCURVE",
"722 421 CURVE SMOOTH",
"853 421 LINE SMOOTH",
"920 421 OFFCURVE",
"954 381 OFFCURVE",
"954 301 CURVE SMOOTH",
"954 0 LINE",
"1085 0 LINE",
"1085 352 LINE SMOOTH",
"1085 398 OFFCURVE",
"1109 421 OFFCURVE",
"1155 421 CURVE SMOOTH",
"1202 421 OFFCURVE",
"1225 397 OFFCURVE",
"1225 350 CURVE SMOOTH",
"1225 0 LINE",
"1355 0 LINE",
"1355 349 LINE SMOOTH",
"1355 480 OFFCURVE",
"1298 546 OFFCURVE",
"1182 546 CURVE SMOOTH",
"1120 546 OFFCURVE",
"1069 519 OFFCURVE",
"1031 463 CURVE",
"1001 514 OFFCURVE",
"952 546 OFFCURVE",
"893 546 CURVE SMOOTH",
"692 546 LINE SMOOTH",
"601 546 OFFCURVE",
"530 493 OFFCURVE",
"530 404 CURVE SMOOTH",
"530 367 OFFCURVE",
"544 334 OFFCURVE",
"573 307 CURVE SMOOTH",
"592 290 OFFCURVE",
"624 266 OFFCURVE",
"668 236 CURVE SMOOTH",
"720 201 OFFCURVE",
"745 175 OFFCURVE",
"745 157 CURVE SMOOTH",
"745 135 OFFCURVE",
"725 122 OFFCURVE",
"693 122 CURVE SMOOTH",
"553 122 LINE SMOOTH",
"507 122 OFFCURVE",
"484 145 OFFCURVE",
"484 190 CURVE SMOOTH",
"484 349 LINE SMOOTH",
"484 480 OFFCURVE",
"417 546 OFFCURVE",
"282 546 CURVE SMOOTH",
"146 546 OFFCURVE",
"78 479 OFFCURVE",
"78 344 CURVE SMOOTH",
"78 173 LINE SMOOTH",
"78 60 OFFCURVE",
"154 5 OFFCURVE",
"280 0 CURVE"
);
}
);
width = 1404;
}
);
note = ta;
unicode = A9A0;
category = Letter;
},
{
glyphname = tha;
lastChange = "2018-12-13 17:24:08 +0000";
layers = (
{
layerId = "BA48FBA0-A6DA-4EAF-9284-46C574130433";
paths = (
{
closed = 1;
nodes = (
"599 -140 OFFCURVE",
"637 -126 OFFCURVE",
"674 -98 CURVE",
"649 -39 LINE",
"622 -56 OFFCURVE",
"594 -64 OFFCURVE",
"564 -64 CURVE SMOOTH",
"542 -64 OFFCURVE",
"524 -58 OFFCURVE",
"524 -32 CURVE SMOOTH",
"524 -23 OFFCURVE",
"526 -16 OFFCURVE",
"531 0 CURVE",
"591 0 LINE SMOOTH",
"685 0 OFFCURVE",
"731 45 OFFCURVE",
"731 133 CURVE SMOOTH",
"731 321 LINE SMOOTH",
"731 404 OFFCURVE",
"704 454 OFFCURVE",
"649 470 CURVE",
"758 470 LINE SMOOTH",
"807 470 OFFCURVE",
"831 444 OFFCURVE",
"831 391 CURVE SMOOTH",
"831 0 LINE",
"918 0 LINE",
"918 388 LINE SMOOTH",
"918 493 OFFCURVE",
"864 546 OFFCURVE",
"758 546 CURVE SMOOTH",
"503 546 LINE",
"503 479 LINE",
"597 473 OFFCURVE",
"645 415 OFFCURVE",
"645 305 CURVE SMOOTH",
"645 131 LINE SMOOTH",
"645 89 OFFCURVE",
"625 68 OFFCURVE",
"586 68 CURVE SMOOTH",
"555 68 LINE",
"569 104 OFFCURVE",
"575 125 OFFCURVE",
"575 149 CURVE SMOOTH",
"575 214 OFFCURVE",
"531 251 OFFCURVE",
"443 261 CURVE",
"431 189 LINE",
"475 184 OFFCURVE",
"497 166 OFFCURVE",
"497 137 CURVE SMOOTH",
"497 129 OFFCURVE",
"495 121 OFFCURVE",
"477 68 CURVE",
"455 68 LINE SMOOTH",
"416 68 OFFCURVE",
"396 89 OFFCURVE",
"396 131 CURVE SMOOTH",
"396 393 LINE SMOOTH",
"396 495 OFFCURVE",
"344 546 OFFCURVE",
"238 546 CURVE SMOOTH",
"132 546 OFFCURVE",
"78 493 OFFCURVE",
"78 388 CURVE SMOOTH",
"78 153 LINE SMOOTH",
"78 101 OFFCURVE",
"92 63 OFFCURVE",
"121 40 CURVE SMOOTH",
"149 17 OFFCURVE",
"182 3 OFFCURVE",
"222 0 CURVE",
"240 68 LINE",
"190 76 OFFCURVE",
"165 104 OFFCURVE",
"165 154 CURVE SMOOTH",
"165 391 LINE SMOOTH",
"165 444 OFFCURVE",
"190 470 OFFCURVE",
"238 470 CURVE SMOOTH",
"286 470 OFFCURVE",
"310 445 OFFCURVE",
"310 394 CURVE SMOOTH",
"310 133 LINE SMOOTH",
"310 45 OFFCURVE",
"356 0 OFFCURVE",
"450 0 CURVE SMOOTH",
"455 0 LINE",
"451 -17 OFFCURVE",
"448 -33 OFFCURVE",
"448 -46 CURVE SMOOTH",
"448 -109 OFFCURVE",
"485 -140 OFFCURVE",
"558 -140 CURVE SMOOTH"
);
}
);
width = 967;
},
{
layerId = "791C41F8-8E37-43C9-BD6C-904761E149BF";
paths = (
{
closed = 1;
nodes = (
"707 -155 OFFCURVE",
"746 -141 OFFCURVE",
"782 -113 CURVE",
"744 -34 LINE",
"713 -51 OFFCURVE",
"691 -60 OFFCURVE",
"679 -60 CURVE SMOOTH",
"659 -60 OFFCURVE",
"643 -53 OFFCURVE",
"643 -27 CURVE SMOOTH",
"643 -24 OFFCURVE",
"644 -17 OFFCURVE",
"648 0 CURVE",
"687 0 LINE SMOOTH",
"817 0 OFFCURVE",
"883 73 OFFCURVE",
"883 217 CURVE SMOOTH",
"883 217 LINE SMOOTH",
"883 327 OFFCURVE",
"849 396 OFFCURVE",
"781 421 CURVE",
"895 421 LINE SMOOTH",
"953 421 OFFCURVE",
"982 395 OFFCURVE",
"982 342 CURVE SMOOTH",
"982 0 LINE",
"1113 0 LINE",
"1113 393 LINE SMOOTH",
"1113 495 OFFCURVE",
"1043 546 OFFCURVE",
"905 546 CURVE SMOOTH",
"601 546 LINE",
"601 425 LINE",
"705 419 OFFCURVE",
"757 354 OFFCURVE",
"757 228 CURVE SMOOTH",
"757 228 LINE SMOOTH",
"757 157 OFFCURVE",
"736 122 OFFCURVE",
"693 122 CURVE SMOOTH",
"686 122 LINE",
"697 150 OFFCURVE",
"701 171 OFFCURVE",
"701 188 CURVE SMOOTH",
"701 253 OFFCURVE",
"647 291 OFFCURVE",
"540 300 CURVE",
"514 204 LINE",
"561 198 OFFCURVE",
"584 181 OFFCURVE",
"584 152 CURVE SMOOTH",
"584 143 OFFCURVE",
"583 138 OFFCURVE",
"578 122 CURVE",
"543 122 LINE SMOOTH",
"504 122 OFFCURVE",
"484 145 OFFCURVE",
"484 190 CURVE SMOOTH",
"484 349 LINE SMOOTH",
"484 480 OFFCURVE",
"417 546 OFFCURVE",
"282 546 CURVE SMOOTH",
"146 546 OFFCURVE",
"78 479 OFFCURVE",
"78 344 CURVE SMOOTH",
"78 173 LINE SMOOTH",
"78 116 OFFCURVE",
"97 74 OFFCURVE",
"133 45 CURVE SMOOTH",
"168 17 OFFCURVE",
"218 2 OFFCURVE",
"280 0 CURVE",
"299 93 LINE",
"239 101 OFFCURVE",
"209 129 OFFCURVE",
"209 178 CURVE SMOOTH",
"209 347 LINE SMOOTH",
"209 396 OFFCURVE",
"234 421 OFFCURVE",
"282 421 CURVE SMOOTH",
"330 421 OFFCURVE",
"354 397 OFFCURVE",
"354 350 CURVE SMOOTH",
"354 192 LINE SMOOTH",
"354 65 OFFCURVE",
"417 0 OFFCURVE",
"542 0 CURVE SMOOTH",
"542 0 LINE",
"539 -15 OFFCURVE",
"538 -25 OFFCURVE",
"538 -41 CURVE SMOOTH",
"538 -112 OFFCURVE",
"585 -155 OFFCURVE",
"667 -155 CURVE SMOOTH"
);
}
);
width = 1162;
}
);
note = tha;
unicode = A9A1;
category = Letter;
},
{
glyphname = da;
lastChange = "2018-12-13 17:24:08 +0000";
layers = (
{
layerId = "BA48FBA0-A6DA-4EAF-9284-46C574130433";
paths = (
{
closed = 1;
nodes = (
"397 0 OFFCURVE",
"440 19 OFFCURVE",
"486 56 CURVE SMOOTH",
"568 121 LINE",
"568 49 OFFCURVE",
"611 0 OFFCURVE",
"689 0 CURVE SMOOTH",
"761 0 OFFCURVE",
"806 39 OFFCURVE",
"806 118 CURVE SMOOTH",
"806 188 OFFCURVE",
"765 236 OFFCURVE",
"689 236 CURVE SMOOTH",
"678 236 OFFCURVE",
"667 235 OFFCURVE",
"655 233 CURVE",
"655 328 LINE SMOOTH",
"655 423 OFFCURVE",
"701 470 OFFCURVE",
"792 470 CURVE SMOOTH",
"882 470 OFFCURVE",
"927 424 OFFCURVE",
"927 331 CURVE SMOOTH",
"927 0 LINE",
"1014 0 LINE",
"1014 330 LINE SMOOTH",
"1014 474 OFFCURVE",
"939 546 OFFCURVE",
"792 546 CURVE SMOOTH",
"644 546 OFFCURVE",
"568 472 OFFCURVE",
"568 325 CURVE SMOOTH",
"568 220 LINE",
"426 111 LINE SMOOTH",
"410 99 OFFCURVE",
"394 92 OFFCURVE",
"377 92 CURVE SMOOTH",
"360 92 OFFCURVE",
"352 106 OFFCURVE",
"352 132 CURVE SMOOTH",
"352 305 LINE SMOOTH",
"352 415 OFFCURVE",
"399 473 OFFCURVE",
"493 479 CURVE",
"493 546 LINE",
"238 546 LINE SMOOTH",
"132 546 OFFCURVE",
"78 493 OFFCURVE",
"78 388 CURVE SMOOTH",
"78 150 LINE SMOOTH",
"78 57 OFFCURVE",
"132 10 OFFCURVE",
"222 0 CURVE",
"240 68 LINE",
"190 76 OFFCURVE",
"165 104 OFFCURVE",
"165 154 CURVE SMOOTH",
"165 391 LINE SMOOTH",
"165 444 OFFCURVE",
"190 470 OFFCURVE",
"238 470 CURVE SMOOTH",
"347 470 LINE",
"292 454 OFFCURVE",
"265 404 OFFCURVE",
"265 321 CURVE SMOOTH",
"265 124 LINE SMOOTH",
"265 43 OFFCURVE",
"294 0 OFFCURVE",
"354 0 CURVE SMOOTH"
);
},
{
closed = 1;
nodes = (
"668 66 OFFCURVE",
"655 83 OFFCURVE",
"655 116 CURVE SMOOTH",
"655 162 LINE",
"666 165 OFFCURVE",
"675 167 OFFCURVE",
"684 167 CURVE SMOOTH",
"715 167 OFFCURVE",
"730 150 OFFCURVE",
"730 117 CURVE SMOOTH",
"730 85 OFFCURVE",
"721 66 OFFCURVE",
"693 66 CURVE SMOOTH"
);
}
);
width = 1063;
},
{
layerId = "791C41F8-8E37-43C9-BD6C-904761E149BF";
paths = (
{
closed = 1;
nodes = (
"476 -1 OFFCURVE",
"519 22 OFFCURVE",
"565 66 CURVE SMOOTH",
"627 125 LINE",
"630 46 OFFCURVE",
"692 0 OFFCURVE",
"801 0 CURVE SMOOTH",
"890 0 OFFCURVE",
"958 45 OFFCURVE",
"958 137 CURVE SMOOTH",
"958 224 OFFCURVE",
"898 274 OFFCURVE",
"801 274 CURVE SMOOTH",
"791 274 OFFCURVE",
"776 273 OFFCURVE",
"758 271 CURVE",
"758 287 LINE SMOOTH",
"758 376 OFFCURVE",
"808 421 OFFCURVE",
"908 421 CURVE SMOOTH",
"1008 421 OFFCURVE",
"1058 376 OFFCURVE",
"1058 287 CURVE SMOOTH",
"1058 0 LINE",
"1188 0 LINE",
"1188 286 LINE SMOOTH",
"1188 459 OFFCURVE",
"1095 546 OFFCURVE",
"908 546 CURVE SMOOTH",
"720 546 OFFCURVE",
"626 459 OFFCURVE",
"626 287 CURVE SMOOTH",
"626 253 LINE",
"509 145 LINE SMOOTH",
"496 133 OFFCURVE",
"485 125 OFFCURVE",
"475 125 CURVE SMOOTH",
"458 125 OFFCURVE",
"449 139 OFFCURVE",
"449 166 CURVE SMOOTH",
"449 242 LINE SMOOTH",
"449 358 OFFCURVE",
"502 419 OFFCURVE",
"605 425 CURVE",
"605 546 LINE",
"287 546 LINE SMOOTH",
"148 546 OFFCURVE",
"78 495 OFFCURVE",
"78 393 CURVE SMOOTH",
"78 173 LINE SMOOTH",
"78 60 OFFCURVE",
"154 5 OFFCURVE",
"280 0 CURVE",
"299 93 LINE",
"239 101 OFFCURVE",
"209 129 OFFCURVE",
"209 178 CURVE SMOOTH",
"209 342 LINE SMOOTH",
"209 395 OFFCURVE",
"239 421 OFFCURVE",
"296 421 CURVE SMOOTH",
"425 421 LINE",
"355 396 OFFCURVE",
"318 328 OFFCURVE",
"318 221 CURVE SMOOTH",
"318 123 LINE SMOOTH",
"318 42 OFFCURVE",
"356 -1 OFFCURVE",
"432 -1 CURVE SMOOTH"
);
},
{
closed = 1;
nodes = (
"771 95 OFFCURVE",
"757 110 OFFCURVE",
"757 141 CURVE SMOOTH",
"757 182 LINE",
"774 185 OFFCURVE",
"787 186 OFFCURVE",
"795 186 CURVE SMOOTH",
"826 186 OFFCURVE",
"842 169 OFFCURVE",
"842 136 CURVE SMOOTH",
"842 109 OFFCURVE",
"828 95 OFFCURVE",
"799 95 CURVE SMOOTH"
);
}
);
width = 1237;
}
);
note = da;
unicode = A9A2;
category = Letter;
},
{
glyphname = dha;
lastChange = "2018-12-13 17:24:08 +0000";
layers = (
{
layerId = "BA48FBA0-A6DA-4EAF-9284-46C574130433";
paths = (
{
closed = 1;
nodes = (
"240 68 LINE",
"190 76 OFFCURVE",
"165 104 OFFCURVE",
"165 154 CURVE SMOOTH",
"165 391 LINE SMOOTH",
"165 444 OFFCURVE",
"190 470 OFFCURVE",
"238 470 CURVE SMOOTH",
"286 470 OFFCURVE",
"310 445 OFFCURVE",
"310 394 CURVE SMOOTH",
"310 156 LINE SMOOTH",
"310 52 OFFCURVE",
"360 0 OFFCURVE",
"452 0 CURVE SMOOTH",
"497 0 OFFCURVE",
"530 21 OFFCURVE",
"550 63 CURVE",
"570 21 OFFCURVE",
"604 0 OFFCURVE",
"649 0 CURVE SMOOTH",
"741 0 OFFCURVE",
"791 52 OFFCURVE",
"791 156 CURVE SMOOTH",
"791 321 LINE SMOOTH",
"791 404 OFFCURVE",
"764 454 OFFCURVE",
"708 470 CURVE",
"818 470 LINE SMOOTH",
"866 470 OFFCURVE",
"891 444 OFFCURVE",
"891 391 CURVE SMOOTH",
"891 0 LINE",
"978 0 LINE",
"978 387 LINE SMOOTH",
"978 492 OFFCURVE",
"924 546 OFFCURVE",
"818 546 CURVE SMOOTH",
"563 546 LINE",
"563 479 LINE",
"657 473 OFFCURVE",
"704 415 OFFCURVE",
"704 305 CURVE SMOOTH",
"704 133 LINE SMOOTH",
"704 93 OFFCURVE",
"685 72 OFFCURVE",
"649 72 CURVE SMOOTH",
"613 72 OFFCURVE",
"594 93 OFFCURVE",
"594 133 CURVE SMOOTH",
"594 213 LINE",
"507 213 LINE",
"507 134 LINE SMOOTH",
"507 94 OFFCURVE",
"487 72 OFFCURVE",
"452 72 CURVE SMOOTH",
"416 72 OFFCURVE",
"396 94 OFFCURVE",
"396 134 CURVE SMOOTH",
"396 393 LINE SMOOTH",
"396 495 OFFCURVE",
"344 546 OFFCURVE",
"238 546 CURVE SMOOTH",
"132 546 OFFCURVE",
"78 493 OFFCURVE",
"78 388 CURVE SMOOTH",
"78 150 LINE SMOOTH",
"78 57 OFFCURVE",
"132 10 OFFCURVE",
"222 0 CURVE"
);
}
);
width = 1027;
},
{
layerId = "791C41F8-8E37-43C9-BD6C-904761E149BF";
paths = (
{
closed = 1;
nodes = (
"299 93 LINE",
"239 101 OFFCURVE",
"209 129 OFFCURVE",
"209 178 CURVE SMOOTH",
"209 347 LINE SMOOTH",
"209 396 OFFCURVE",
"234 421 OFFCURVE",
"282 421 CURVE SMOOTH",
"330 421 OFFCURVE",
"354 397 OFFCURVE",
"354 350 CURVE SMOOTH",
"354 172 LINE SMOOTH",
"354 58 OFFCURVE",
"414 0 OFFCURVE",
"525 0 CURVE SMOOTH",
"593 0 OFFCURVE",
"644 24 OFFCURVE",
"677 72 CURVE",
"710 24 OFFCURVE",
"761 0 OFFCURVE",
"830 0 CURVE SMOOTH",
"941 0 OFFCURVE",
"1001 57 OFFCURVE",
"1001 171 CURVE SMOOTH",
"1001 215 LINE SMOOTH",
"1001 325 OFFCURVE",
"963 396 OFFCURVE",
"895 421 CURVE",
"1009 421 LINE SMOOTH",
"1067 421 OFFCURVE",
"1097 395 OFFCURVE",
"1097 342 CURVE SMOOTH",
"1097 0 LINE",
"1228 0 LINE",
"1228 392 LINE SMOOTH",
"1228 494 OFFCURVE",
"1157 546 OFFCURVE",
"1019 546 CURVE SMOOTH",
"715 546 LINE",
"715 425 LINE",
"811 420 OFFCURVE",
"870 357 OFFCURVE",
"870 250 CURVE SMOOTH",
"870 181 LINE SMOOTH",
"870 141 OFFCURVE",
"847 121 OFFCURVE",
"805 121 CURVE SMOOTH",
"764 121 OFFCURVE",
"740 142 OFFCURVE",
"740 182 CURVE SMOOTH",
"740 272 LINE",
"614 272 LINE",
"614 181 LINE SMOOTH",
"614 141 OFFCURVE",
"591 121 OFFCURVE",
"549 121 CURVE SMOOTH",
"508 121 OFFCURVE",
"484 142 OFFCURVE",
"484 182 CURVE SMOOTH",
"484 349 LINE SMOOTH",
"484 480 OFFCURVE",
"417 546 OFFCURVE",
"282 546 CURVE SMOOTH",
"146 546 OFFCURVE",
"78 479 OFFCURVE",
"78 344 CURVE SMOOTH",
"78 173 LINE SMOOTH",
"78 60 OFFCURVE",
"154 5 OFFCURVE",
"280 0 CURVE"
);
}
);
width = 1277;
}
);
note = ddha;
unicode = A9A3;
category = Letter;
},
{
glyphname = na;
lastChange = "2018-12-13 17:24:08 +0000";
layers = (
{
layerId = "BA48FBA0-A6DA-4EAF-9284-46C574130433";
paths = (
{
closed = 1;
nodes = (
"240 68 LINE",
"190 76 OFFCURVE",
"165 104 OFFCURVE",
"165 154 CURVE SMOOTH",
"165 391 LINE SMOOTH",
"165 444 OFFCURVE",
"190 470 OFFCURVE",
"238 470 CURVE SMOOTH",
"286 470 OFFCURVE",
"310 445 OFFCURVE",
"310 394 CURVE SMOOTH",
"310 0 LINE",
"396 0 LINE",
"396 182 LINE",
"495 182 LINE",
"495 115 LINE SMOOTH",
"495 38 OFFCURVE",
"538 0 OFFCURVE",
"616 0 CURVE SMOOTH",
"688 0 OFFCURVE",
"733 39 OFFCURVE",
"733 118 CURVE SMOOTH",
"733 201 OFFCURVE",
"673 255 OFFCURVE",
"582 257 CURVE",
"582 328 LINE SMOOTH",
"582 423 OFFCURVE",
"628 470 OFFCURVE",
"718 470 CURVE SMOOTH",
"809 470 OFFCURVE",
"854 424 OFFCURVE",
"854 331 CURVE SMOOTH",
"854 0 LINE",
"940 0 LINE",
"940 330 LINE SMOOTH",
"940 474 OFFCURVE",
"866 546 OFFCURVE",
"718 546 CURVE SMOOTH",
"570 546 OFFCURVE",
"495 468 OFFCURVE",
"495 321 CURVE SMOOTH",
"495 257 LINE",
"396 257 LINE",
"396 393 LINE SMOOTH",
"396 495 OFFCURVE",
"344 546 OFFCURVE",
"238 546 CURVE SMOOTH",
"132 546 OFFCURVE",
"78 493 OFFCURVE",
"78 388 CURVE SMOOTH",
"78 150 LINE SMOOTH",
"78 57 OFFCURVE",
"132 10 OFFCURVE",
"222 0 CURVE"
);
},
{
closed = 1;
nodes = (
"595 71 OFFCURVE",
"582 86 OFFCURVE",
"582 116 CURVE SMOOTH",
"582 182 LINE",
"627 182 OFFCURVE",
"657 160 OFFCURVE",
"657 117 CURVE SMOOTH",
"657 89 OFFCURVE",
"649 71 OFFCURVE",
"620 71 CURVE SMOOTH"
);
}
);
width = 989;
},
{
layerId = "791C41F8-8E37-43C9-BD6C-904761E149BF";
paths = (
{
closed = 1;
nodes = (
"299 93 LINE",
"239 101 OFFCURVE",
"209 129 OFFCURVE",
"209 178 CURVE SMOOTH",
"209 347 LINE SMOOTH",
"209 396 OFFCURVE",
"234 421 OFFCURVE",
"282 421 CURVE SMOOTH",
"330 421 OFFCURVE",
"354 397 OFFCURVE",
"354 350 CURVE SMOOTH",
"354 0 LINE",
"484 0 LINE",
"484 196 LINE",
"573 196 LINE",
"573 170 LINE SMOOTH",
"573 57 OFFCURVE",
"633 0 OFFCURVE",
"752 0 CURVE SMOOTH",
"839 0 OFFCURVE",
"909 60 OFFCURVE",
"909 141 CURVE SMOOTH",
"909 253 OFFCURVE",
"829 299 OFFCURVE",
"705 301 CURVE",
"705 301 LINE SMOOTH",
"707 381 OFFCURVE",
"756 421 OFFCURVE",
"855 421 CURVE SMOOTH",
"955 421 OFFCURVE",
"1005 376 OFFCURVE",
"1005 287 CURVE SMOOTH",
"1005 0 LINE",
"1136 0 LINE",
"1136 286 LINE SMOOTH",
"1136 459 OFFCURVE",
"1042 546 OFFCURVE",
"855 546 CURVE SMOOTH",
"670 546 OFFCURVE",
"577 464 OFFCURVE",
"574 301 CURVE SMOOTH",
"574 301 LINE",
"484 301 LINE",
"484 349 LINE SMOOTH",
"484 480 OFFCURVE",
"417 546 OFFCURVE",
"282 546 CURVE SMOOTH",
"146 546 OFFCURVE",
"78 479 OFFCURVE",
"78 344 CURVE SMOOTH",
"78 173 LINE SMOOTH",
"78 60 OFFCURVE",
"154 5 OFFCURVE",
"280 0 CURVE"
);
},
{
closed = 1;
nodes = (
"720 98 OFFCURVE",
"704 116 OFFCURVE",
"704 146 CURVE SMOOTH",
"704 196 LINE",
"768 196 OFFCURVE",
"800 178 OFFCURVE",
"800 142 CURVE SMOOTH",
"800 116 OFFCURVE",
"788 98 OFFCURVE",
"753 98 CURVE SMOOTH"
);
}
);
width = 1185;
}
);
note = na;
unicode = A9A4;
category = Letter;
},
{
glyphname = pa;
lastChange = "2018-12-13 17:24:08 +0000";
layers = (
{
layerId = "BA48FBA0-A6DA-4EAF-9284-46C574130433";
paths = (
{
closed = 1;
nodes = (
"240 68 LINE",
"190 76 OFFCURVE",
"165 104 OFFCURVE",
"165 154 CURVE SMOOTH",
"165 391 LINE SMOOTH",
"165 444 OFFCURVE",
"190 470 OFFCURVE",
"238 470 CURVE SMOOTH",
"286 470 OFFCURVE",
"310 445 OFFCURVE",
"310 394 CURVE SMOOTH",
"310 133 LINE SMOOTH",
"310 45 OFFCURVE",
"356 0 OFFCURVE",
"450 0 CURVE SMOOTH",
"542 0 LINE SMOOTH",
"636 0 OFFCURVE",
"683 45 OFFCURVE",
"683 133 CURVE SMOOTH",
"683 391 LINE SMOOTH",
"683 444 OFFCURVE",
"708 470 OFFCURVE",
"755 470 CURVE SMOOTH",
"803 470 OFFCURVE",
"827 445 OFFCURVE",
"827 394 CURVE SMOOTH",
"827 0 LINE",
"914 0 LINE",
"914 393 LINE SMOOTH",
"914 495 OFFCURVE",
"861 546 OFFCURVE",
"755 546 CURVE SMOOTH",
"649 546 OFFCURVE",
"596 493 OFFCURVE",
"596 388 CURVE SMOOTH",
"596 131 LINE SMOOTH",
"596 89 OFFCURVE",
"576 68 OFFCURVE",
"537 68 CURVE SMOOTH",
"455 68 LINE SMOOTH",
"416 68 OFFCURVE",
"396 89 OFFCURVE",
"396 131 CURVE SMOOTH",
"396 393 LINE SMOOTH",
"396 495 OFFCURVE",
"344 546 OFFCURVE",
"238 546 CURVE SMOOTH",
"132 546 OFFCURVE",
"78 493 OFFCURVE",
"78 388 CURVE SMOOTH",
"78 150 LINE SMOOTH",
"78 57 OFFCURVE",
"132 10 OFFCURVE",
"222 0 CURVE"
);
}
);
width = 963;
},
{
layerId = "791C41F8-8E37-43C9-BD6C-904761E149BF";
paths = (
{
closed = 1;
nodes = (
"299 93 LINE",
"239 101 OFFCURVE",
"209 129 OFFCURVE",
"209 178 CURVE SMOOTH",
"209 347 LINE SMOOTH",
"209 396 OFFCURVE",
"234 421 OFFCURVE",
"282 421 CURVE SMOOTH",
"330 421 OFFCURVE",
"354 397 OFFCURVE",
"354 350 CURVE SMOOTH",
"354 187 LINE SMOOTH",
"354 63 OFFCURVE",
"422 0 OFFCURVE",
"559 0 CURVE SMOOTH",
"591 0 LINE SMOOTH",
"726 0 OFFCURVE",
"795 63 OFFCURVE",
"795 187 CURVE SMOOTH",
"795 347 LINE SMOOTH",
"795 396 OFFCURVE",
"820 421 OFFCURVE",
"868 421 CURVE SMOOTH",
"916 421 OFFCURVE",
"939 397 OFFCURVE",
"939 350 CURVE SMOOTH",
"939 0 LINE",
"1070 0 LINE",
"1070 349 LINE SMOOTH",
"1070 480 OFFCURVE",
"1003 546 OFFCURVE",
"868 546 CURVE SMOOTH",
"732 546 OFFCURVE",
"664 479 OFFCURVE",
"664 344 CURVE SMOOTH",
"664 190 LINE SMOOTH",
"664 145 OFFCURVE",
"641 122 OFFCURVE",
"596 122 CURVE SMOOTH",
"553 122 LINE SMOOTH",
"507 122 OFFCURVE",
"484 145 OFFCURVE",
"484 190 CURVE SMOOTH",
"484 349 LINE SMOOTH",
"484 480 OFFCURVE",
"417 546 OFFCURVE",
"282 546 CURVE SMOOTH",
"146 546 OFFCURVE",
"78 479 OFFCURVE",
"78 344 CURVE SMOOTH",
"78 173 LINE SMOOTH",
"78 60 OFFCURVE",
"154 5 OFFCURVE",
"280 0 CURVE"
);
}
);
width = 1119;
}
);
note = pa;
unicode = A9A5;
category = Letter;
},
{
glyphname = pha;
lastChange = "2018-12-13 17:24:08 +0000";
layers = (
{
layerId = "BA48FBA0-A6DA-4EAF-9284-46C574130433";
paths = (
{
closed = 1;
nodes = (
"240 68 LINE",
"190 76 OFFCURVE",
"165 104 OFFCURVE",
"165 154 CURVE SMOOTH",
"165 391 LINE SMOOTH",
"165 444 OFFCURVE",
"190 470 OFFCURVE",
"238 470 CURVE SMOOTH",
"286 470 OFFCURVE",
"310 445 OFFCURVE",
"310 394 CURVE SMOOTH",
"310 156 LINE SMOOTH",
"310 52 OFFCURVE",
"360 0 OFFCURVE",
"452 0 CURVE SMOOTH",
"497 0 OFFCURVE",
"530 21 OFFCURVE",
"550 63 CURVE",
"570 21 OFFCURVE",
"604 0 OFFCURVE",
"649 0 CURVE SMOOTH",
"741 0 OFFCURVE",
"791 52 OFFCURVE",
"791 156 CURVE SMOOTH",
"791 219 LINE",
"856 193 OFFCURVE",
"891 145 OFFCURVE",
"891 74 CURVE SMOOTH",
"891 0 LINE",
"978 0 LINE",
"978 61 LINE SMOOTH",
"978 179 OFFCURVE",
"915 262 OFFCURVE",
"794 301 CURVE",
"794 307 LINE SMOOTH",
"794 450 OFFCURVE",
"740 545 OFFCURVE",
"644 545 CURVE SMOOTH",
"578 545 OFFCURVE",
"534 508 OFFCURVE",
"534 436 CURVE SMOOTH",
"534 349 OFFCURVE",
"600 297 OFFCURVE",
"704 259 CURVE",
"704 132 LINE SMOOTH",
"704 92 OFFCURVE",
"685 72 OFFCURVE",
"649 72 CURVE SMOOTH",
"613 72 OFFCURVE",
"594 92 OFFCURVE",
"594 132 CURVE SMOOTH",
"594 213 LINE",
"507 213 LINE",
"507 132 LINE SMOOTH",
"507 92 OFFCURVE",
"487 72 OFFCURVE",
"452 72 CURVE SMOOTH",
"416 72 OFFCURVE",
"396 92 OFFCURVE",
"396 132 CURVE SMOOTH",
"396 393 LINE SMOOTH",
"396 495 OFFCURVE",
"344 546 OFFCURVE",
"238 546 CURVE SMOOTH",
"132 546 OFFCURVE",
"78 493 OFFCURVE",
"78 388 CURVE SMOOTH",
"78 150 LINE SMOOTH",
"78 57 OFFCURVE",
"132 10 OFFCURVE",
"222 0 CURVE"
);
},
{
closed = 1;
nodes = (
"643 358 OFFCURVE",
"610 392 OFFCURVE",
"610 432 CURVE SMOOTH",
"610 457 OFFCURVE",
"622 469 OFFCURVE",
"645 469 CURVE SMOOTH",
"681 469 OFFCURVE",
"701 424 OFFCURVE",
"707 333 CURVE",
"707 333 LINE"
);
}
);
width = 1027;
},
{
layerId = "791C41F8-8E37-43C9-BD6C-904761E149BF";
paths = (
{
closed = 1;
nodes = (
"299 93 LINE",
"239 101 OFFCURVE",
"209 129 OFFCURVE",
"209 178 CURVE SMOOTH",
"209 347 LINE SMOOTH",
"209 396 OFFCURVE",
"234 421 OFFCURVE",
"282 421 CURVE SMOOTH",
"330 421 OFFCURVE",
"354 397 OFFCURVE",
"354 350 CURVE SMOOTH",
"354 171 LINE SMOOTH",
"354 57 OFFCURVE",
"414 0 OFFCURVE",
"525 0 CURVE SMOOTH",
"593 0 OFFCURVE",
"644 24 OFFCURVE",
"677 72 CURVE",
"710 24 OFFCURVE",
"761 0 OFFCURVE",
"830 0 CURVE SMOOTH",
"941 0 OFFCURVE",
"1001 58 OFFCURVE",
"1001 175 CURVE SMOOTH",
"1001 228 LINE",
"1051 211 OFFCURVE",
"1079 174 OFFCURVE",
"1079 121 CURVE SMOOTH",
"1079 0 LINE",
"1209 0 LINE",
"1209 109 LINE SMOOTH",
"1209 220 OFFCURVE",
"1138 297 OFFCURVE",
"1001 339 CURVE",
"1001 376 LINE SMOOTH",
"1001 489 OFFCURVE",
"949 546 OFFCURVE",
"846 546 CURVE SMOOTH",
"762 546 OFFCURVE",
"704 492 OFFCURVE",
"704 409 CURVE SMOOTH",
"704 322 OFFCURVE",
"777 268 OFFCURVE",
"870 264 CURVE",
"870 182 LINE SMOOTH",
"870 142 OFFCURVE",
"847 121 OFFCURVE",
"805 121 CURVE SMOOTH",
"764 121 OFFCURVE",
"740 142 OFFCURVE",
"740 182 CURVE SMOOTH",
"740 272 LINE",
"614 272 LINE",
"614 181 LINE SMOOTH",
"614 141 OFFCURVE",
"591 121 OFFCURVE",
"549 121 CURVE SMOOTH",
"508 121 OFFCURVE",
"484 142 OFFCURVE",
"484 182 CURVE SMOOTH",
"484 349 LINE SMOOTH",
"484 480 OFFCURVE",
"417 546 OFFCURVE",
"282 546 CURVE SMOOTH",
"146 546 OFFCURVE",
"78 480 OFFCURVE",
"78 345 CURVE SMOOTH",
"78 173 LINE SMOOTH",
"78 60 OFFCURVE",
"154 5 OFFCURVE",
"280 0 CURVE"
);
},
{
closed = 1;
nodes = (
"827 365 OFFCURVE",
"805 381 OFFCURVE",
"805 413 CURVE SMOOTH",
"805 433 OFFCURVE",
"817 443 OFFCURVE",
"838 443 CURVE SMOOTH",
"859 443 OFFCURVE",
"870 431 OFFCURVE",
"870 410 CURVE SMOOTH",
"870 364 LINE"
);
}
);
width = 1258;
}
);
note = pha;
unicode = A9A6;
category = Letter;
},
{
glyphname = ba;
lastChange = "2018-12-13 17:24:08 +0000";
layers = (
{
layerId = "BA48FBA0-A6DA-4EAF-9284-46C574130433";
paths = (
{
closed = 1;
nodes = (
"927 0 LINE",
"927 391 LINE SMOOTH",
"927 444 OFFCURVE",
"952 470 OFFCURVE",
"1000 470 CURVE SMOOTH",
"1047 470 OFFCURVE",
"1071 445 OFFCURVE",
"1071 394 CURVE SMOOTH",
"1071 0 LINE",
"1158 0 LINE",
"1158 393 LINE SMOOTH",
"1158 495 OFFCURVE",
"1107 546 OFFCURVE",
"1004 546 CURVE SMOOTH",
"952 546 OFFCURVE",
"912 525 OFFCURVE",
"886 483 CURVE",
"867 525 OFFCURVE",
"832 546 OFFCURVE",
"783 546 CURVE SMOOTH",
"736 546 OFFCURVE",
"704 526 OFFCURVE",
"686 485 CURVE",
"663 527 OFFCURVE",
"626 548 OFFCURVE",
"579 548 CURVE SMOOTH",
"499 548 OFFCURVE",
"455 503 OFFCURVE",
"455 434 CURVE SMOOTH",
"455 361 OFFCURVE",
"495 318 OFFCURVE",
"574 301 CURVE",
"603 360 LINE",
"558 373 OFFCURVE",
"535 395 OFFCURVE",
"535 428 CURVE SMOOTH",
"535 458 OFFCURVE",
"552 473 OFFCURVE",
"579 473 CURVE SMOOTH",
"618 473 OFFCURVE",
"641 441 OFFCURVE",
"647 384 CURVE",
"715 384 LINE",
"722 441 OFFCURVE",
"745 470 OFFCURVE",
"783 470 CURVE SMOOTH",
"821 470 OFFCURVE",
"840 445 OFFCURVE",
"840 394 CURVE SMOOTH",
"840 0 LINE"
);
},
{
closed = 1;
nodes = (
"676 0 LINE",
"693 30 LINE",
"563 219 LINE",
"469 219 LINE",
"575 68 LINE",
"455 68 LINE SMOOTH",
"416 68 OFFCURVE",
"396 89 OFFCURVE",
"396 131 CURVE SMOOTH",
"396 393 LINE SMOOTH",
"396 495 OFFCURVE",
"344 546 OFFCURVE",
"238 546 CURVE SMOOTH",
"132 546 OFFCURVE",
"78 493 OFFCURVE",
"78 388 CURVE SMOOTH",
"78 149 LINE SMOOTH",
"78 53 OFFCURVE",
"137 9 OFFCURVE",
"222 0 CURVE",
"240 68 LINE",
"190 76 OFFCURVE",
"165 104 OFFCURVE",
"165 154 CURVE SMOOTH",
"165 391 LINE SMOOTH",
"165 444 OFFCURVE",
"190 470 OFFCURVE",
"238 470 CURVE SMOOTH",
"286 470 OFFCURVE",
"310 445 OFFCURVE",
"310 394 CURVE SMOOTH",
"310 133 LINE SMOOTH",
"310 45 OFFCURVE",
"357 0 OFFCURVE",
"450 0 CURVE SMOOTH"
);
}
);
width = 1207;
},
{
layerId = "791C41F8-8E37-43C9-BD6C-904761E149BF";
paths = (
{
closed = 1;
nodes = (
"1111 0 LINE",
"1111 352 LINE SMOOTH",
"1111 398 OFFCURVE",
"1135 421 OFFCURVE",
"1182 421 CURVE SMOOTH",
"1228 421 OFFCURVE",
"1251 397 OFFCURVE",
"1251 350 CURVE SMOOTH",
"1251 0 LINE",
"1382 0 LINE",
"1382 349 LINE SMOOTH",
"1382 480 OFFCURVE",
"1324 546 OFFCURVE",
"1208 546 CURVE SMOOTH",
"1154 546 OFFCURVE",
"1109 523 OFFCURVE",
"1073 479 CURVE",
"1044 523 OFFCURVE",
"999 546 OFFCURVE",
"938 546 CURVE SMOOTH",
"872 546 OFFCURVE",
"830 522 OFFCURVE",
"812 476 CURVE",
"789 524 OFFCURVE",
"741 548 OFFCURVE",
"668 548 CURVE SMOOTH",
"580 548 OFFCURVE",
"522 486 OFFCURVE",
"522 410 CURVE SMOOTH",
"522 322 OFFCURVE",
"575 271 OFFCURVE",
"681 257 CURVE",
"709 326 LINE",
"664 338 OFFCURVE",
"642 357 OFFCURVE",
"642 384 CURVE SMOOTH",
"642 411 OFFCURVE",
"660 424 OFFCURVE",
"690 424 CURVE SMOOTH",
"732 424 OFFCURVE",
"757 393 OFFCURVE",
"764 335 CURVE",
"856 335 LINE",
"863 393 OFFCURVE",
"884 421 OFFCURVE",
"918 421 CURVE SMOOTH",
"960 421 OFFCURVE",
"980 399 OFFCURVE",
"980 355 CURVE SMOOTH",
"980 0 LINE"
);
},
{
closed = 1;
nodes = (
"802 0 LINE",
"819 30 LINE",
"699 219 LINE",
"610 219 LINE",
"667 122 LINE",
"553 122 LINE SMOOTH",
"507 122 OFFCURVE",
"484 145 OFFCURVE",
"484 190 CURVE SMOOTH",
"484 349 LINE SMOOTH",
"484 480 OFFCURVE",
"417 546 OFFCURVE",
"282 546 CURVE SMOOTH",
"146 546 OFFCURVE",
"78 479 OFFCURVE",
"78 344 CURVE SMOOTH",
"78 173 LINE SMOOTH",
"78 60 OFFCURVE",
"154 5 OFFCURVE",
"280 0 CURVE",
"299 93 LINE",
"239 101 OFFCURVE",
"209 129 OFFCURVE",
"209 178 CURVE SMOOTH",
"209 347 LINE SMOOTH",
"209 396 OFFCURVE",
"234 421 OFFCURVE",
"282 421 CURVE SMOOTH",
"330 421 OFFCURVE",
"354 397 OFFCURVE",
"354 350 CURVE SMOOTH",
"354 187 LINE SMOOTH",
"354 63 OFFCURVE",
"421 0 OFFCURVE",
"558 0 CURVE SMOOTH"
);
}
);
width = 1431;
}
);
note = ba;
unicode = A9A7;
category = Letter;
},
{
glyphname = bha;
lastChange = "2018-12-13 17:24:08 +0000";
layers = (
{
layerId = "BA48FBA0-A6DA-4EAF-9284-46C574130433";
paths = (
{
closed = 1;
nodes = (
"525 -1 OFFCURVE",
"557 35 OFFCURVE",
"557 104 CURVE SMOOTH",
"557 415 LINE SMOOTH",
"557 457 OFFCURVE",
"577 478 OFFCURVE",
"616 478 CURVE SMOOTH",
"732 478 LINE",
"668 390 LINE",
"763 390 LINE",
"850 516 LINE",
"833 546 LINE",
"611 546 LINE SMOOTH",
"517 546 OFFCURVE",
"470 500 OFFCURVE",
"470 413 CURVE SMOOTH",
"470 111 LINE SMOOTH",
"470 92 OFFCURVE",
"463 83 OFFCURVE",
"450 83 CURVE SMOOTH",
"438 83 OFFCURVE",
"427 89 OFFCURVE",
"306 139 CURVE",
"377 207 OFFCURVE",
"414 292 OFFCURVE",
"414 393 CURVE SMOOTH",
"414 494 OFFCURVE",
"367 546 OFFCURVE",
"273 546 CURVE SMOOTH",
"42 546 LINE",
"25 516 LINE",
"112 390 LINE",
"207 390 LINE",
"143 478 LINE",
"268 478 LINE SMOOTH",
"305 478 OFFCURVE",
"323 441 OFFCURVE",
"323 367 CURVE SMOOTH",
"323 359 LINE SMOOTH",
"323 280 OFFCURVE",
"277 203 OFFCURVE",
"192 128 CURVE",
"192 100 LINE",
"412 10 LINE SMOOTH",
"430 3 OFFCURVE",
"447 -1 OFFCURVE",
"462 -1 CURVE SMOOTH"
);
},
{
closed = 1;
nodes = (
"793 0 LINE",
"793 117 LINE SMOOTH",
"793 224 OFFCURVE",
"737 278 OFFCURVE",
"630 278 CURVE SMOOTH",
"324 278 LINE",
"313 205 LINE",
"622 205 LINE SMOOTH",
"678 205 OFFCURVE",
"707 176 OFFCURVE",
"707 117 CURVE SMOOTH",
"707 0 LINE"
);
}
);
width = 1019;
},
{
layerId = "791C41F8-8E37-43C9-BD6C-904761E149BF";
paths = (
{
closed = 1;
nodes = (
"669 -1 OFFCURVE",
"713 34 OFFCURVE",
"713 104 CURVE SMOOTH",
"713 333 LINE SMOOTH",
"713 394 OFFCURVE",
"745 424 OFFCURVE",
"808 424 CURVE SMOOTH",
"875 424 LINE",
"823 342 LINE",
"917 342 LINE",
"1037 516 LINE",
"1020 546 LINE",
"815 546 LINE SMOOTH",
"660 546 OFFCURVE",
"582 474 OFFCURVE",
"582 330 CURVE SMOOTH",
"582 155 LINE SMOOTH",
"582 136 OFFCURVE",
"571 126 OFFCURVE",
"552 126 CURVE SMOOTH",
"538 126 OFFCURVE",
"525 132 OFFCURVE",
"408 173 CURVE",
"467 251 OFFCURVE",
"506 324 OFFCURVE",
"506 393 CURVE SMOOTH",
"506 494 OFFCURVE",
"451 546 OFFCURVE",
"341 546 CURVE SMOOTH",
"70 546 LINE",
"53 516 LINE",
"173 342 LINE",
"267 342 LINE",
"215 424 LINE",
"307 424 LINE SMOOTH",
"350 424 OFFCURVE",
"371 405 OFFCURVE",
"371 367 CURVE SMOOTH",
"371 359 LINE SMOOTH",
"371 307 OFFCURVE",
"321 232 OFFCURVE",
"245 147 CURVE",
"245 100 LINE",
"485 19 LINE SMOOTH",
"523 6 OFFCURVE",
"556 -1 OFFCURVE",
"584 -1 CURVE SMOOTH"
);
},
{
closed = 1;
nodes = (
"974 0 LINE",
"974 149 LINE SMOOTH",
"974 269 OFFCURVE",
"911 332 OFFCURVE",
"791 332 CURVE SMOOTH",
"442 332 LINE",
"438 229 LINE",
"782 229 LINE SMOOTH",
"822 229 OFFCURVE",
"843 204 OFFCURVE",
"843 151 CURVE SMOOTH",
"843 0 LINE"
);
}
);
width = 1019;
}
);
note = bha;
unicode = A9A8;
category = Letter;
},
{
glyphname = ma;
lastChange = "2018-12-13 17:24:08 +0000";
layers = (
{
layerId = "BA48FBA0-A6DA-4EAF-9284-46C574130433";
paths = (
{
closed = 1;
nodes = (
"240 68 LINE",
"190 76 OFFCURVE",
"165 104 OFFCURVE",
"165 154 CURVE SMOOTH",
"165 391 LINE SMOOTH",
"165 444 OFFCURVE",
"190 470 OFFCURVE",
"238 470 CURVE SMOOTH",
"323 470 LINE",
"297 451 OFFCURVE",
"285 429 OFFCURVE",
"285 404 CURVE SMOOTH",
"285 343 OFFCURVE",
"319 302 OFFCURVE",
"385 282 CURVE",
"385 277 LINE",
"313 257 OFFCURVE",
"266 222 OFFCURVE",
"266 146 CURVE SMOOTH",
"266 48 OFFCURVE",
"331 0 OFFCURVE",
"428 0 CURVE SMOOTH",
"549 0 LINE SMOOTH",
"643 0 OFFCURVE",
"689 45 OFFCURVE",
"689 133 CURVE SMOOTH",
"689 391 LINE SMOOTH",
"689 444 OFFCURVE",
"714 470 OFFCURVE",
"762 470 CURVE SMOOTH",
"810 470 OFFCURVE",
"834 445 OFFCURVE",
"834 394 CURVE SMOOTH",
"834 0 LINE",
"921 0 LINE",
"921 393 LINE SMOOTH",
"921 495 OFFCURVE",
"868 546 OFFCURVE",
"762 546 CURVE SMOOTH",
"656 546 OFFCURVE",
"603 493 OFFCURVE",
"603 388 CURVE SMOOTH",
"603 131 LINE SMOOTH",
"603 89 OFFCURVE",
"583 68 OFFCURVE",
"544 68 CURVE SMOOTH",
"438 68 LINE SMOOTH",
"381 68 OFFCURVE",
"354 94 OFFCURVE",
"354 146 CURVE SMOOTH",
"354 211 OFFCURVE",
"396 243 OFFCURVE",
"480 243 CURVE SMOOTH",
"529 243 LINE",
"529 315 LINE",
"497 315 LINE SMOOTH",
"412 315 OFFCURVE",
"369 342 OFFCURVE",
"369 397 CURVE SMOOTH",
"369 444 OFFCURVE",
"395 470 OFFCURVE",
"447 470 CURVE SMOOTH",
"532 470 LINE",
"532 546 LINE",
"238 546 LINE SMOOTH",
"132 546 OFFCURVE",
"78 493 OFFCURVE",
"78 388 CURVE SMOOTH",
"78 150 LINE SMOOTH",
"78 57 OFFCURVE",
"132 10 OFFCURVE",
"222 0 CURVE"
);
}
);
width = 970;
},
{
layerId = "791C41F8-8E37-43C9-BD6C-904761E149BF";
paths = (
{
closed = 1;
nodes = (
"299 93 LINE",
"239 101 OFFCURVE",
"209 129 OFFCURVE",
"209 178 CURVE SMOOTH",
"209 344 LINE SMOOTH",
"209 393 OFFCURVE",
"241 421 OFFCURVE",
"292 421 CURVE SMOOTH",
"371 421 LINE",
"353 408 OFFCURVE",
"344 391 OFFCURVE",
"344 371 CURVE SMOOTH",
"344 323 OFFCURVE",
"377 294 OFFCURVE",
"433 282 CURVE",
"433 277 LINE",
"360 252 OFFCURVE",
"323 208 OFFCURVE",
"323 146 CURVE SMOOTH",
"323 43 OFFCURVE",
"410 0 OFFCURVE",
"524 0 CURVE SMOOTH",
"604 0 LINE SMOOTH",
"741 0 OFFCURVE",
"809 63 OFFCURVE",
"809 187 CURVE SMOOTH",
"809 347 LINE SMOOTH",
"809 396 OFFCURVE",
"833 421 OFFCURVE",
"881 421 CURVE SMOOTH",
"929 421 OFFCURVE",
"953 397 OFFCURVE",
"953 350 CURVE SMOOTH",
"953 0 LINE",
"1084 0 LINE",
"1084 349 LINE SMOOTH",
"1084 480 OFFCURVE",
"1017 546 OFFCURVE",
"881 546 CURVE SMOOTH",
"746 546 OFFCURVE",
"678 479 OFFCURVE",
"678 344 CURVE SMOOTH",
"678 190 LINE SMOOTH",
"678 145 OFFCURVE",
"655 122 OFFCURVE",
"609 122 CURVE SMOOTH",
"534 122 LINE SMOOTH",
"485 122 OFFCURVE",
"460 139 OFFCURVE",
"460 173 CURVE SMOOTH",
"460 207 OFFCURVE",
"484 224 OFFCURVE",
"533 224 CURVE SMOOTH",
"616 224 LINE",
"616 334 LINE",
"545 334 LINE SMOOTH",
"505 334 OFFCURVE",
"485 350 OFFCURVE",
"485 379 CURVE SMOOTH",
"485 409 OFFCURVE",
"506 426 OFFCURVE",
"545 426 CURVE SMOOTH",
"619 426 LINE",
"619 546 LINE",
"287 546 LINE SMOOTH",
"149 546 OFFCURVE",
"78 493 OFFCURVE",
"78 392 CURVE SMOOTH",
"78 173 LINE SMOOTH",
"78 64 OFFCURVE",
"146 6 OFFCURVE",
"280 0 CURVE"
);
}
);
width = 1133;
}
);
note = ma;
unicode = A9A9;
category = Letter;
},
{
glyphname = ya;
lastChange = "2018-12-13 17:24:08 +0000";
layers = (
{
layerId = "BA48FBA0-A6DA-4EAF-9284-46C574130433";
paths = (
{
closed = 1;
nodes = (
"240 68 LINE",
"190 76 OFFCURVE",
"165 104 OFFCURVE",
"165 154 CURVE SMOOTH",
"165 391 LINE SMOOTH",
"165 444 OFFCURVE",
"190 470 OFFCURVE",
"238 470 CURVE SMOOTH",
"286 470 OFFCURVE",
"310 445 OFFCURVE",
"310 394 CURVE SMOOTH",
"310 133 LINE SMOOTH",
"310 45 OFFCURVE",
"356 0 OFFCURVE",
"450 0 CURVE SMOOTH",
"493 0 LINE SMOOTH",
"587 0 OFFCURVE",
"634 45 OFFCURVE",
"634 133 CURVE SMOOTH",
"634 391 LINE SMOOTH",
"634 444 OFFCURVE",
"659 470 OFFCURVE",
"707 470 CURVE SMOOTH",
"754 470 OFFCURVE",
"778 445 OFFCURVE",
"778 394 CURVE SMOOTH",
"778 133 LINE SMOOTH",
"778 45 OFFCURVE",
"825 0 OFFCURVE",
"919 0 CURVE SMOOTH",
"962 0 LINE SMOOTH",
"1056 0 OFFCURVE",
"1103 45 OFFCURVE",
"1103 133 CURVE SMOOTH",
"1103 391 LINE SMOOTH",
"1103 444 OFFCURVE",
"1127 470 OFFCURVE",
"1175 470 CURVE SMOOTH",
"1223 470 OFFCURVE",
"1247 445 OFFCURVE",
"1247 394 CURVE SMOOTH",
"1247 0 LINE",
"1334 0 LINE",
"1334 393 LINE SMOOTH",
"1334 495 OFFCURVE",
"1281 546 OFFCURVE",
"1175 546 CURVE SMOOTH",
"1069 546 OFFCURVE",
"1016 493 OFFCURVE",
"1016 388 CURVE SMOOTH",
"1016 131 LINE SMOOTH",
"1016 89 OFFCURVE",
"996 68 OFFCURVE",
"957 68 CURVE SMOOTH",
"924 68 LINE SMOOTH",
"885 68 OFFCURVE",
"865 89 OFFCURVE",
"865 131 CURVE SMOOTH",
"865 393 LINE SMOOTH",
"865 495 OFFCURVE",
"813 546 OFFCURVE",
"707 546 CURVE SMOOTH",
"601 546 OFFCURVE",
"547 493 OFFCURVE",
"547 388 CURVE SMOOTH",
"547 131 LINE SMOOTH",
"547 89 OFFCURVE",
"527 68 OFFCURVE",
"488 68 CURVE SMOOTH",
"455 68 LINE SMOOTH",
"416 68 OFFCURVE",
"396 89 OFFCURVE",
"396 131 CURVE SMOOTH",
"396 393 LINE SMOOTH",
"396 495 OFFCURVE",
"344 546 OFFCURVE",
"238 546 CURVE SMOOTH",
"132 546 OFFCURVE",
"78 493 OFFCURVE",
"78 388 CURVE SMOOTH",
"78 150 LINE SMOOTH",
"78 57 OFFCURVE",
"132 10 OFFCURVE",
"222 0 CURVE"
);
}
);
width = 1383;
},
{
layerId = "791C41F8-8E37-43C9-BD6C-904761E149BF";
paths = (
{
closed = 1;
nodes = (
"299 93 LINE",
"239 101 OFFCURVE",
"209 129 OFFCURVE",
"209 178 CURVE SMOOTH",
"209 347 LINE SMOOTH",
"209 396 OFFCURVE",
"234 421 OFFCURVE",
"282 421 CURVE SMOOTH",
"330 421 OFFCURVE",
"354 397 OFFCURVE",
"354 350 CURVE SMOOTH",
"354 187 LINE SMOOTH",
"354 63 OFFCURVE",
"419 1 OFFCURVE",
"550 1 CURVE SMOOTH",
"550 1 LINE SMOOTH",
"681 1 OFFCURVE",
"746 63 OFFCURVE",
"746 187 CURVE SMOOTH",
"746 347 LINE SMOOTH",
"746 396 OFFCURVE",
"771 421 OFFCURVE",
"819 421 CURVE SMOOTH",
"867 421 OFFCURVE",
"891 397 OFFCURVE",
"891 350 CURVE SMOOTH",
"891 187 LINE SMOOTH",
"891 63 OFFCURVE",
"956 1 OFFCURVE",
"1087 1 CURVE SMOOTH",
"1087 1 LINE SMOOTH",
"1218 1 OFFCURVE",
"1283 63 OFFCURVE",
"1283 187 CURVE SMOOTH",
"1283 347 LINE SMOOTH",
"1283 396 OFFCURVE",
"1308 421 OFFCURVE",
"1356 421 CURVE SMOOTH",
"1404 421 OFFCURVE",
"1428 397 OFFCURVE",
"1428 350 CURVE SMOOTH",
"1428 0 LINE",
"1559 0 LINE",
"1559 349 LINE SMOOTH",
"1559 480 OFFCURVE",
"1491 546 OFFCURVE",
"1356 546 CURVE SMOOTH",
"1221 546 OFFCURVE",
"1152 479 OFFCURVE",
"1152 344 CURVE SMOOTH",
"1152 190 LINE SMOOTH",
"1152 145 OFFCURVE",
"1130 122 OFFCURVE",
"1087 122 CURVE SMOOTH",
"1087 122 LINE SMOOTH",
"1043 122 OFFCURVE",
"1021 145 OFFCURVE",
"1021 190 CURVE SMOOTH",
"1021 349 LINE SMOOTH",
"1021 480 OFFCURVE",
"954 546 OFFCURVE",
"819 546 CURVE SMOOTH",
"684 546 OFFCURVE",
"615 479 OFFCURVE",
"615 344 CURVE SMOOTH",
"615 190 LINE SMOOTH",
"615 145 OFFCURVE",
"593 122 OFFCURVE",
"550 122 CURVE SMOOTH",
"550 122 LINE SMOOTH",
"506 122 OFFCURVE",
"484 145 OFFCURVE",
"484 190 CURVE SMOOTH",
"484 349 LINE SMOOTH",
"484 480 OFFCURVE",
"417 546 OFFCURVE",
"282 546 CURVE SMOOTH",
"146 546 OFFCURVE",
"78 479 OFFCURVE",
"78 344 CURVE SMOOTH",
"78 173 LINE SMOOTH",
"78 60 OFFCURVE",
"154 5 OFFCURVE",
"280 0 CURVE"
);
}
);
width = 1608;
}
);
note = ya;
unicode = A9AA;
category = Letter;
},
{
glyphname = ra;
lastChange = "2018-12-13 17:24:08 +0000";
layers = (
{
layerId = "BA48FBA0-A6DA-4EAF-9284-46C574130433";
paths = (
{
closed = 1;
nodes = (
"524 -1 OFFCURVE",
"556 35 OFFCURVE",
"556 104 CURVE SMOOTH",
"556 362 LINE SMOOTH",
"556 434 OFFCURVE",
"594 470 OFFCURVE",
"668 470 CURVE SMOOTH",
"742 470 OFFCURVE",
"779 435 OFFCURVE",
"779 365 CURVE SMOOTH",
"779 0 LINE",
"866 0 LINE",
"866 364 LINE SMOOTH",
"866 485 OFFCURVE",
"800 546 OFFCURVE",
"668 546 CURVE SMOOTH",
"536 546 OFFCURVE",
"469 482 OFFCURVE",
"469 358 CURVE SMOOTH",
"469 111 LINE SMOOTH",
"469 92 OFFCURVE",
"462 83 OFFCURVE",
"449 83 CURVE SMOOTH",
"446 83 OFFCURVE",
"440 83 OFFCURVE",
"436 85 CURVE SMOOTH",
"305 139 LINE",
"376 207 OFFCURVE",
"413 292 OFFCURVE",
"413 393 CURVE SMOOTH",
"413 494 OFFCURVE",
"366 546 OFFCURVE",
"272 546 CURVE SMOOTH",
"41 546 LINE",
"24 516 LINE",
"111 390 LINE",
"206 390 LINE",
"142 478 LINE",
"267 478 LINE SMOOTH",
"304 478 OFFCURVE",
"322 441 OFFCURVE",
"322 367 CURVE SMOOTH",
"322 359 LINE SMOOTH",
"322 280 OFFCURVE",
"276 203 OFFCURVE",
"191 128 CURVE",
"191 100 LINE",
"411 10 LINE SMOOTH",
"429 3 OFFCURVE",
"446 -1 OFFCURVE",
"461 -1 CURVE SMOOTH"
);
}
);
width = 915;
},
{
layerId = "791C41F8-8E37-43C9-BD6C-904761E149BF";
paths = (
{
closed = 1;
nodes = (
"635 -1 OFFCURVE",
"685 30 OFFCURVE",
"685 104 CURVE SMOOTH",
"685 313 LINE SMOOTH",
"685 385 OFFCURVE",
"725 421 OFFCURVE",
"804 421 CURVE SMOOTH",
"882 421 OFFCURVE",
"922 386 OFFCURVE",
"922 316 CURVE SMOOTH",
"922 0 LINE",
"1053 0 LINE",
"1053 305 LINE SMOOTH",
"1053 466 OFFCURVE",
"971 546 OFFCURVE",
"806 546 CURVE SMOOTH",
"639 546 OFFCURVE",
"554 464 OFFCURVE",
"554 300 CURVE SMOOTH",
"554 156 LINE SMOOTH",
"554 137 OFFCURVE",
"543 126 OFFCURVE",
"524 126 CURVE SMOOTH",
"520 126 OFFCURVE",
"516 127 OFFCURVE",
"511 129 CURVE SMOOTH",
"370 173 LINE",
"441 229 OFFCURVE",
"478 302 OFFCURVE",
"478 393 CURVE SMOOTH",
"478 494 OFFCURVE",
"422 546 OFFCURVE",
"313 546 CURVE SMOOTH",
"42 546 LINE",
"24 516 LINE",
"145 327 LINE",
"234 327 LINE",
"177 424 LINE",
"278 424 LINE SMOOTH",
"321 424 OFFCURVE",
"343 405 OFFCURVE",
"343 367 CURVE SMOOTH",
"343 361 LINE SMOOTH",
"343 282 OFFCURVE",
"283 214 OFFCURVE",
"168 162 CURVE",
"168 114 LINE",
"457 19 LINE SMOOTH",
"496 6 OFFCURVE",
"526 -1 OFFCURVE",
"554 -1 CURVE SMOOTH"
);
}
);
width = 1102;
}
);
note = ra;
unicode = A9AB;
category = Letter;
},
{
glyphname = raagung;
lastChange = "2018-12-13 17:24:08 +0000";
layers = (
{
layerId = "BA48FBA0-A6DA-4EAF-9284-46C574130433";
paths = (
{
closed = 1;
nodes = (
"367 0 LINE",
"367 391 LINE SMOOTH",
"367 444 OFFCURVE",
"392 470 OFFCURVE",
"440 470 CURVE SMOOTH",
"488 470 OFFCURVE",
"512 445 OFFCURVE",
"512 394 CURVE SMOOTH",
"512 0 LINE",
"599 0 LINE",
"599 391 LINE SMOOTH",
"599 444 OFFCURVE",
"623 470 OFFCURVE",
"670 470 CURVE SMOOTH",
"705 470 OFFCURVE",
"743 442 OFFCURVE",
"743 398 CURVE SMOOTH",
"743 0 LINE",
"830 0 LINE",
"830 391 LINE SMOOTH",
"830 444 OFFCURVE",
"855 470 OFFCURVE",
"903 470 CURVE SMOOTH",
"951 470 OFFCURVE",
"975 445 OFFCURVE",
"975 394 CURVE SMOOTH",
"975 138 LINE SMOOTH",
"975 46 OFFCURVE",
"1020 0 OFFCURVE",
"1110 0 CURVE SMOOTH",
"1199 0 OFFCURVE",
"1244 44 OFFCURVE",
"1244 133 CURVE SMOOTH",
"1244 517 LINE SMOOTH",
"1244 684 OFFCURVE",
"1203 790 OFFCURVE",
"1097 790 CURVE SMOOTH",
"1032 790 OFFCURVE",
"987 752 OFFCURVE",
"987 680 CURVE SMOOTH",
"987 592 OFFCURVE",
"1054 541 OFFCURVE",
"1157 503 CURVE",
"1157 132 LINE SMOOTH",
"1157 95 OFFCURVE",
"1142 76 OFFCURVE",
"1110 76 CURVE SMOOTH",
"1078 76 OFFCURVE",
"1062 96 OFFCURVE",
"1062 135 CURVE SMOOTH",
"1062 393 LINE SMOOTH",
"1062 495 OFFCURVE",
"1009 546 OFFCURVE",
"903 546 CURVE SMOOTH",
"854 546 OFFCURVE",
"815 525 OFFCURVE",
"790 483 CURVE",
"766 521 OFFCURVE",
"717 546 OFFCURVE",
"671 546 CURVE SMOOTH",
"622 546 OFFCURVE",
"584 525 OFFCURVE",
"558 483 CURVE",
"532 525 OFFCURVE",
"493 546 OFFCURVE",
"440 546 CURVE SMOOTH",
"390 546 OFFCURVE",
"352 524 OFFCURVE",
"325 481 CURVE",
"298 524 OFFCURVE",
"260 546 OFFCURVE",
"208 546 CURVE SMOOTH",
"103 546 OFFCURVE",
"49 493 OFFCURVE",
"49 388 CURVE SMOOTH",
"49 302 OFFCURVE",
"102 242 OFFCURVE",
"196 234 CURVE",
"205 293 LINE",
"159 306 OFFCURVE",
"136 338 OFFCURVE",
"136 391 CURVE SMOOTH",
"136 444 OFFCURVE",
"161 470 OFFCURVE",
"208 470 CURVE SMOOTH",
"256 470 OFFCURVE",
"280 445 OFFCURVE",
"280 394 CURVE SMOOTH",
"280 0 LINE"
);
},
{
closed = 1;
nodes = (
"1096 603 OFFCURVE",
"1063 636 OFFCURVE",
"1063 676 CURVE SMOOTH",
"1063 701 OFFCURVE",
"1075 713 OFFCURVE",
"1098 713 CURVE SMOOTH",
"1134 713 OFFCURVE",
"1154 668 OFFCURVE",
"1160 577 CURVE",
"1160 577 LINE"
);
}
);
width = 1293;
},
{
layerId = "791C41F8-8E37-43C9-BD6C-904761E149BF";
paths = (
{
closed = 1;
nodes = (
"479 0 LINE",
"479 342 LINE SMOOTH",
"479 398 OFFCURVE",
"508 426 OFFCURVE",
"562 426 CURVE SMOOTH",
"616 426 OFFCURVE",
"644 399 OFFCURVE",
"644 345 CURVE SMOOTH",
"644 0 LINE",
"774 0 LINE",
"774 342 LINE SMOOTH",
"774 398 OFFCURVE",
"803 426 OFFCURVE",
"857 426 CURVE SMOOTH",
"911 426 OFFCURVE",
"938 399 OFFCURVE",
"938 345 CURVE SMOOTH",
"938 0 LINE",
"1069 0 LINE",
"1069 342 LINE SMOOTH",
"1069 398 OFFCURVE",
"1098 426 OFFCURVE",
"1154 426 CURVE SMOOTH",
"1210 426 OFFCURVE",
"1238 399 OFFCURVE",
"1238 345 CURVE SMOOTH",
"1238 203 LINE SMOOTH",
"1238 68 OFFCURVE",
"1306 1 OFFCURVE",
"1441 1 CURVE SMOOTH",
"1573 1 OFFCURVE",
"1640 70 OFFCURVE",
"1640 208 CURVE SMOOTH",
"1640 583 LINE SMOOTH",
"1640 721 OFFCURVE",
"1578 790 OFFCURVE",
"1456 790 CURVE SMOOTH",
"1365 790 OFFCURVE",
"1304 732 OFFCURVE",
"1304 645 CURVE SMOOTH",
"1304 547 OFFCURVE",
"1390 502 OFFCURVE",
"1509 489 CURVE",
"1509 205 LINE SMOOTH",
"1509 152 OFFCURVE",
"1485 125 OFFCURVE",
"1438 125 CURVE SMOOTH",
"1392 125 OFFCURVE",
"1369 151 OFFCURVE",
"1369 202 CURVE SMOOTH",
"1369 354 LINE SMOOTH",
"1369 482 OFFCURVE",
"1302 546 OFFCURVE",
"1167 546 CURVE SMOOTH",
"1091 546 OFFCURVE",
"1038 518 OFFCURVE",
"1007 463 CURVE",
"976 518 OFFCURVE",
"926 546 OFFCURVE",
"857 546 CURVE SMOOTH",
"791 546 OFFCURVE",
"743 519 OFFCURVE",
"711 464 CURVE",
"680 519 OFFCURVE",
"630 546 OFFCURVE",
"562 546 CURVE SMOOTH",
"496 546 OFFCURVE",
"447 518 OFFCURVE",
"416 463 CURVE",
"384 518 OFFCURVE",
"330 546 OFFCURVE",
"252 546 CURVE SMOOTH",
"136 546 OFFCURVE",
"59 476 OFFCURVE",
"59 343 CURVE SMOOTH",
"59 224 OFFCURVE",
"145 165 OFFCURVE",
"255 146 CURVE",
"273 244 LINE",
"214 257 OFFCURVE",
"185 290 OFFCURVE",
"185 342 CURVE SMOOTH",
"185 398 OFFCURVE",
"213 426 OFFCURVE",
"267 426 CURVE SMOOTH",
"321 426 OFFCURVE",
"349 399 OFFCURVE",
"349 345 CURVE SMOOTH",
"349 0 LINE"
);
},
{
closed = 1;
nodes = (
"1454 615 OFFCURVE",
"1424 630 OFFCURVE",
"1424 652 CURVE SMOOTH",
"1424 669 OFFCURVE",
"1436 678 OFFCURVE",
"1457 678 CURVE SMOOTH",
"1493 678 OFFCURVE",
"1514 657 OFFCURVE",
"1514 619 CURVE SMOOTH",
"1514 608 LINE"
);
}
);
width = 1689;
}
);
note = raagung;
unicode = A9AC;
category = Letter;
},
{
glyphname = la;
lastChange = "2018-12-13 17:24:08 +0000";
layers = (
{
layerId = "BA48FBA0-A6DA-4EAF-9284-46C574130433";
paths = (
{
closed = 1;
nodes = (
"240 68 LINE",
"190 76 OFFCURVE",
"165 104 OFFCURVE",
"165 154 CURVE SMOOTH",
"165 391 LINE SMOOTH",
"165 444 OFFCURVE",
"190 470 OFFCURVE",
"238 470 CURVE SMOOTH",
"278 470 OFFCURVE",
"310 441 OFFCURVE",
"310 395 CURVE SMOOTH",
"310 0 LINE",
"396 0 LINE",
"396 391 LINE SMOOTH",
"396 444 OFFCURVE",
"421 470 OFFCURVE",
"469 470 CURVE SMOOTH",
"517 470 OFFCURVE",
"541 445 OFFCURVE",
"541 394 CURVE SMOOTH",
"541 133 LINE SMOOTH",
"541 45 OFFCURVE",
"588 0 OFFCURVE",
"682 0 CURVE SMOOTH",
"773 0 LINE SMOOTH",
"867 0 OFFCURVE",
"914 45 OFFCURVE",
"914 133 CURVE SMOOTH",
"914 391 LINE SMOOTH",
"914 444 OFFCURVE",
"939 470 OFFCURVE",
"987 470 CURVE SMOOTH",
"1035 470 OFFCURVE",
"1059 445 OFFCURVE",
"1059 394 CURVE SMOOTH",
"1059 0 LINE",
"1146 0 LINE",
"1146 393 LINE SMOOTH",
"1146 495 OFFCURVE",
"1093 546 OFFCURVE",
"987 546 CURVE SMOOTH",
"881 546 OFFCURVE",
"827 493 OFFCURVE",
"827 388 CURVE SMOOTH",
"827 131 LINE SMOOTH",
"827 89 OFFCURVE",
"808 68 OFFCURVE",
"769 68 CURVE SMOOTH",
"687 68 LINE SMOOTH",
"647 68 OFFCURVE",
"628 89 OFFCURVE",
"628 131 CURVE SMOOTH",
"628 393 LINE SMOOTH",
"628 495 OFFCURVE",
"575 546 OFFCURVE",
"469 546 CURVE SMOOTH",
"420 546 OFFCURVE",
"382 525 OFFCURVE",
"356 483 CURVE",
"332 522 OFFCURVE",
"288 546 OFFCURVE",
"238 546 CURVE SMOOTH",
"132 546 OFFCURVE",
"78 493 OFFCURVE",
"78 388 CURVE SMOOTH",
"78 150 LINE SMOOTH",
"78 57 OFFCURVE",
"132 10 OFFCURVE",
"222 0 CURVE"
);
}
);
width = 1194;
},
{
layerId = "791C41F8-8E37-43C9-BD6C-904761E149BF";
paths = (
{
closed = 1;
nodes = (
"299 93 LINE",
"239 101 OFFCURVE",
"209 129 OFFCURVE",
"209 178 CURVE SMOOTH",
"209 347 LINE SMOOTH",
"209 400 OFFCURVE",
"233 426 OFFCURVE",
"279 426 CURVE SMOOTH",
"326 426 OFFCURVE",
"349 401 OFFCURVE",
"349 350 CURVE SMOOTH",
"349 0 LINE",
"479 0 LINE",
"479 347 LINE SMOOTH",
"479 400 OFFCURVE",
"503 426 OFFCURVE",
"547 426 CURVE SMOOTH",
"592 426 OFFCURVE",
"614 401 OFFCURVE",
"614 350 CURVE SMOOTH",
"614 192 LINE SMOOTH",
"614 65 OFFCURVE",
"682 0 OFFCURVE",
"818 0 CURVE SMOOTH",
"852 0 LINE SMOOTH",
"988 0 OFFCURVE",
"1056 65 OFFCURVE",
"1056 192 CURVE SMOOTH",
"1056 347 LINE SMOOTH",
"1056 400 OFFCURVE",
"1080 426 OFFCURVE",
"1126 426 CURVE SMOOTH",
"1172 426 OFFCURVE",
"1195 401 OFFCURVE",
"1195 350 CURVE SMOOTH",
"1195 0 LINE",
"1326 0 LINE",
"1326 349 LINE SMOOTH",
"1326 480 OFFCURVE",
"1259 546 OFFCURVE",
"1124 546 CURVE SMOOTH",
"992 546 OFFCURVE",
"925 479 OFFCURVE",
"925 344 CURVE SMOOTH",
"925 190 LINE SMOOTH",
"925 145 OFFCURVE",
"902 122 OFFCURVE",
"856 122 CURVE SMOOTH",
"813 122 LINE SMOOTH",
"768 122 OFFCURVE",
"745 145 OFFCURVE",
"745 190 CURVE SMOOTH",
"745 349 LINE SMOOTH",
"745 480 OFFCURVE",
"686 546 OFFCURVE",
"567 546 CURVE SMOOTH",
"499 546 OFFCURVE",
"448 521 OFFCURVE",
"415 469 CURVE",
"382 521 OFFCURVE",
"331 546 OFFCURVE",
"262 546 CURVE SMOOTH",
"140 546 OFFCURVE",
"78 479 OFFCURVE",
"78 344 CURVE SMOOTH",
"78 173 LINE SMOOTH",
"78 61 OFFCURVE",
"152 6 OFFCURVE",
"280 0 CURVE"
);
}
);
width = 1375;
}
);
note = la;
unicode = A9AD;
category = Letter;
},
{
glyphname = wa;
lastChange = "2018-12-13 17:24:08 +0000";
layers = (
{
layerId = "BA48FBA0-A6DA-4EAF-9284-46C574130433";
paths = (
{
closed = 1;
nodes = (
"240 68 LINE",
"190 76 OFFCURVE",
"165 104 OFFCURVE",
"165 154 CURVE SMOOTH",
"165 391 LINE SMOOTH",
"165 444 OFFCURVE",
"190 470 OFFCURVE",
"238 470 CURVE SMOOTH",
"286 470 OFFCURVE",
"310 445 OFFCURVE",
"310 394 CURVE SMOOTH",
"310 133 LINE SMOOTH",
"310 45 OFFCURVE",
"356 0 OFFCURVE",
"450 0 CURVE SMOOTH",
"591 0 LINE SMOOTH",
"685 0 OFFCURVE",
"731 45 OFFCURVE",
"731 133 CURVE SMOOTH",
"731 321 LINE SMOOTH",
"731 404 OFFCURVE",
"704 454 OFFCURVE",
"649 470 CURVE",
"758 470 LINE SMOOTH",
"807 470 OFFCURVE",
"831 444 OFFCURVE",
"831 391 CURVE SMOOTH",
"831 0 LINE",
"918 0 LINE",
"918 388 LINE SMOOTH",
"918 493 OFFCURVE",
"864 546 OFFCURVE",
"758 546 CURVE SMOOTH",
"503 546 LINE",
"503 479 LINE",
"597 473 OFFCURVE",
"645 415 OFFCURVE",
"645 305 CURVE SMOOTH",
"645 131 LINE SMOOTH",
"645 89 OFFCURVE",
"625 68 OFFCURVE",
"586 68 CURVE SMOOTH",
"455 68 LINE SMOOTH",
"416 68 OFFCURVE",
"396 89 OFFCURVE",
"396 131 CURVE SMOOTH",
"396 393 LINE SMOOTH",
"396 495 OFFCURVE",
"344 546 OFFCURVE",
"238 546 CURVE SMOOTH",
"132 546 OFFCURVE",
"78 493 OFFCURVE",
"78 388 CURVE SMOOTH",
"78 150 LINE SMOOTH",
"78 57 OFFCURVE",
"132 10 OFFCURVE",
"222 0 CURVE"
);
}
);
width = 967;
},
{
layerId = "791C41F8-8E37-43C9-BD6C-904761E149BF";
paths = (
{
closed = 1;
nodes = (
"299 93 LINE",
"239 101 OFFCURVE",
"209 129 OFFCURVE",
"209 178 CURVE SMOOTH",
"209 347 LINE SMOOTH",
"209 396 OFFCURVE",
"234 421 OFFCURVE",
"282 421 CURVE SMOOTH",
"330 421 OFFCURVE",
"354 397 OFFCURVE",
"354 350 CURVE SMOOTH",
"354 192 LINE SMOOTH",
"354 65 OFFCURVE",
"417 0 OFFCURVE",
"543 0 CURVE SMOOTH",
"688 0 LINE SMOOTH",
"818 0 OFFCURVE",
"883 73 OFFCURVE",
"883 217 CURVE SMOOTH",
"883 217 LINE SMOOTH",
"883 327 OFFCURVE",
"849 396 OFFCURVE",
"781 421 CURVE",
"895 421 LINE SMOOTH",
"953 421 OFFCURVE",
"982 395 OFFCURVE",
"982 342 CURVE SMOOTH",
"982 0 LINE",
"1113 0 LINE",
"1113 393 LINE SMOOTH",
"1113 495 OFFCURVE",
"1043 546 OFFCURVE",
"905 546 CURVE SMOOTH",
"601 546 LINE",
"601 425 LINE",
"705 419 OFFCURVE",
"757 354 OFFCURVE",
"757 228 CURVE SMOOTH",
"757 228 LINE SMOOTH",
"757 157 OFFCURVE",
"736 122 OFFCURVE",
"693 122 CURVE SMOOTH",
"543 122 LINE SMOOTH",
"504 122 OFFCURVE",
"484 145 OFFCURVE",
"484 190 CURVE SMOOTH",
"484 349 LINE SMOOTH",
"484 480 OFFCURVE",
"417 546 OFFCURVE",
"282 546 CURVE SMOOTH",
"146 546 OFFCURVE",
"78 479 OFFCURVE",
"78 344 CURVE SMOOTH",
"78 173 LINE SMOOTH",
"78 61 OFFCURVE",
"152 6 OFFCURVE",
"280 0 CURVE"
);
}
);
width = 1162;
}
);
note = wa;
unicode = A9AE;
category = Letter;
},
{
glyphname = sha;
lastChange = "2018-12-13 17:24:08 +0000";
layers = (
{
layerId = "BA48FBA0-A6DA-4EAF-9284-46C574130433";
paths = (
{
closed = 1;
nodes = (
"367 0 LINE",
"367 181 LINE",
"541 181 LINE",
"541 0 LINE",
"628 0 LINE",
"628 181 LINE",
"707 181 LINE SMOOTH",
"770 181 OFFCURVE",
"802 158 OFFCURVE",
"802 112 CURVE SMOOTH",
"802 0 LINE",
"889 0 LINE",
"889 374 LINE SMOOTH",
"889 488 OFFCURVE",
"831 546 OFFCURVE",
"715 546 CURVE SMOOTH",
"656 546 OFFCURVE",
"613 522 OFFCURVE",
"587 474 CURVE",
"562 522 OFFCURVE",
"518 546 OFFCURVE",
"455 546 CURVE SMOOTH",
"395 546 OFFCURVE",
"352 521 OFFCURVE",
"325 471 CURVE",
"298 521 OFFCURVE",
"260 546 OFFCURVE",
"208 546 CURVE SMOOTH",
"103 546 OFFCURVE",
"49 493 OFFCURVE",
"49 388 CURVE SMOOTH",
"49 302 OFFCURVE",
"102 242 OFFCURVE",
"196 234 CURVE",
"205 293 LINE",
"159 306 OFFCURVE",
"136 338 OFFCURVE",
"136 391 CURVE SMOOTH",
"136 444 OFFCURVE",
"161 470 OFFCURVE",
"208 470 CURVE SMOOTH",
"256 470 OFFCURVE",
"280 438 OFFCURVE",
"280 375 CURVE SMOOTH",
"280 0 LINE"
);
},
{
closed = 1;
nodes = (
"367 372 LINE SMOOTH",
"367 438 OFFCURVE",
"396 470 OFFCURVE",
"455 470 CURVE SMOOTH",
"512 470 OFFCURVE",
"541 438 OFFCURVE",
"541 375 CURVE SMOOTH",
"541 253 LINE",
"367 253 LINE"
);
},
{
closed = 1;
nodes = (
"783 240 OFFCURVE",
"754 253 OFFCURVE",
"716 253 CURVE SMOOTH",
"628 253 LINE",
"628 372 LINE SMOOTH",
"628 438 OFFCURVE",
"657 470 OFFCURVE",
"715 470 CURVE SMOOTH",
"773 470 OFFCURVE",
"802 438 OFFCURVE",
"802 375 CURVE SMOOTH",
"802 214 LINE"
);
}
);
width = 938;
},
{
layerId = "791C41F8-8E37-43C9-BD6C-904761E149BF";
paths = (
{
closed = 1;
nodes = (
"479 0 LINE",
"479 215 LINE",
"644 215 LINE",
"644 0 LINE",
"774 0 LINE",
"774 215 LINE",
"829 215 LINE SMOOTH",
"905 215 OFFCURVE",
"943 177 OFFCURVE",
"943 103 CURVE SMOOTH",
"943 0 LINE",
"1074 0 LINE",
"1074 354 LINE SMOOTH",
"1074 482 OFFCURVE",
"1007 546 OFFCURVE",
"872 546 CURVE SMOOTH",
"796 546 OFFCURVE",
"743 518 OFFCURVE",
"712 463 CURVE",
"681 518 OFFCURVE",
"631 546 OFFCURVE",
"562 546 CURVE SMOOTH",
"496 546 OFFCURVE",
"447 518 OFFCURVE",
"416 463 CURVE",
"384 518 OFFCURVE",
"329 546 OFFCURVE",
"252 546 CURVE SMOOTH",
"136 546 OFFCURVE",
"59 473 OFFCURVE",
"59 349 CURVE SMOOTH",
"59 231 OFFCURVE",
"139 164 OFFCURVE",
"255 146 CURVE",
"273 244 LINE",
"214 257 OFFCURVE",
"185 290 OFFCURVE",
"185 342 CURVE SMOOTH",
"185 398 OFFCURVE",
"212 426 OFFCURVE",
"267 426 CURVE SMOOTH",
"321 426 OFFCURVE",
"349 399 OFFCURVE",
"349 345 CURVE SMOOTH",
"349 0 LINE"
);
},
{
closed = 1;
nodes = (
"479 341 LINE SMOOTH",
"479 397 OFFCURVE",
"507 426 OFFCURVE",
"562 426 CURVE SMOOTH",
"616 426 OFFCURVE",
"644 399 OFFCURVE",
"644 345 CURVE SMOOTH",
"644 317 LINE",
"479 317 LINE"
);
},
{
closed = 1;
nodes = (
"921 294 OFFCURVE",
"886 317 OFFCURVE",
"838 317 CURVE SMOOTH",
"774 317 LINE",
"774 341 LINE SMOOTH",
"774 397 OFFCURVE",
"803 426 OFFCURVE",
"859 426 CURVE SMOOTH",
"916 426 OFFCURVE",
"943 399 OFFCURVE",
"943 345 CURVE SMOOTH",
"943 249 LINE"
);
}
);
width = 1123;
}
);
note = sha;
unicode = A9AF;
category = Letter;
},
{
glyphname = ssa;
lastChange = "2018-12-13 17:24:08 +0000";
layers = (
{
layerId = "BA48FBA0-A6DA-4EAF-9284-46C574130433";
paths = (
{
closed = 1;
nodes = (
"240 68 LINE",
"190 76 OFFCURVE",
"165 104 OFFCURVE",
"165 154 CURVE SMOOTH",
"165 391 LINE SMOOTH",
"165 444 OFFCURVE",
"190 470 OFFCURVE",
"238 470 CURVE SMOOTH",
"286 470 OFFCURVE",
"310 445 OFFCURVE",
"310 394 CURVE SMOOTH",
"310 133 LINE SMOOTH",
"310 45 OFFCURVE",
"356 0 OFFCURVE",
"450 0 CURVE SMOOTH",
"591 0 LINE SMOOTH",
"685 0 OFFCURVE",
"731 45 OFFCURVE",
"731 133 CURVE SMOOTH",
"731 181 LINE",
"781 181 LINE SMOOTH",
"844 181 OFFCURVE",
"876 158 OFFCURVE",
"876 112 CURVE SMOOTH",
"876 0 LINE",
"963 0 LINE",
"963 393 LINE SMOOTH",
"963 495 OFFCURVE",
"910 546 OFFCURVE",
"804 546 CURVE SMOOTH",
"698 546 OFFCURVE",
"645 493 OFFCURVE",
"645 388 CURVE SMOOTH",
"645 253 LINE",
"529 253 LINE",
"563 351 LINE",
"481 351 LINE",
"433 213 LINE",
"447 181 LINE",
"645 181 LINE",
"645 131 LINE SMOOTH",
"645 89 OFFCURVE",
"625 68 OFFCURVE",
"586 68 CURVE SMOOTH",
"455 68 LINE SMOOTH",
"416 68 OFFCURVE",
"396 89 OFFCURVE",
"396 131 CURVE SMOOTH",
"396 393 LINE SMOOTH",
"396 495 OFFCURVE",
"344 546 OFFCURVE",
"238 546 CURVE SMOOTH",
"132 546 OFFCURVE",
"78 493 OFFCURVE",
"78 388 CURVE SMOOTH",
"78 150 LINE SMOOTH",
"78 57 OFFCURVE",
"132 10 OFFCURVE",
"222 0 CURVE"
);
},
{
closed = 1;
nodes = (
"857 240 OFFCURVE",
"828 253 OFFCURVE",
"791 253 CURVE SMOOTH",
"731 253 LINE",
"731 391 LINE SMOOTH",
"731 444 OFFCURVE",
"756 470 OFFCURVE",
"804 470 CURVE SMOOTH",
"852 470 OFFCURVE",
"876 445 OFFCURVE",
"876 394 CURVE SMOOTH",
"876 214 LINE"
);
}
);
width = 1012;
},
{
layerId = "791C41F8-8E37-43C9-BD6C-904761E149BF";
paths = (
{
closed = 1;
nodes = (
"299 93 LINE",
"239 101 OFFCURVE",
"209 129 OFFCURVE",
"209 178 CURVE SMOOTH",
"209 347 LINE SMOOTH",
"209 396 OFFCURVE",
"234 421 OFFCURVE",
"282 421 CURVE SMOOTH",
"330 421 OFFCURVE",
"354 397 OFFCURVE",
"354 350 CURVE SMOOTH",
"354 187 LINE SMOOTH",
"354 63 OFFCURVE",
"421 0 OFFCURVE",
"558 0 CURVE SMOOTH",
"630 0 LINE SMOOTH",
"766 0 OFFCURVE",
"834 63 OFFCURVE",
"834 187 CURVE SMOOTH",
"834 215 LINE",
"859 215 LINE",
"938 202 OFFCURVE",
"979 164 OFFCURVE",
"979 103 CURVE SMOOTH",
"979 0 LINE",
"1109 0 LINE",
"1109 349 LINE SMOOTH",
"1109 480 OFFCURVE",
"1042 546 OFFCURVE",
"907 546 CURVE SMOOTH",
"771 546 OFFCURVE",
"703 478 OFFCURVE",
"703 343 CURVE SMOOTH",
"703 317 LINE",
"646 317 LINE",
"683 404 LINE",
"599 404 LINE",
"522 245 LINE",
"540 215 LINE",
"703 215 LINE",
"703 190 LINE SMOOTH",
"703 145 OFFCURVE",
"680 122 OFFCURVE",
"635 122 CURVE SMOOTH",
"553 122 LINE SMOOTH",
"507 122 OFFCURVE",
"484 145 OFFCURVE",
"484 190 CURVE SMOOTH",
"484 349 LINE SMOOTH",
"484 480 OFFCURVE",
"417 546 OFFCURVE",
"282 546 CURVE SMOOTH",
"146 546 OFFCURVE",
"78 479 OFFCURVE",
"78 344 CURVE SMOOTH",
"78 173 LINE SMOOTH",
"78 61 OFFCURVE",
"152 6 OFFCURVE",
"280 0 CURVE"
);
},
{
closed = 1;
nodes = (
"956 293 OFFCURVE",
"919 317 OFFCURVE",
"869 317 CURVE SMOOTH",
"834 317 LINE",
"834 347 LINE SMOOTH",
"834 396 OFFCURVE",
"859 421 OFFCURVE",
"907 421 CURVE SMOOTH",
"955 421 OFFCURVE",
"979 397 OFFCURVE",
"979 350 CURVE SMOOTH",
"979 247 LINE"
);
}
);
width = 1158;
}
);
note = ssa;
unicode = A9B0;
category = Letter;
},
